G04 #@! TF.GenerationSoftware,KiCad,Pcbnew,5.1.2-f72e74a~84~ubuntu18.04.1*
G04 #@! TF.CreationDate,2019-06-22T18:56:12+05:30*
G04 #@! TF.ProjectId,mc60,6d633630-2e6b-4696-9361-645f70636258,rev?*
G04 #@! TF.SameCoordinates,PX41cdb40PY7bfa480*
G04 #@! TF.FileFunction,Soldermask,Bot*
G04 #@! TF.FilePolarity,Negative*
%FSLAX46Y46*%
G04 Gerber Fmt 4.6, Leading zero omitted, Abs format (unit mm)*
G04 Created by KiCad (PCBNEW 5.1.2-f72e74a~84~ubuntu18.04.1) date 2019-06-22 18:56:12*
%MOMM*%
%LPD*%
G04 APERTURE LIST*
%ADD10C,0.700000*%
%ADD11C,0.010000*%
%ADD12C,0.002540*%
%ADD13C,1.150000*%
%ADD14C,5.600000*%
%ADD15R,1.400000X1.400000*%
%ADD16O,1.400000X1.400000*%
%ADD17R,2.400000X2.400000*%
%ADD18O,2.432000X2.127200*%
%ADD19R,2.432000X2.127200*%
%ADD20C,1.250000*%
%ADD21C,2.400000*%
%ADD22O,2.127200X2.127200*%
%ADD23R,2.127200X2.127200*%
%ADD24C,1.500000*%
%ADD25R,2.200000X2.600000*%
%ADD26O,2.200000X2.600000*%
G04 APERTURE END LIST*
D10*
X600000Y64600000D02*
X600000Y17000000D01*
X5400000Y69400000D02*
X600000Y64600000D01*
X54600000Y69400000D02*
X5400000Y69400000D01*
X59400000Y64600000D02*
X54600000Y69400000D01*
X59400000Y22900000D02*
X59400000Y64600000D01*
X59400000Y5400001D02*
X59400000Y15500000D01*
X54600000Y600000D02*
X59400000Y5400000D01*
X29400000Y600000D02*
X54600000Y600000D01*
X29400000Y600000D02*
X27000000Y3000000D01*
X27000000Y3000000D02*
X24600000Y600000D01*
X24600000Y600000D02*
X3050000Y600000D01*
D11*
G36*
X3539054Y11896400D02*
G01*
X3652993Y11885535D01*
X3760616Y11853918D01*
X3859615Y11803015D01*
X3947684Y11734293D01*
X4022516Y11649219D01*
X4080384Y11552232D01*
X4120005Y11445964D01*
X4138573Y11338950D01*
X4137434Y11233300D01*
X4117930Y11131125D01*
X4081406Y11034534D01*
X4029205Y10945638D01*
X3962673Y10866546D01*
X3883152Y10799369D01*
X3791987Y10746217D01*
X3690523Y10709199D01*
X3580102Y10690427D01*
X3530206Y10688489D01*
X3442267Y10688489D01*
X3442267Y10636560D01*
X3445111Y10600253D01*
X3456911Y10573355D01*
X3480649Y10546249D01*
X3519031Y10507867D01*
X5710602Y10507867D01*
X5972739Y10507876D01*
X6213241Y10507908D01*
X6433048Y10507972D01*
X6633101Y10508076D01*
X6814344Y10508227D01*
X6977716Y10508434D01*
X7124160Y10508706D01*
X7254617Y10509050D01*
X7370029Y10509474D01*
X7471338Y10509987D01*
X7559484Y10510597D01*
X7635410Y10511312D01*
X7700057Y10512140D01*
X7754367Y10513089D01*
X7799280Y10514167D01*
X7835740Y10515383D01*
X7864687Y10516745D01*
X7887063Y10518261D01*
X7903809Y10519938D01*
X7915868Y10521786D01*
X7924180Y10523813D01*
X7929687Y10526025D01*
X7931537Y10527108D01*
X7938549Y10531271D01*
X7944996Y10534805D01*
X7950900Y10538635D01*
X7956286Y10543682D01*
X7961178Y10550871D01*
X7965598Y10561123D01*
X7969572Y10575364D01*
X7973121Y10594514D01*
X7976270Y10619499D01*
X7979042Y10651240D01*
X7981461Y10690662D01*
X7983551Y10738686D01*
X7985335Y10796237D01*
X7986837Y10864237D01*
X7988080Y10943610D01*
X7989089Y11035279D01*
X7989885Y11140166D01*
X7990494Y11259196D01*
X7990939Y11393290D01*
X7991243Y11543373D01*
X7991430Y11710367D01*
X7991524Y11895196D01*
X7991548Y12098783D01*
X7991525Y12322050D01*
X7991480Y12565922D01*
X7991437Y12831321D01*
X7991432Y12869704D01*
X7991389Y13136682D01*
X7991318Y13382002D01*
X7991213Y13606583D01*
X7991066Y13811345D01*
X7990869Y13997206D01*
X7990616Y14165088D01*
X7990300Y14315908D01*
X7989913Y14450587D01*
X7989447Y14570044D01*
X7988897Y14675199D01*
X7988253Y14766971D01*
X7987511Y14846279D01*
X7986661Y14914043D01*
X7985697Y14971182D01*
X7984611Y15018617D01*
X7983397Y15057266D01*
X7982047Y15088049D01*
X7980555Y15111885D01*
X7978911Y15129694D01*
X7977111Y15142395D01*
X7975145Y15150908D01*
X7973477Y15155266D01*
X7969906Y15163728D01*
X7967270Y15171497D01*
X7964634Y15178602D01*
X7961062Y15185073D01*
X7955621Y15190939D01*
X7947375Y15196229D01*
X7935390Y15200974D01*
X7918731Y15205202D01*
X7896463Y15208943D01*
X7867652Y15212227D01*
X7831363Y15215083D01*
X7786661Y15217540D01*
X7732611Y15219629D01*
X7668279Y15221378D01*
X7592730Y15222817D01*
X7505030Y15223976D01*
X7404243Y15224883D01*
X7289434Y15225569D01*
X7159670Y15226063D01*
X7014015Y15226395D01*
X6851535Y15226593D01*
X6671295Y15226687D01*
X6472360Y15226708D01*
X6253796Y15226685D01*
X6014668Y15226646D01*
X5754040Y15226622D01*
X5711889Y15226622D01*
X5448992Y15226636D01*
X5207732Y15226661D01*
X4987165Y15226671D01*
X4786352Y15226642D01*
X4604349Y15226548D01*
X4440216Y15226362D01*
X4293011Y15226059D01*
X4161792Y15225614D01*
X4051867Y15225034D01*
X4051867Y14922197D01*
X4109711Y14882407D01*
X4125479Y14871236D01*
X4139441Y14861166D01*
X4152784Y14852138D01*
X4166693Y14844097D01*
X4182356Y14836986D01*
X4200958Y14830747D01*
X4223686Y14825325D01*
X4251727Y14820662D01*
X4286267Y14816701D01*
X4328492Y14813385D01*
X4379589Y14810659D01*
X4440744Y14808464D01*
X4513144Y14806745D01*
X4597975Y14805444D01*
X4696422Y14804505D01*
X4809674Y14803870D01*
X4938916Y14803484D01*
X5085334Y14803288D01*
X5250116Y14803227D01*
X5434447Y14803243D01*
X5639513Y14803280D01*
X5762133Y14803289D01*
X5979082Y14803265D01*
X6174642Y14803231D01*
X6349999Y14803243D01*
X6506341Y14803358D01*
X6644857Y14803630D01*
X6766734Y14804118D01*
X6873160Y14804876D01*
X6965322Y14805962D01*
X7044409Y14807431D01*
X7111608Y14809340D01*
X7168107Y14811744D01*
X7215093Y14814701D01*
X7253755Y14818266D01*
X7285280Y14822495D01*
X7310855Y14827446D01*
X7331670Y14833173D01*
X7348911Y14839733D01*
X7363765Y14847183D01*
X7377422Y14855579D01*
X7391069Y14864976D01*
X7405893Y14875432D01*
X7414783Y14881523D01*
X7472400Y14920296D01*
X7472400Y14388732D01*
X7472365Y14265483D01*
X7472215Y14162987D01*
X7471878Y14079420D01*
X7471286Y14012956D01*
X7470367Y13961771D01*
X7469051Y13924041D01*
X7467269Y13897940D01*
X7464951Y13881644D01*
X7462026Y13873328D01*
X7458424Y13871168D01*
X7454075Y13873339D01*
X7452645Y13874535D01*
X7415573Y13899685D01*
X7362772Y13925583D01*
X7300770Y13949192D01*
X7274357Y13957461D01*
X7256416Y13962078D01*
X7235355Y13965979D01*
X7209089Y13969248D01*
X7175532Y13971966D01*
X7132599Y13974215D01*
X7078204Y13976077D01*
X7010262Y13977636D01*
X6926688Y13978972D01*
X6825395Y13980169D01*
X6704300Y13981308D01*
X6659600Y13981685D01*
X6534449Y13982702D01*
X6430082Y13983460D01*
X6344707Y13983903D01*
X6276533Y13983970D01*
X6223765Y13983605D01*
X6184614Y13982748D01*
X6157285Y13981341D01*
X6139986Y13979325D01*
X6130926Y13976643D01*
X6128312Y13973236D01*
X6130351Y13969044D01*
X6134667Y13964571D01*
X6147602Y13954216D01*
X6176676Y13932158D01*
X6219759Y13899957D01*
X6274718Y13859174D01*
X6339423Y13811370D01*
X6411742Y13758105D01*
X6489544Y13700940D01*
X6570698Y13641437D01*
X6653072Y13581155D01*
X6734536Y13521655D01*
X6812957Y13464498D01*
X6886204Y13411245D01*
X6952147Y13363457D01*
X7008654Y13322693D01*
X7053593Y13290516D01*
X7084834Y13268485D01*
X7091466Y13263917D01*
X7128369Y13240996D01*
X7176359Y13214188D01*
X7225897Y13188789D01*
X7232577Y13185568D01*
X7280772Y13163890D01*
X7318334Y13151304D01*
X7354160Y13145574D01*
X7396200Y13144456D01*
X7472400Y13145090D01*
X7472400Y11990651D01*
X7378669Y12081815D01*
X7328775Y12128612D01*
X7272295Y12178899D01*
X7218026Y12224944D01*
X7192673Y12245369D01*
X7153128Y12275807D01*
X7099916Y12315862D01*
X7034667Y12364361D01*
X6959011Y12420135D01*
X6874577Y12482011D01*
X6782994Y12548819D01*
X6685892Y12619387D01*
X6584901Y12692545D01*
X6481650Y12767121D01*
X6377768Y12841944D01*
X6274885Y12915843D01*
X6174631Y12987646D01*
X6078636Y13056184D01*
X5988527Y13120284D01*
X5905936Y13178775D01*
X5832492Y13230486D01*
X5769824Y13274247D01*
X5719561Y13308885D01*
X5683334Y13333230D01*
X5662771Y13346111D01*
X5658668Y13347869D01*
X5647342Y13339910D01*
X5620162Y13319115D01*
X5578829Y13286847D01*
X5525044Y13244470D01*
X5460506Y13193347D01*
X5386918Y13134841D01*
X5305978Y13070314D01*
X5219388Y13001131D01*
X5128848Y12928653D01*
X5036060Y12854246D01*
X4961702Y12794517D01*
X4961702Y11783511D01*
X4974659Y11777602D01*
X4996908Y11763272D01*
X4998391Y11762225D01*
X5028544Y11743438D01*
X5065375Y11723791D01*
X5073511Y11719892D01*
X5081940Y11716356D01*
X5092059Y11713230D01*
X5105260Y11710486D01*
X5122938Y11708092D01*
X5146484Y11706019D01*
X5177293Y11704235D01*
X5216757Y11702712D01*
X5266269Y11701419D01*
X5327223Y11700326D01*
X5401011Y11699403D01*
X5489028Y11698619D01*
X5592665Y11697945D01*
X5713316Y11697350D01*
X5852374Y11696805D01*
X6011232Y11696279D01*
X6190089Y11695745D01*
X6375207Y11695206D01*
X6539145Y11694772D01*
X6683303Y11694509D01*
X6809079Y11694484D01*
X6917871Y11694765D01*
X7011077Y11695419D01*
X7090097Y11696514D01*
X7156328Y11698118D01*
X7211170Y11700297D01*
X7256021Y11703119D01*
X7292278Y11706651D01*
X7321341Y11710961D01*
X7344609Y11716117D01*
X7363479Y11722185D01*
X7379351Y11729233D01*
X7393622Y11737329D01*
X7407691Y11746540D01*
X7420158Y11755040D01*
X7446452Y11772176D01*
X7464037Y11782322D01*
X7467257Y11783511D01*
X7468334Y11772604D01*
X7469335Y11741411D01*
X7470235Y11692223D01*
X7471010Y11627333D01*
X7471637Y11549030D01*
X7472091Y11459607D01*
X7472349Y11361356D01*
X7472400Y11292445D01*
X7472180Y11187452D01*
X7471548Y11090610D01*
X7470549Y11004107D01*
X7469227Y10930132D01*
X7467626Y10870874D01*
X7465791Y10828520D01*
X7463765Y10805260D01*
X7462493Y10801378D01*
X7447591Y10809076D01*
X7439560Y10817074D01*
X7422434Y10830246D01*
X7392183Y10847485D01*
X7367622Y10859407D01*
X7308711Y10886045D01*
X6131845Y10889120D01*
X4954978Y10892195D01*
X4954978Y11337853D01*
X4955142Y11435670D01*
X4955611Y11526064D01*
X4956347Y11606630D01*
X4957316Y11674962D01*
X4958480Y11728656D01*
X4959803Y11765305D01*
X4961249Y11782504D01*
X4961702Y11783511D01*
X4961702Y12794517D01*
X4942722Y12779270D01*
X4850537Y12705090D01*
X4761204Y12633069D01*
X4676424Y12564569D01*
X4597898Y12500955D01*
X4527326Y12443588D01*
X4466409Y12393833D01*
X4416847Y12353052D01*
X4396178Y12335888D01*
X4295516Y12249596D01*
X4212259Y12172997D01*
X4144438Y12104183D01*
X4090089Y12041248D01*
X4082722Y12031867D01*
X4052117Y11992356D01*
X4051867Y13124116D01*
X4099844Y13118827D01*
X4157188Y13122130D01*
X4225463Y13143661D01*
X4305212Y13183635D01*
X4377495Y13228943D01*
X4400140Y13245161D01*
X4437696Y13273214D01*
X4488021Y13311430D01*
X4548973Y13358137D01*
X4618411Y13411661D01*
X4694194Y13470331D01*
X4774180Y13532475D01*
X4856228Y13596421D01*
X4938196Y13660495D01*
X5017943Y13723027D01*
X5093327Y13782343D01*
X5162207Y13836771D01*
X5222442Y13884639D01*
X5271889Y13924275D01*
X5308408Y13954006D01*
X5329858Y13972161D01*
X5333156Y13975220D01*
X5325149Y13978079D01*
X5294855Y13980293D01*
X5242556Y13981857D01*
X5168531Y13982767D01*
X5073063Y13983020D01*
X4956434Y13982613D01*
X4836445Y13981704D01*
X4704333Y13980382D01*
X4592594Y13978857D01*
X4499025Y13976881D01*
X4421419Y13974206D01*
X4357574Y13970582D01*
X4305283Y13965761D01*
X4262344Y13959494D01*
X4226551Y13951532D01*
X4195700Y13941627D01*
X4167586Y13929531D01*
X4140005Y13914993D01*
X4114966Y13900311D01*
X4051867Y13862314D01*
X4051867Y14922197D01*
X4051867Y15225034D01*
X4045617Y15225001D01*
X3943544Y15224195D01*
X3854633Y15223170D01*
X3777941Y15221900D01*
X3712527Y15220360D01*
X3657449Y15218524D01*
X3611765Y15216367D01*
X3574534Y15213863D01*
X3544813Y15210987D01*
X3521662Y15207713D01*
X3504139Y15204015D01*
X3491301Y15199869D01*
X3482208Y15195247D01*
X3475918Y15190126D01*
X3471488Y15184478D01*
X3467978Y15178279D01*
X3464445Y15171504D01*
X3460876Y15165508D01*
X3458300Y15160275D01*
X3455972Y15152099D01*
X3453878Y15139886D01*
X3452007Y15122541D01*
X3450347Y15098969D01*
X3448884Y15068077D01*
X3447608Y15028768D01*
X3446504Y14979950D01*
X3445561Y14920527D01*
X3444767Y14849404D01*
X3444109Y14765488D01*
X3443575Y14667683D01*
X3443153Y14554894D01*
X3442829Y14426029D01*
X3442592Y14279991D01*
X3442430Y14115686D01*
X3442330Y13932020D01*
X3442280Y13727897D01*
X3442267Y13516753D01*
X3442267Y11896400D01*
X3539054Y11896400D01*
X3539054Y11896400D01*
G37*
X3539054Y11896400D02*
X3652993Y11885535D01*
X3760616Y11853918D01*
X3859615Y11803015D01*
X3947684Y11734293D01*
X4022516Y11649219D01*
X4080384Y11552232D01*
X4120005Y11445964D01*
X4138573Y11338950D01*
X4137434Y11233300D01*
X4117930Y11131125D01*
X4081406Y11034534D01*
X4029205Y10945638D01*
X3962673Y10866546D01*
X3883152Y10799369D01*
X3791987Y10746217D01*
X3690523Y10709199D01*
X3580102Y10690427D01*
X3530206Y10688489D01*
X3442267Y10688489D01*
X3442267Y10636560D01*
X3445111Y10600253D01*
X3456911Y10573355D01*
X3480649Y10546249D01*
X3519031Y10507867D01*
X5710602Y10507867D01*
X5972739Y10507876D01*
X6213241Y10507908D01*
X6433048Y10507972D01*
X6633101Y10508076D01*
X6814344Y10508227D01*
X6977716Y10508434D01*
X7124160Y10508706D01*
X7254617Y10509050D01*
X7370029Y10509474D01*
X7471338Y10509987D01*
X7559484Y10510597D01*
X7635410Y10511312D01*
X7700057Y10512140D01*
X7754367Y10513089D01*
X7799280Y10514167D01*
X7835740Y10515383D01*
X7864687Y10516745D01*
X7887063Y10518261D01*
X7903809Y10519938D01*
X7915868Y10521786D01*
X7924180Y10523813D01*
X7929687Y10526025D01*
X7931537Y10527108D01*
X7938549Y10531271D01*
X7944996Y10534805D01*
X7950900Y10538635D01*
X7956286Y10543682D01*
X7961178Y10550871D01*
X7965598Y10561123D01*
X7969572Y10575364D01*
X7973121Y10594514D01*
X7976270Y10619499D01*
X7979042Y10651240D01*
X7981461Y10690662D01*
X7983551Y10738686D01*
X7985335Y10796237D01*
X7986837Y10864237D01*
X7988080Y10943610D01*
X7989089Y11035279D01*
X7989885Y11140166D01*
X7990494Y11259196D01*
X7990939Y11393290D01*
X7991243Y11543373D01*
X7991430Y11710367D01*
X7991524Y11895196D01*
X7991548Y12098783D01*
X7991525Y12322050D01*
X7991480Y12565922D01*
X7991437Y12831321D01*
X7991432Y12869704D01*
X7991389Y13136682D01*
X7991318Y13382002D01*
X7991213Y13606583D01*
X7991066Y13811345D01*
X7990869Y13997206D01*
X7990616Y14165088D01*
X7990300Y14315908D01*
X7989913Y14450587D01*
X7989447Y14570044D01*
X7988897Y14675199D01*
X7988253Y14766971D01*
X7987511Y14846279D01*
X7986661Y14914043D01*
X7985697Y14971182D01*
X7984611Y15018617D01*
X7983397Y15057266D01*
X7982047Y15088049D01*
X7980555Y15111885D01*
X7978911Y15129694D01*
X7977111Y15142395D01*
X7975145Y15150908D01*
X7973477Y15155266D01*
X7969906Y15163728D01*
X7967270Y15171497D01*
X7964634Y15178602D01*
X7961062Y15185073D01*
X7955621Y15190939D01*
X7947375Y15196229D01*
X7935390Y15200974D01*
X7918731Y15205202D01*
X7896463Y15208943D01*
X7867652Y15212227D01*
X7831363Y15215083D01*
X7786661Y15217540D01*
X7732611Y15219629D01*
X7668279Y15221378D01*
X7592730Y15222817D01*
X7505030Y15223976D01*
X7404243Y15224883D01*
X7289434Y15225569D01*
X7159670Y15226063D01*
X7014015Y15226395D01*
X6851535Y15226593D01*
X6671295Y15226687D01*
X6472360Y15226708D01*
X6253796Y15226685D01*
X6014668Y15226646D01*
X5754040Y15226622D01*
X5711889Y15226622D01*
X5448992Y15226636D01*
X5207732Y15226661D01*
X4987165Y15226671D01*
X4786352Y15226642D01*
X4604349Y15226548D01*
X4440216Y15226362D01*
X4293011Y15226059D01*
X4161792Y15225614D01*
X4051867Y15225034D01*
X4051867Y14922197D01*
X4109711Y14882407D01*
X4125479Y14871236D01*
X4139441Y14861166D01*
X4152784Y14852138D01*
X4166693Y14844097D01*
X4182356Y14836986D01*
X4200958Y14830747D01*
X4223686Y14825325D01*
X4251727Y14820662D01*
X4286267Y14816701D01*
X4328492Y14813385D01*
X4379589Y14810659D01*
X4440744Y14808464D01*
X4513144Y14806745D01*
X4597975Y14805444D01*
X4696422Y14804505D01*
X4809674Y14803870D01*
X4938916Y14803484D01*
X5085334Y14803288D01*
X5250116Y14803227D01*
X5434447Y14803243D01*
X5639513Y14803280D01*
X5762133Y14803289D01*
X5979082Y14803265D01*
X6174642Y14803231D01*
X6349999Y14803243D01*
X6506341Y14803358D01*
X6644857Y14803630D01*
X6766734Y14804118D01*
X6873160Y14804876D01*
X6965322Y14805962D01*
X7044409Y14807431D01*
X7111608Y14809340D01*
X7168107Y14811744D01*
X7215093Y14814701D01*
X7253755Y14818266D01*
X7285280Y14822495D01*
X7310855Y14827446D01*
X7331670Y14833173D01*
X7348911Y14839733D01*
X7363765Y14847183D01*
X7377422Y14855579D01*
X7391069Y14864976D01*
X7405893Y14875432D01*
X7414783Y14881523D01*
X7472400Y14920296D01*
X7472400Y14388732D01*
X7472365Y14265483D01*
X7472215Y14162987D01*
X7471878Y14079420D01*
X7471286Y14012956D01*
X7470367Y13961771D01*
X7469051Y13924041D01*
X7467269Y13897940D01*
X7464951Y13881644D01*
X7462026Y13873328D01*
X7458424Y13871168D01*
X7454075Y13873339D01*
X7452645Y13874535D01*
X7415573Y13899685D01*
X7362772Y13925583D01*
X7300770Y13949192D01*
X7274357Y13957461D01*
X7256416Y13962078D01*
X7235355Y13965979D01*
X7209089Y13969248D01*
X7175532Y13971966D01*
X7132599Y13974215D01*
X7078204Y13976077D01*
X7010262Y13977636D01*
X6926688Y13978972D01*
X6825395Y13980169D01*
X6704300Y13981308D01*
X6659600Y13981685D01*
X6534449Y13982702D01*
X6430082Y13983460D01*
X6344707Y13983903D01*
X6276533Y13983970D01*
X6223765Y13983605D01*
X6184614Y13982748D01*
X6157285Y13981341D01*
X6139986Y13979325D01*
X6130926Y13976643D01*
X6128312Y13973236D01*
X6130351Y13969044D01*
X6134667Y13964571D01*
X6147602Y13954216D01*
X6176676Y13932158D01*
X6219759Y13899957D01*
X6274718Y13859174D01*
X6339423Y13811370D01*
X6411742Y13758105D01*
X6489544Y13700940D01*
X6570698Y13641437D01*
X6653072Y13581155D01*
X6734536Y13521655D01*
X6812957Y13464498D01*
X6886204Y13411245D01*
X6952147Y13363457D01*
X7008654Y13322693D01*
X7053593Y13290516D01*
X7084834Y13268485D01*
X7091466Y13263917D01*
X7128369Y13240996D01*
X7176359Y13214188D01*
X7225897Y13188789D01*
X7232577Y13185568D01*
X7280772Y13163890D01*
X7318334Y13151304D01*
X7354160Y13145574D01*
X7396200Y13144456D01*
X7472400Y13145090D01*
X7472400Y11990651D01*
X7378669Y12081815D01*
X7328775Y12128612D01*
X7272295Y12178899D01*
X7218026Y12224944D01*
X7192673Y12245369D01*
X7153128Y12275807D01*
X7099916Y12315862D01*
X7034667Y12364361D01*
X6959011Y12420135D01*
X6874577Y12482011D01*
X6782994Y12548819D01*
X6685892Y12619387D01*
X6584901Y12692545D01*
X6481650Y12767121D01*
X6377768Y12841944D01*
X6274885Y12915843D01*
X6174631Y12987646D01*
X6078636Y13056184D01*
X5988527Y13120284D01*
X5905936Y13178775D01*
X5832492Y13230486D01*
X5769824Y13274247D01*
X5719561Y13308885D01*
X5683334Y13333230D01*
X5662771Y13346111D01*
X5658668Y13347869D01*
X5647342Y13339910D01*
X5620162Y13319115D01*
X5578829Y13286847D01*
X5525044Y13244470D01*
X5460506Y13193347D01*
X5386918Y13134841D01*
X5305978Y13070314D01*
X5219388Y13001131D01*
X5128848Y12928653D01*
X5036060Y12854246D01*
X4961702Y12794517D01*
X4961702Y11783511D01*
X4974659Y11777602D01*
X4996908Y11763272D01*
X4998391Y11762225D01*
X5028544Y11743438D01*
X5065375Y11723791D01*
X5073511Y11719892D01*
X5081940Y11716356D01*
X5092059Y11713230D01*
X5105260Y11710486D01*
X5122938Y11708092D01*
X5146484Y11706019D01*
X5177293Y11704235D01*
X5216757Y11702712D01*
X5266269Y11701419D01*
X5327223Y11700326D01*
X5401011Y11699403D01*
X5489028Y11698619D01*
X5592665Y11697945D01*
X5713316Y11697350D01*
X5852374Y11696805D01*
X6011232Y11696279D01*
X6190089Y11695745D01*
X6375207Y11695206D01*
X6539145Y11694772D01*
X6683303Y11694509D01*
X6809079Y11694484D01*
X6917871Y11694765D01*
X7011077Y11695419D01*
X7090097Y11696514D01*
X7156328Y11698118D01*
X7211170Y11700297D01*
X7256021Y11703119D01*
X7292278Y11706651D01*
X7321341Y11710961D01*
X7344609Y11716117D01*
X7363479Y11722185D01*
X7379351Y11729233D01*
X7393622Y11737329D01*
X7407691Y11746540D01*
X7420158Y11755040D01*
X7446452Y11772176D01*
X7464037Y11782322D01*
X7467257Y11783511D01*
X7468334Y11772604D01*
X7469335Y11741411D01*
X7470235Y11692223D01*
X7471010Y11627333D01*
X7471637Y11549030D01*
X7472091Y11459607D01*
X7472349Y11361356D01*
X7472400Y11292445D01*
X7472180Y11187452D01*
X7471548Y11090610D01*
X7470549Y11004107D01*
X7469227Y10930132D01*
X7467626Y10870874D01*
X7465791Y10828520D01*
X7463765Y10805260D01*
X7462493Y10801378D01*
X7447591Y10809076D01*
X7439560Y10817074D01*
X7422434Y10830246D01*
X7392183Y10847485D01*
X7367622Y10859407D01*
X7308711Y10886045D01*
X6131845Y10889120D01*
X4954978Y10892195D01*
X4954978Y11337853D01*
X4955142Y11435670D01*
X4955611Y11526064D01*
X4956347Y11606630D01*
X4957316Y11674962D01*
X4958480Y11728656D01*
X4959803Y11765305D01*
X4961249Y11782504D01*
X4961702Y11783511D01*
X4961702Y12794517D01*
X4942722Y12779270D01*
X4850537Y12705090D01*
X4761204Y12633069D01*
X4676424Y12564569D01*
X4597898Y12500955D01*
X4527326Y12443588D01*
X4466409Y12393833D01*
X4416847Y12353052D01*
X4396178Y12335888D01*
X4295516Y12249596D01*
X4212259Y12172997D01*
X4144438Y12104183D01*
X4090089Y12041248D01*
X4082722Y12031867D01*
X4052117Y11992356D01*
X4051867Y13124116D01*
X4099844Y13118827D01*
X4157188Y13122130D01*
X4225463Y13143661D01*
X4305212Y13183635D01*
X4377495Y13228943D01*
X4400140Y13245161D01*
X4437696Y13273214D01*
X4488021Y13311430D01*
X4548973Y13358137D01*
X4618411Y13411661D01*
X4694194Y13470331D01*
X4774180Y13532475D01*
X4856228Y13596421D01*
X4938196Y13660495D01*
X5017943Y13723027D01*
X5093327Y13782343D01*
X5162207Y13836771D01*
X5222442Y13884639D01*
X5271889Y13924275D01*
X5308408Y13954006D01*
X5329858Y13972161D01*
X5333156Y13975220D01*
X5325149Y13978079D01*
X5294855Y13980293D01*
X5242556Y13981857D01*
X5168531Y13982767D01*
X5073063Y13983020D01*
X4956434Y13982613D01*
X4836445Y13981704D01*
X4704333Y13980382D01*
X4592594Y13978857D01*
X4499025Y13976881D01*
X4421419Y13974206D01*
X4357574Y13970582D01*
X4305283Y13965761D01*
X4262344Y13959494D01*
X4226551Y13951532D01*
X4195700Y13941627D01*
X4167586Y13929531D01*
X4140005Y13914993D01*
X4114966Y13900311D01*
X4051867Y13862314D01*
X4051867Y14922197D01*
X4051867Y15225034D01*
X4045617Y15225001D01*
X3943544Y15224195D01*
X3854633Y15223170D01*
X3777941Y15221900D01*
X3712527Y15220360D01*
X3657449Y15218524D01*
X3611765Y15216367D01*
X3574534Y15213863D01*
X3544813Y15210987D01*
X3521662Y15207713D01*
X3504139Y15204015D01*
X3491301Y15199869D01*
X3482208Y15195247D01*
X3475918Y15190126D01*
X3471488Y15184478D01*
X3467978Y15178279D01*
X3464445Y15171504D01*
X3460876Y15165508D01*
X3458300Y15160275D01*
X3455972Y15152099D01*
X3453878Y15139886D01*
X3452007Y15122541D01*
X3450347Y15098969D01*
X3448884Y15068077D01*
X3447608Y15028768D01*
X3446504Y14979950D01*
X3445561Y14920527D01*
X3444767Y14849404D01*
X3444109Y14765488D01*
X3443575Y14667683D01*
X3443153Y14554894D01*
X3442829Y14426029D01*
X3442592Y14279991D01*
X3442430Y14115686D01*
X3442330Y13932020D01*
X3442280Y13727897D01*
X3442267Y13516753D01*
X3442267Y11896400D01*
X3539054Y11896400D01*
G36*
X3076571Y11223043D02*
G01*
X3100809Y11126768D01*
X3143641Y11040184D01*
X3203419Y10965373D01*
X3278494Y10904418D01*
X3367220Y10859399D01*
X3463530Y10833136D01*
X3560795Y10827286D01*
X3654654Y10842140D01*
X3742511Y10875840D01*
X3821770Y10926528D01*
X3889836Y10992345D01*
X3944112Y11071434D01*
X3982002Y11161934D01*
X3994426Y11213200D01*
X4001947Y11257698D01*
X4004919Y11291999D01*
X4003094Y11324960D01*
X3996225Y11365434D01*
X3989250Y11398531D01*
X3957741Y11491947D01*
X3906617Y11575619D01*
X3837429Y11647665D01*
X3751728Y11706200D01*
X3724489Y11720148D01*
X3688122Y11736586D01*
X3657582Y11746894D01*
X3625450Y11752460D01*
X3584307Y11754669D01*
X3538222Y11754948D01*
X3453865Y11750861D01*
X3384586Y11737446D01*
X3323961Y11712256D01*
X3265567Y11672846D01*
X3221302Y11634298D01*
X3155484Y11562406D01*
X3110053Y11487313D01*
X3082850Y11404562D01*
X3072576Y11326928D01*
X3076571Y11223043D01*
X3076571Y11223043D01*
G37*
X3076571Y11223043D02*
X3100809Y11126768D01*
X3143641Y11040184D01*
X3203419Y10965373D01*
X3278494Y10904418D01*
X3367220Y10859399D01*
X3463530Y10833136D01*
X3560795Y10827286D01*
X3654654Y10842140D01*
X3742511Y10875840D01*
X3821770Y10926528D01*
X3889836Y10992345D01*
X3944112Y11071434D01*
X3982002Y11161934D01*
X3994426Y11213200D01*
X4001947Y11257698D01*
X4004919Y11291999D01*
X4003094Y11324960D01*
X3996225Y11365434D01*
X3989250Y11398531D01*
X3957741Y11491947D01*
X3906617Y11575619D01*
X3837429Y11647665D01*
X3751728Y11706200D01*
X3724489Y11720148D01*
X3688122Y11736586D01*
X3657582Y11746894D01*
X3625450Y11752460D01*
X3584307Y11754669D01*
X3538222Y11754948D01*
X3453865Y11750861D01*
X3384586Y11737446D01*
X3323961Y11712256D01*
X3265567Y11672846D01*
X3221302Y11634298D01*
X3155484Y11562406D01*
X3110053Y11487313D01*
X3082850Y11404562D01*
X3072576Y11326928D01*
X3076571Y11223043D01*
D12*
G36*
X13795360Y13813840D02*
G01*
X13780120Y13788440D01*
X13744560Y13730020D01*
X13688680Y13646200D01*
X13622640Y13547140D01*
X13556600Y13448080D01*
X13503260Y13366800D01*
X13465160Y13310920D01*
X13452460Y13285520D01*
X13457540Y13272820D01*
X13480400Y13227100D01*
X13515960Y13158520D01*
X13536280Y13117880D01*
X13561680Y13056920D01*
X13569300Y13023900D01*
X13559140Y13018820D01*
X13510880Y12995960D01*
X13429600Y12960400D01*
X13320380Y12914680D01*
X13193380Y12858800D01*
X13058760Y12802920D01*
X12919060Y12744500D01*
X12784440Y12688620D01*
X12665060Y12640360D01*
X12568540Y12599720D01*
X12499960Y12574320D01*
X12472020Y12564160D01*
X12464400Y12566700D01*
X12433920Y12599720D01*
X12393280Y12653060D01*
X12296760Y12772440D01*
X12151980Y12889280D01*
X11986880Y12960400D01*
X11801460Y12983260D01*
X11631280Y12962940D01*
X11468720Y12896900D01*
X11321400Y12782600D01*
X11212180Y12642900D01*
X11143600Y12480340D01*
X11120740Y12300000D01*
X11141060Y12127280D01*
X11207100Y11959640D01*
X11318860Y11812320D01*
X11389980Y11748820D01*
X11539840Y11662460D01*
X11697320Y11614200D01*
X11737960Y11609120D01*
X11913220Y11616740D01*
X12083400Y11667540D01*
X12233260Y11761520D01*
X12357720Y11891060D01*
X12367880Y11906300D01*
X12413600Y11964720D01*
X12444080Y12005360D01*
X12469480Y12035840D01*
X13007960Y11812320D01*
X13091780Y11776760D01*
X13239100Y11715800D01*
X13366100Y11662460D01*
X13467700Y11619280D01*
X13533740Y11588800D01*
X13561680Y11576100D01*
X13564220Y11576100D01*
X13566760Y11555780D01*
X13551520Y11515140D01*
X13515960Y11438940D01*
X13490560Y11390680D01*
X13462620Y11332260D01*
X13452460Y11306860D01*
X13465160Y11284000D01*
X13500720Y11230660D01*
X13554060Y11149380D01*
X13617560Y11052860D01*
X13681060Y10961420D01*
X13736940Y10877600D01*
X13775040Y10816640D01*
X13792820Y10786160D01*
X13792820Y10781080D01*
X13777580Y10755680D01*
X13736940Y10707420D01*
X13668360Y10633760D01*
X13564220Y10529620D01*
X13548980Y10514380D01*
X13462620Y10428020D01*
X13388960Y10359440D01*
X13338160Y10313720D01*
X13315300Y10295940D01*
X13284820Y10311180D01*
X13223860Y10349280D01*
X13137500Y10405160D01*
X13038440Y10473740D01*
X12779360Y10651540D01*
X12535520Y10555020D01*
X12459320Y10524540D01*
X12370420Y10486440D01*
X12304380Y10458500D01*
X12276440Y10443260D01*
X12266280Y10417860D01*
X12251040Y10349280D01*
X12230720Y10252760D01*
X12210400Y10138460D01*
X12190080Y10026700D01*
X12169760Y9927640D01*
X12157060Y9856520D01*
X12149440Y9823500D01*
X12144360Y9815880D01*
X12129120Y9808260D01*
X12096100Y9805720D01*
X12035140Y9803180D01*
X11941160Y9800640D01*
X11801460Y9800640D01*
X11786220Y9800640D01*
X11656680Y9803180D01*
X11550000Y9805720D01*
X11483960Y9808260D01*
X11456020Y9813340D01*
X11448400Y9843820D01*
X11433160Y9914940D01*
X11415380Y10014000D01*
X11392520Y10133380D01*
X11389980Y10141000D01*
X11367120Y10257840D01*
X11346800Y10356900D01*
X11331560Y10428020D01*
X11321400Y10455960D01*
X11313780Y10463580D01*
X11268060Y10486440D01*
X11194400Y10519460D01*
X11105500Y10560100D01*
X11011520Y10598200D01*
X10927700Y10631220D01*
X10866740Y10654080D01*
X10838800Y10661700D01*
X10836260Y10659160D01*
X10808320Y10641380D01*
X10747360Y10600740D01*
X10663540Y10544860D01*
X10561940Y10476280D01*
X10554320Y10471200D01*
X10455260Y10402620D01*
X10368900Y10346740D01*
X10310480Y10311180D01*
X10282540Y10295940D01*
X10280000Y10295940D01*
X10249520Y10318800D01*
X10193640Y10369600D01*
X10117440Y10443260D01*
X10028540Y10529620D01*
X10003140Y10557560D01*
X9906620Y10656620D01*
X9845660Y10722660D01*
X9812640Y10765840D01*
X9805020Y10786160D01*
X9822800Y10816640D01*
X9863440Y10880140D01*
X9921860Y10963960D01*
X9990440Y11065560D01*
X9995520Y11073180D01*
X10064100Y11172240D01*
X10119980Y11256060D01*
X10160620Y11314480D01*
X10175860Y11342420D01*
X10175860Y11344960D01*
X10163160Y11385600D01*
X10137760Y11456720D01*
X10104740Y11545620D01*
X10066640Y11637060D01*
X10031080Y11720880D01*
X10003140Y11784380D01*
X9985360Y11814860D01*
X9949800Y11825020D01*
X9873600Y11842800D01*
X9772000Y11863120D01*
X9650080Y11888520D01*
X9629760Y11891060D01*
X9510380Y11913920D01*
X9411320Y11931700D01*
X9342740Y11946940D01*
X9314800Y11954560D01*
X9312260Y11969800D01*
X9307180Y12028220D01*
X9304640Y12117120D01*
X9304640Y12226340D01*
X9304640Y12338100D01*
X9307180Y12447320D01*
X9309720Y12541300D01*
X9314800Y12609880D01*
X9319880Y12637820D01*
X9322420Y12637820D01*
X9360520Y12647980D01*
X9434180Y12665760D01*
X9538320Y12686080D01*
X9660240Y12708940D01*
X9683100Y12714020D01*
X9799940Y12736880D01*
X9899000Y12757200D01*
X9965040Y12769900D01*
X9992980Y12777520D01*
X9998060Y12790220D01*
X10018380Y12838480D01*
X10051400Y12917220D01*
X10092040Y13016280D01*
X10183480Y13244880D01*
X9992980Y13526820D01*
X9975200Y13552220D01*
X9906620Y13653820D01*
X9850740Y13735100D01*
X9812640Y13793520D01*
X9799940Y13816380D01*
X9799940Y13818920D01*
X9825340Y13846860D01*
X9878680Y13902740D01*
X9952340Y13978940D01*
X10038700Y14067840D01*
X10104740Y14131340D01*
X10183480Y14210080D01*
X10236820Y14258340D01*
X10269840Y14286280D01*
X10290160Y14293900D01*
X10305400Y14291360D01*
X10333340Y14273580D01*
X10394300Y14232940D01*
X10480660Y14174520D01*
X10579720Y14105940D01*
X10663540Y14050060D01*
X10757520Y13989100D01*
X10823560Y13951000D01*
X10856580Y13935760D01*
X10869280Y13940840D01*
X10925160Y13958620D01*
X11008980Y13994180D01*
X11108040Y14034820D01*
X11329020Y14133880D01*
X11356960Y14278660D01*
X11374740Y14367560D01*
X11397600Y14489480D01*
X11420460Y14608860D01*
X11456020Y14791740D01*
X12131660Y14799360D01*
X12144360Y14771420D01*
X12151980Y14743480D01*
X12167220Y14674900D01*
X12187540Y14578380D01*
X12207860Y14461540D01*
X12225640Y14365020D01*
X12245960Y14265960D01*
X12258660Y14194840D01*
X12266280Y14164360D01*
X12276440Y14154200D01*
X12324700Y14131340D01*
X12400900Y14095780D01*
X12492340Y14055140D01*
X12586320Y14017040D01*
X12675220Y13981480D01*
X12741260Y13958620D01*
X12774280Y13948460D01*
X12802220Y13961160D01*
X12860640Y13999260D01*
X12941920Y14052600D01*
X13040980Y14121180D01*
X13137500Y14187220D01*
X13221320Y14245640D01*
X13282280Y14283740D01*
X13310220Y14301520D01*
X13328000Y14291360D01*
X13376260Y14253260D01*
X13452460Y14179600D01*
X13561680Y14067840D01*
X13579460Y14050060D01*
X13663280Y13963700D01*
X13731860Y13890040D01*
X13777580Y13836700D01*
X13795360Y13813840D01*
X13795360Y13813840D01*
G37*
X13795360Y13813840D02*
X13780120Y13788440D01*
X13744560Y13730020D01*
X13688680Y13646200D01*
X13622640Y13547140D01*
X13556600Y13448080D01*
X13503260Y13366800D01*
X13465160Y13310920D01*
X13452460Y13285520D01*
X13457540Y13272820D01*
X13480400Y13227100D01*
X13515960Y13158520D01*
X13536280Y13117880D01*
X13561680Y13056920D01*
X13569300Y13023900D01*
X13559140Y13018820D01*
X13510880Y12995960D01*
X13429600Y12960400D01*
X13320380Y12914680D01*
X13193380Y12858800D01*
X13058760Y12802920D01*
X12919060Y12744500D01*
X12784440Y12688620D01*
X12665060Y12640360D01*
X12568540Y12599720D01*
X12499960Y12574320D01*
X12472020Y12564160D01*
X12464400Y12566700D01*
X12433920Y12599720D01*
X12393280Y12653060D01*
X12296760Y12772440D01*
X12151980Y12889280D01*
X11986880Y12960400D01*
X11801460Y12983260D01*
X11631280Y12962940D01*
X11468720Y12896900D01*
X11321400Y12782600D01*
X11212180Y12642900D01*
X11143600Y12480340D01*
X11120740Y12300000D01*
X11141060Y12127280D01*
X11207100Y11959640D01*
X11318860Y11812320D01*
X11389980Y11748820D01*
X11539840Y11662460D01*
X11697320Y11614200D01*
X11737960Y11609120D01*
X11913220Y11616740D01*
X12083400Y11667540D01*
X12233260Y11761520D01*
X12357720Y11891060D01*
X12367880Y11906300D01*
X12413600Y11964720D01*
X12444080Y12005360D01*
X12469480Y12035840D01*
X13007960Y11812320D01*
X13091780Y11776760D01*
X13239100Y11715800D01*
X13366100Y11662460D01*
X13467700Y11619280D01*
X13533740Y11588800D01*
X13561680Y11576100D01*
X13564220Y11576100D01*
X13566760Y11555780D01*
X13551520Y11515140D01*
X13515960Y11438940D01*
X13490560Y11390680D01*
X13462620Y11332260D01*
X13452460Y11306860D01*
X13465160Y11284000D01*
X13500720Y11230660D01*
X13554060Y11149380D01*
X13617560Y11052860D01*
X13681060Y10961420D01*
X13736940Y10877600D01*
X13775040Y10816640D01*
X13792820Y10786160D01*
X13792820Y10781080D01*
X13777580Y10755680D01*
X13736940Y10707420D01*
X13668360Y10633760D01*
X13564220Y10529620D01*
X13548980Y10514380D01*
X13462620Y10428020D01*
X13388960Y10359440D01*
X13338160Y10313720D01*
X13315300Y10295940D01*
X13284820Y10311180D01*
X13223860Y10349280D01*
X13137500Y10405160D01*
X13038440Y10473740D01*
X12779360Y10651540D01*
X12535520Y10555020D01*
X12459320Y10524540D01*
X12370420Y10486440D01*
X12304380Y10458500D01*
X12276440Y10443260D01*
X12266280Y10417860D01*
X12251040Y10349280D01*
X12230720Y10252760D01*
X12210400Y10138460D01*
X12190080Y10026700D01*
X12169760Y9927640D01*
X12157060Y9856520D01*
X12149440Y9823500D01*
X12144360Y9815880D01*
X12129120Y9808260D01*
X12096100Y9805720D01*
X12035140Y9803180D01*
X11941160Y9800640D01*
X11801460Y9800640D01*
X11786220Y9800640D01*
X11656680Y9803180D01*
X11550000Y9805720D01*
X11483960Y9808260D01*
X11456020Y9813340D01*
X11448400Y9843820D01*
X11433160Y9914940D01*
X11415380Y10014000D01*
X11392520Y10133380D01*
X11389980Y10141000D01*
X11367120Y10257840D01*
X11346800Y10356900D01*
X11331560Y10428020D01*
X11321400Y10455960D01*
X11313780Y10463580D01*
X11268060Y10486440D01*
X11194400Y10519460D01*
X11105500Y10560100D01*
X11011520Y10598200D01*
X10927700Y10631220D01*
X10866740Y10654080D01*
X10838800Y10661700D01*
X10836260Y10659160D01*
X10808320Y10641380D01*
X10747360Y10600740D01*
X10663540Y10544860D01*
X10561940Y10476280D01*
X10554320Y10471200D01*
X10455260Y10402620D01*
X10368900Y10346740D01*
X10310480Y10311180D01*
X10282540Y10295940D01*
X10280000Y10295940D01*
X10249520Y10318800D01*
X10193640Y10369600D01*
X10117440Y10443260D01*
X10028540Y10529620D01*
X10003140Y10557560D01*
X9906620Y10656620D01*
X9845660Y10722660D01*
X9812640Y10765840D01*
X9805020Y10786160D01*
X9822800Y10816640D01*
X9863440Y10880140D01*
X9921860Y10963960D01*
X9990440Y11065560D01*
X9995520Y11073180D01*
X10064100Y11172240D01*
X10119980Y11256060D01*
X10160620Y11314480D01*
X10175860Y11342420D01*
X10175860Y11344960D01*
X10163160Y11385600D01*
X10137760Y11456720D01*
X10104740Y11545620D01*
X10066640Y11637060D01*
X10031080Y11720880D01*
X10003140Y11784380D01*
X9985360Y11814860D01*
X9949800Y11825020D01*
X9873600Y11842800D01*
X9772000Y11863120D01*
X9650080Y11888520D01*
X9629760Y11891060D01*
X9510380Y11913920D01*
X9411320Y11931700D01*
X9342740Y11946940D01*
X9314800Y11954560D01*
X9312260Y11969800D01*
X9307180Y12028220D01*
X9304640Y12117120D01*
X9304640Y12226340D01*
X9304640Y12338100D01*
X9307180Y12447320D01*
X9309720Y12541300D01*
X9314800Y12609880D01*
X9319880Y12637820D01*
X9322420Y12637820D01*
X9360520Y12647980D01*
X9434180Y12665760D01*
X9538320Y12686080D01*
X9660240Y12708940D01*
X9683100Y12714020D01*
X9799940Y12736880D01*
X9899000Y12757200D01*
X9965040Y12769900D01*
X9992980Y12777520D01*
X9998060Y12790220D01*
X10018380Y12838480D01*
X10051400Y12917220D01*
X10092040Y13016280D01*
X10183480Y13244880D01*
X9992980Y13526820D01*
X9975200Y13552220D01*
X9906620Y13653820D01*
X9850740Y13735100D01*
X9812640Y13793520D01*
X9799940Y13816380D01*
X9799940Y13818920D01*
X9825340Y13846860D01*
X9878680Y13902740D01*
X9952340Y13978940D01*
X10038700Y14067840D01*
X10104740Y14131340D01*
X10183480Y14210080D01*
X10236820Y14258340D01*
X10269840Y14286280D01*
X10290160Y14293900D01*
X10305400Y14291360D01*
X10333340Y14273580D01*
X10394300Y14232940D01*
X10480660Y14174520D01*
X10579720Y14105940D01*
X10663540Y14050060D01*
X10757520Y13989100D01*
X10823560Y13951000D01*
X10856580Y13935760D01*
X10869280Y13940840D01*
X10925160Y13958620D01*
X11008980Y13994180D01*
X11108040Y14034820D01*
X11329020Y14133880D01*
X11356960Y14278660D01*
X11374740Y14367560D01*
X11397600Y14489480D01*
X11420460Y14608860D01*
X11456020Y14791740D01*
X12131660Y14799360D01*
X12144360Y14771420D01*
X12151980Y14743480D01*
X12167220Y14674900D01*
X12187540Y14578380D01*
X12207860Y14461540D01*
X12225640Y14365020D01*
X12245960Y14265960D01*
X12258660Y14194840D01*
X12266280Y14164360D01*
X12276440Y14154200D01*
X12324700Y14131340D01*
X12400900Y14095780D01*
X12492340Y14055140D01*
X12586320Y14017040D01*
X12675220Y13981480D01*
X12741260Y13958620D01*
X12774280Y13948460D01*
X12802220Y13961160D01*
X12860640Y13999260D01*
X12941920Y14052600D01*
X13040980Y14121180D01*
X13137500Y14187220D01*
X13221320Y14245640D01*
X13282280Y14283740D01*
X13310220Y14301520D01*
X13328000Y14291360D01*
X13376260Y14253260D01*
X13452460Y14179600D01*
X13561680Y14067840D01*
X13579460Y14050060D01*
X13663280Y13963700D01*
X13731860Y13890040D01*
X13777580Y13836700D01*
X13795360Y13813840D01*
D13*
X55550000Y68450000D03*
X58450000Y68450000D03*
X58450000Y65550000D03*
X55550000Y65550000D03*
X57000000Y64950000D03*
X57000000Y69050000D03*
X54950000Y67000000D03*
X59050000Y67000000D03*
D14*
X57000000Y67000000D03*
D13*
X1550000Y68450000D03*
X4450000Y68450000D03*
X4450000Y65550000D03*
X1550000Y65550000D03*
X3000000Y64950000D03*
X3000000Y69050000D03*
X950000Y67000000D03*
X5050000Y67000000D03*
D14*
X3000000Y67000000D03*
D13*
X55550000Y4450000D03*
X58450000Y4450000D03*
X58450000Y1550000D03*
X55550000Y1550000D03*
X57000000Y950000D03*
X57000000Y5050000D03*
X54950000Y3000000D03*
X59050000Y3000000D03*
D14*
X57000000Y3000000D03*
D13*
X25550000Y4450000D03*
X28450000Y4450000D03*
X28450000Y1550000D03*
X25550000Y1550000D03*
X27000000Y950000D03*
X27000000Y5050000D03*
X24950000Y3000000D03*
X29050000Y3000000D03*
D14*
X27000000Y3000000D03*
D15*
X53750000Y46480000D03*
D16*
X53750000Y47750000D03*
X53750000Y49020000D03*
D15*
X25800000Y67000000D03*
D16*
X25800000Y65730000D03*
X25800000Y64460000D03*
D17*
X26500000Y42500000D03*
X29250000Y42500000D03*
X19000000Y37500000D03*
X19000000Y34750000D03*
X19000000Y32000000D03*
D18*
X3000000Y61540000D03*
X3000000Y59000000D03*
D19*
X3000000Y56460000D03*
D20*
X4000000Y40200000D03*
X4000000Y32200000D03*
D21*
X9500000Y49400000D03*
X2500000Y49400000D03*
D22*
X57290000Y25630000D03*
X54750000Y25630000D03*
X57290000Y28170000D03*
X54750000Y28170000D03*
X57290000Y30710000D03*
X54750000Y30710000D03*
X57290000Y33250000D03*
D23*
X54750000Y33250000D03*
D24*
X8330000Y63540000D03*
X10870000Y63540000D03*
D25*
X10870000Y61000000D03*
D26*
X8330000Y61000000D03*
D18*
X57000000Y44960000D03*
X57000000Y47500000D03*
D19*
X57000000Y50040000D03*
X45500000Y2500000D03*
D18*
X45500000Y5040000D03*
X45500000Y7580000D03*
X45500000Y10120000D03*
M02*
