G04 #@! TF.GenerationSoftware,KiCad,Pcbnew,5.1.2-f72e74a~84~ubuntu18.04.1*
G04 #@! TF.CreationDate,2019-06-22T18:56:12+05:30*
G04 #@! TF.ProjectId,mc60,6d633630-2e6b-4696-9361-645f70636258,rev?*
G04 #@! TF.SameCoordinates,PX41cdb40PY7bfa480*
G04 #@! TF.FileFunction,Paste,Top*
G04 #@! TF.FilePolarity,Positive*
%FSLAX46Y46*%
G04 Gerber Fmt 4.6, Leading zero omitted, Abs format (unit mm)*
G04 Created by KiCad (PCBNEW 5.1.2-f72e74a~84~ubuntu18.04.1) date 2019-06-22 18:56:12*
%MOMM*%
%LPD*%
G04 APERTURE LIST*
%ADD10R,1.200000X1.100000*%
%ADD11R,0.500000X0.700000*%
%ADD12R,0.500000X0.600000*%
%ADD13R,0.400000X0.600000*%
%ADD14R,0.600000X0.400000*%
%ADD15R,4.000000X2.500000*%
%ADD16R,2.500000X4.000000*%
%ADD17R,1.250000X1.000000*%
%ADD18R,2.500000X0.700000*%
%ADD19R,0.700000X2.500000*%
%ADD20R,1.100000X1.100000*%
%ADD21R,3.800000X1.150000*%
%ADD22R,0.750000X1.200000*%
%ADD23R,0.600000X0.500000*%
%ADD24C,0.508000*%
%ADD25C,0.700000*%
%ADD26R,1.000000X1.250000*%
%ADD27R,1.600000X0.700000*%
%ADD28R,1.600000X1.200000*%
%ADD29R,2.200000X1.200000*%
%ADD30R,1.400000X1.600000*%
%ADD31R,1.150000X0.650000*%
%ADD32R,1.300000X0.450000*%
%ADD33R,1.700000X1.400000*%
%ADD34R,0.800000X0.540000*%
%ADD35R,1.000000X2.300000*%
%ADD36R,0.300000X0.630000*%
%ADD37R,0.800000X0.800000*%
%ADD38R,0.450000X1.300000*%
%ADD39R,0.630000X0.300000*%
%ADD40R,0.360000X0.250000*%
%ADD41R,1.400000X2.000000*%
%ADD42R,0.700000X0.500000*%
%ADD43R,0.500000X0.900000*%
%ADD44R,0.900000X0.500000*%
%ADD45R,1.600000X0.350000*%
%ADD46R,0.760000X2.200000*%
%ADD47R,0.600000X1.100000*%
%ADD48R,1.100000X0.600000*%
%ADD49C,1.000000*%
%ADD50R,1.000000X1.000000*%
%ADD51R,2.200000X1.050000*%
G04 APERTURE END LIST*
D10*
X5300000Y23500000D03*
X1900000Y23500000D03*
X5300000Y25000000D03*
X1900000Y25000000D03*
D11*
X9000000Y25250000D03*
X9650000Y23250000D03*
X8350000Y23250000D03*
D12*
X7000000Y23700000D03*
X7000000Y24800000D03*
D13*
X43200000Y36000000D03*
X44100000Y36000000D03*
X18950000Y23000000D03*
X18050000Y23000000D03*
X49250000Y18270000D03*
X50150000Y18270000D03*
X24550000Y18500000D03*
X25450000Y18500000D03*
X32050000Y18000000D03*
X32950000Y18000000D03*
X32500000Y16500000D03*
X33400000Y16500000D03*
D14*
X14400000Y45950000D03*
X14400000Y46850000D03*
D15*
X40050000Y5000000D03*
X33950000Y5000000D03*
X24950000Y51200000D03*
X31050000Y51200000D03*
D16*
X47000000Y46000000D03*
X47000000Y54000000D03*
X18400000Y67000000D03*
X18400000Y59000000D03*
X47000000Y67000000D03*
X47000000Y59000000D03*
D17*
X43050000Y40850000D03*
X43050000Y42850000D03*
D18*
X23100000Y37000000D03*
X23100000Y36000000D03*
X23100000Y35000000D03*
X23100000Y34000000D03*
X23100000Y33000000D03*
X23100000Y32000000D03*
X23100000Y31000000D03*
X23100000Y30000000D03*
X23100000Y29000000D03*
X23100000Y28000000D03*
X23100000Y27000000D03*
X23100000Y26000000D03*
X23100000Y25000000D03*
X23100000Y24000000D03*
X23100000Y23000000D03*
D19*
X25500000Y20750000D03*
X26500000Y20750000D03*
X27500000Y20750000D03*
X28500000Y20750000D03*
X29500000Y20750000D03*
X30500000Y20750000D03*
X31500000Y20750000D03*
X32500000Y20750000D03*
X33500000Y20750000D03*
X34500000Y20750000D03*
X35500000Y20750000D03*
X36500000Y20750000D03*
D18*
X38900000Y23000000D03*
X38900000Y24000000D03*
X38900000Y25000000D03*
X38900000Y26000000D03*
X38900000Y27000000D03*
X38900000Y28000000D03*
X38900000Y29000000D03*
X38900000Y30000000D03*
X38900000Y31000000D03*
X38900000Y32000000D03*
X38900000Y33000000D03*
X38900000Y34000000D03*
X38900000Y35000000D03*
X38900000Y36000000D03*
X38900000Y37000000D03*
D19*
X36500000Y39250000D03*
X35500000Y39250000D03*
X34500000Y39250000D03*
X33500000Y39250000D03*
X32500000Y39250000D03*
X31500000Y39250000D03*
X30500000Y39250000D03*
X29500000Y39250000D03*
X28500000Y39250000D03*
X27500000Y39250000D03*
X26500000Y39250000D03*
X25500000Y39250000D03*
D20*
X34600000Y32700000D03*
X34600000Y30900000D03*
X34600000Y27300000D03*
X34600000Y29100000D03*
X32800000Y25500000D03*
X31000000Y25500000D03*
X29200000Y25500000D03*
X27400000Y27300000D03*
X27400000Y29100000D03*
X27400000Y30900000D03*
X27400000Y32700000D03*
X29200000Y34500000D03*
X31000000Y34500000D03*
X32800000Y34500000D03*
D21*
X57600000Y16700000D03*
X57600000Y21700000D03*
D22*
X56075000Y18275000D03*
D23*
X19650000Y14650000D03*
X18550000Y14650000D03*
D24*
G36*
X48261861Y17119663D02*
G01*
X48268656Y17118655D01*
X48275320Y17116986D01*
X48281788Y17114672D01*
X48287998Y17111734D01*
X48293890Y17108203D01*
X48299408Y17104111D01*
X48304497Y17099497D01*
X48309111Y17094408D01*
X48313203Y17088890D01*
X48316734Y17082998D01*
X48319672Y17076788D01*
X48321986Y17070320D01*
X48323655Y17063656D01*
X48324663Y17056861D01*
X48325000Y17050000D01*
X48325000Y16490000D01*
X48324663Y16483139D01*
X48323655Y16476344D01*
X48321986Y16469680D01*
X48319672Y16463212D01*
X48316734Y16457002D01*
X48313203Y16451110D01*
X48309111Y16445592D01*
X48304497Y16440503D01*
X48299408Y16435889D01*
X48293890Y16431797D01*
X48287998Y16428266D01*
X48281788Y16425328D01*
X48275320Y16423014D01*
X48268656Y16421345D01*
X48261861Y16420337D01*
X48255000Y16420000D01*
X47645000Y16420000D01*
X47638139Y16420337D01*
X47631344Y16421345D01*
X47624680Y16423014D01*
X47618212Y16425328D01*
X47612002Y16428266D01*
X47606110Y16431797D01*
X47600592Y16435889D01*
X47595503Y16440503D01*
X47590889Y16445592D01*
X47586797Y16451110D01*
X47583266Y16457002D01*
X47580328Y16463212D01*
X47578014Y16469680D01*
X47576345Y16476344D01*
X47575337Y16483139D01*
X47575000Y16490000D01*
X47575000Y17050000D01*
X47575337Y17056861D01*
X47576345Y17063656D01*
X47578014Y17070320D01*
X47580328Y17076788D01*
X47583266Y17082998D01*
X47586797Y17088890D01*
X47590889Y17094408D01*
X47595503Y17099497D01*
X47600592Y17104111D01*
X47606110Y17108203D01*
X47612002Y17111734D01*
X47618212Y17114672D01*
X47624680Y17116986D01*
X47631344Y17118655D01*
X47638139Y17119663D01*
X47645000Y17120000D01*
X48255000Y17120000D01*
X48261861Y17119663D01*
X48261861Y17119663D01*
G37*
D25*
X47950000Y16770000D03*
D24*
G36*
X48261861Y18619663D02*
G01*
X48268656Y18618655D01*
X48275320Y18616986D01*
X48281788Y18614672D01*
X48287998Y18611734D01*
X48293890Y18608203D01*
X48299408Y18604111D01*
X48304497Y18599497D01*
X48309111Y18594408D01*
X48313203Y18588890D01*
X48316734Y18582998D01*
X48319672Y18576788D01*
X48321986Y18570320D01*
X48323655Y18563656D01*
X48324663Y18556861D01*
X48325000Y18550000D01*
X48325000Y17990000D01*
X48324663Y17983139D01*
X48323655Y17976344D01*
X48321986Y17969680D01*
X48319672Y17963212D01*
X48316734Y17957002D01*
X48313203Y17951110D01*
X48309111Y17945592D01*
X48304497Y17940503D01*
X48299408Y17935889D01*
X48293890Y17931797D01*
X48287998Y17928266D01*
X48281788Y17925328D01*
X48275320Y17923014D01*
X48268656Y17921345D01*
X48261861Y17920337D01*
X48255000Y17920000D01*
X47645000Y17920000D01*
X47638139Y17920337D01*
X47631344Y17921345D01*
X47624680Y17923014D01*
X47618212Y17925328D01*
X47612002Y17928266D01*
X47606110Y17931797D01*
X47600592Y17935889D01*
X47595503Y17940503D01*
X47590889Y17945592D01*
X47586797Y17951110D01*
X47583266Y17957002D01*
X47580328Y17963212D01*
X47578014Y17969680D01*
X47576345Y17976344D01*
X47575337Y17983139D01*
X47575000Y17990000D01*
X47575000Y18550000D01*
X47575337Y18556861D01*
X47576345Y18563656D01*
X47578014Y18570320D01*
X47580328Y18576788D01*
X47583266Y18582998D01*
X47586797Y18588890D01*
X47590889Y18594408D01*
X47595503Y18599497D01*
X47600592Y18604111D01*
X47606110Y18608203D01*
X47612002Y18611734D01*
X47618212Y18614672D01*
X47624680Y18616986D01*
X47631344Y18618655D01*
X47638139Y18619663D01*
X47645000Y18620000D01*
X48255000Y18620000D01*
X48261861Y18619663D01*
X48261861Y18619663D01*
G37*
D25*
X47950000Y18270000D03*
D24*
G36*
X42311861Y37849663D02*
G01*
X42318656Y37848655D01*
X42325320Y37846986D01*
X42331788Y37844672D01*
X42337998Y37841734D01*
X42343890Y37838203D01*
X42349408Y37834111D01*
X42354497Y37829497D01*
X42359111Y37824408D01*
X42363203Y37818890D01*
X42366734Y37812998D01*
X42369672Y37806788D01*
X42371986Y37800320D01*
X42373655Y37793656D01*
X42374663Y37786861D01*
X42375000Y37780000D01*
X42375000Y37220000D01*
X42374663Y37213139D01*
X42373655Y37206344D01*
X42371986Y37199680D01*
X42369672Y37193212D01*
X42366734Y37187002D01*
X42363203Y37181110D01*
X42359111Y37175592D01*
X42354497Y37170503D01*
X42349408Y37165889D01*
X42343890Y37161797D01*
X42337998Y37158266D01*
X42331788Y37155328D01*
X42325320Y37153014D01*
X42318656Y37151345D01*
X42311861Y37150337D01*
X42305000Y37150000D01*
X41695000Y37150000D01*
X41688139Y37150337D01*
X41681344Y37151345D01*
X41674680Y37153014D01*
X41668212Y37155328D01*
X41662002Y37158266D01*
X41656110Y37161797D01*
X41650592Y37165889D01*
X41645503Y37170503D01*
X41640889Y37175592D01*
X41636797Y37181110D01*
X41633266Y37187002D01*
X41630328Y37193212D01*
X41628014Y37199680D01*
X41626345Y37206344D01*
X41625337Y37213139D01*
X41625000Y37220000D01*
X41625000Y37780000D01*
X41625337Y37786861D01*
X41626345Y37793656D01*
X41628014Y37800320D01*
X41630328Y37806788D01*
X41633266Y37812998D01*
X41636797Y37818890D01*
X41640889Y37824408D01*
X41645503Y37829497D01*
X41650592Y37834111D01*
X41656110Y37838203D01*
X41662002Y37841734D01*
X41668212Y37844672D01*
X41674680Y37846986D01*
X41681344Y37848655D01*
X41688139Y37849663D01*
X41695000Y37850000D01*
X42305000Y37850000D01*
X42311861Y37849663D01*
X42311861Y37849663D01*
G37*
D25*
X42000000Y37500000D03*
D24*
G36*
X42311861Y36349663D02*
G01*
X42318656Y36348655D01*
X42325320Y36346986D01*
X42331788Y36344672D01*
X42337998Y36341734D01*
X42343890Y36338203D01*
X42349408Y36334111D01*
X42354497Y36329497D01*
X42359111Y36324408D01*
X42363203Y36318890D01*
X42366734Y36312998D01*
X42369672Y36306788D01*
X42371986Y36300320D01*
X42373655Y36293656D01*
X42374663Y36286861D01*
X42375000Y36280000D01*
X42375000Y35720000D01*
X42374663Y35713139D01*
X42373655Y35706344D01*
X42371986Y35699680D01*
X42369672Y35693212D01*
X42366734Y35687002D01*
X42363203Y35681110D01*
X42359111Y35675592D01*
X42354497Y35670503D01*
X42349408Y35665889D01*
X42343890Y35661797D01*
X42337998Y35658266D01*
X42331788Y35655328D01*
X42325320Y35653014D01*
X42318656Y35651345D01*
X42311861Y35650337D01*
X42305000Y35650000D01*
X41695000Y35650000D01*
X41688139Y35650337D01*
X41681344Y35651345D01*
X41674680Y35653014D01*
X41668212Y35655328D01*
X41662002Y35658266D01*
X41656110Y35661797D01*
X41650592Y35665889D01*
X41645503Y35670503D01*
X41640889Y35675592D01*
X41636797Y35681110D01*
X41633266Y35687002D01*
X41630328Y35693212D01*
X41628014Y35699680D01*
X41626345Y35706344D01*
X41625337Y35713139D01*
X41625000Y35720000D01*
X41625000Y36280000D01*
X41625337Y36286861D01*
X41626345Y36293656D01*
X41628014Y36300320D01*
X41630328Y36306788D01*
X41633266Y36312998D01*
X41636797Y36318890D01*
X41640889Y36324408D01*
X41645503Y36329497D01*
X41650592Y36334111D01*
X41656110Y36338203D01*
X41662002Y36341734D01*
X41668212Y36344672D01*
X41674680Y36346986D01*
X41681344Y36348655D01*
X41688139Y36349663D01*
X41695000Y36350000D01*
X42305000Y36350000D01*
X42311861Y36349663D01*
X42311861Y36349663D01*
G37*
D25*
X42000000Y36000000D03*
D24*
G36*
X45561861Y37849663D02*
G01*
X45568656Y37848655D01*
X45575320Y37846986D01*
X45581788Y37844672D01*
X45587998Y37841734D01*
X45593890Y37838203D01*
X45599408Y37834111D01*
X45604497Y37829497D01*
X45609111Y37824408D01*
X45613203Y37818890D01*
X45616734Y37812998D01*
X45619672Y37806788D01*
X45621986Y37800320D01*
X45623655Y37793656D01*
X45624663Y37786861D01*
X45625000Y37780000D01*
X45625000Y37220000D01*
X45624663Y37213139D01*
X45623655Y37206344D01*
X45621986Y37199680D01*
X45619672Y37193212D01*
X45616734Y37187002D01*
X45613203Y37181110D01*
X45609111Y37175592D01*
X45604497Y37170503D01*
X45599408Y37165889D01*
X45593890Y37161797D01*
X45587998Y37158266D01*
X45581788Y37155328D01*
X45575320Y37153014D01*
X45568656Y37151345D01*
X45561861Y37150337D01*
X45555000Y37150000D01*
X44945000Y37150000D01*
X44938139Y37150337D01*
X44931344Y37151345D01*
X44924680Y37153014D01*
X44918212Y37155328D01*
X44912002Y37158266D01*
X44906110Y37161797D01*
X44900592Y37165889D01*
X44895503Y37170503D01*
X44890889Y37175592D01*
X44886797Y37181110D01*
X44883266Y37187002D01*
X44880328Y37193212D01*
X44878014Y37199680D01*
X44876345Y37206344D01*
X44875337Y37213139D01*
X44875000Y37220000D01*
X44875000Y37780000D01*
X44875337Y37786861D01*
X44876345Y37793656D01*
X44878014Y37800320D01*
X44880328Y37806788D01*
X44883266Y37812998D01*
X44886797Y37818890D01*
X44890889Y37824408D01*
X44895503Y37829497D01*
X44900592Y37834111D01*
X44906110Y37838203D01*
X44912002Y37841734D01*
X44918212Y37844672D01*
X44924680Y37846986D01*
X44931344Y37848655D01*
X44938139Y37849663D01*
X44945000Y37850000D01*
X45555000Y37850000D01*
X45561861Y37849663D01*
X45561861Y37849663D01*
G37*
D25*
X45250000Y37500000D03*
D24*
G36*
X45561861Y36349663D02*
G01*
X45568656Y36348655D01*
X45575320Y36346986D01*
X45581788Y36344672D01*
X45587998Y36341734D01*
X45593890Y36338203D01*
X45599408Y36334111D01*
X45604497Y36329497D01*
X45609111Y36324408D01*
X45613203Y36318890D01*
X45616734Y36312998D01*
X45619672Y36306788D01*
X45621986Y36300320D01*
X45623655Y36293656D01*
X45624663Y36286861D01*
X45625000Y36280000D01*
X45625000Y35720000D01*
X45624663Y35713139D01*
X45623655Y35706344D01*
X45621986Y35699680D01*
X45619672Y35693212D01*
X45616734Y35687002D01*
X45613203Y35681110D01*
X45609111Y35675592D01*
X45604497Y35670503D01*
X45599408Y35665889D01*
X45593890Y35661797D01*
X45587998Y35658266D01*
X45581788Y35655328D01*
X45575320Y35653014D01*
X45568656Y35651345D01*
X45561861Y35650337D01*
X45555000Y35650000D01*
X44945000Y35650000D01*
X44938139Y35650337D01*
X44931344Y35651345D01*
X44924680Y35653014D01*
X44918212Y35655328D01*
X44912002Y35658266D01*
X44906110Y35661797D01*
X44900592Y35665889D01*
X44895503Y35670503D01*
X44890889Y35675592D01*
X44886797Y35681110D01*
X44883266Y35687002D01*
X44880328Y35693212D01*
X44878014Y35699680D01*
X44876345Y35706344D01*
X44875337Y35713139D01*
X44875000Y35720000D01*
X44875000Y36280000D01*
X44875337Y36286861D01*
X44876345Y36293656D01*
X44878014Y36300320D01*
X44880328Y36306788D01*
X44883266Y36312998D01*
X44886797Y36318890D01*
X44890889Y36324408D01*
X44895503Y36329497D01*
X44900592Y36334111D01*
X44906110Y36338203D01*
X44912002Y36341734D01*
X44918212Y36344672D01*
X44924680Y36346986D01*
X44931344Y36348655D01*
X44938139Y36349663D01*
X44945000Y36350000D01*
X45555000Y36350000D01*
X45561861Y36349663D01*
X45561861Y36349663D01*
G37*
D25*
X45250000Y36000000D03*
D24*
G36*
X20411861Y24849663D02*
G01*
X20418656Y24848655D01*
X20425320Y24846986D01*
X20431788Y24844672D01*
X20437998Y24841734D01*
X20443890Y24838203D01*
X20449408Y24834111D01*
X20454497Y24829497D01*
X20459111Y24824408D01*
X20463203Y24818890D01*
X20466734Y24812998D01*
X20469672Y24806788D01*
X20471986Y24800320D01*
X20473655Y24793656D01*
X20474663Y24786861D01*
X20475000Y24780000D01*
X20475000Y24220000D01*
X20474663Y24213139D01*
X20473655Y24206344D01*
X20471986Y24199680D01*
X20469672Y24193212D01*
X20466734Y24187002D01*
X20463203Y24181110D01*
X20459111Y24175592D01*
X20454497Y24170503D01*
X20449408Y24165889D01*
X20443890Y24161797D01*
X20437998Y24158266D01*
X20431788Y24155328D01*
X20425320Y24153014D01*
X20418656Y24151345D01*
X20411861Y24150337D01*
X20405000Y24150000D01*
X19795000Y24150000D01*
X19788139Y24150337D01*
X19781344Y24151345D01*
X19774680Y24153014D01*
X19768212Y24155328D01*
X19762002Y24158266D01*
X19756110Y24161797D01*
X19750592Y24165889D01*
X19745503Y24170503D01*
X19740889Y24175592D01*
X19736797Y24181110D01*
X19733266Y24187002D01*
X19730328Y24193212D01*
X19728014Y24199680D01*
X19726345Y24206344D01*
X19725337Y24213139D01*
X19725000Y24220000D01*
X19725000Y24780000D01*
X19725337Y24786861D01*
X19726345Y24793656D01*
X19728014Y24800320D01*
X19730328Y24806788D01*
X19733266Y24812998D01*
X19736797Y24818890D01*
X19740889Y24824408D01*
X19745503Y24829497D01*
X19750592Y24834111D01*
X19756110Y24838203D01*
X19762002Y24841734D01*
X19768212Y24844672D01*
X19774680Y24846986D01*
X19781344Y24848655D01*
X19788139Y24849663D01*
X19795000Y24850000D01*
X20405000Y24850000D01*
X20411861Y24849663D01*
X20411861Y24849663D01*
G37*
D25*
X20100000Y24500000D03*
D24*
G36*
X20411861Y23349663D02*
G01*
X20418656Y23348655D01*
X20425320Y23346986D01*
X20431788Y23344672D01*
X20437998Y23341734D01*
X20443890Y23338203D01*
X20449408Y23334111D01*
X20454497Y23329497D01*
X20459111Y23324408D01*
X20463203Y23318890D01*
X20466734Y23312998D01*
X20469672Y23306788D01*
X20471986Y23300320D01*
X20473655Y23293656D01*
X20474663Y23286861D01*
X20475000Y23280000D01*
X20475000Y22720000D01*
X20474663Y22713139D01*
X20473655Y22706344D01*
X20471986Y22699680D01*
X20469672Y22693212D01*
X20466734Y22687002D01*
X20463203Y22681110D01*
X20459111Y22675592D01*
X20454497Y22670503D01*
X20449408Y22665889D01*
X20443890Y22661797D01*
X20437998Y22658266D01*
X20431788Y22655328D01*
X20425320Y22653014D01*
X20418656Y22651345D01*
X20411861Y22650337D01*
X20405000Y22650000D01*
X19795000Y22650000D01*
X19788139Y22650337D01*
X19781344Y22651345D01*
X19774680Y22653014D01*
X19768212Y22655328D01*
X19762002Y22658266D01*
X19756110Y22661797D01*
X19750592Y22665889D01*
X19745503Y22670503D01*
X19740889Y22675592D01*
X19736797Y22681110D01*
X19733266Y22687002D01*
X19730328Y22693212D01*
X19728014Y22699680D01*
X19726345Y22706344D01*
X19725337Y22713139D01*
X19725000Y22720000D01*
X19725000Y23280000D01*
X19725337Y23286861D01*
X19726345Y23293656D01*
X19728014Y23300320D01*
X19730328Y23306788D01*
X19733266Y23312998D01*
X19736797Y23318890D01*
X19740889Y23324408D01*
X19745503Y23329497D01*
X19750592Y23334111D01*
X19756110Y23338203D01*
X19762002Y23341734D01*
X19768212Y23344672D01*
X19774680Y23346986D01*
X19781344Y23348655D01*
X19788139Y23349663D01*
X19795000Y23350000D01*
X20405000Y23350000D01*
X20411861Y23349663D01*
X20411861Y23349663D01*
G37*
D25*
X20100000Y23000000D03*
D24*
G36*
X17061861Y24849663D02*
G01*
X17068656Y24848655D01*
X17075320Y24846986D01*
X17081788Y24844672D01*
X17087998Y24841734D01*
X17093890Y24838203D01*
X17099408Y24834111D01*
X17104497Y24829497D01*
X17109111Y24824408D01*
X17113203Y24818890D01*
X17116734Y24812998D01*
X17119672Y24806788D01*
X17121986Y24800320D01*
X17123655Y24793656D01*
X17124663Y24786861D01*
X17125000Y24780000D01*
X17125000Y24220000D01*
X17124663Y24213139D01*
X17123655Y24206344D01*
X17121986Y24199680D01*
X17119672Y24193212D01*
X17116734Y24187002D01*
X17113203Y24181110D01*
X17109111Y24175592D01*
X17104497Y24170503D01*
X17099408Y24165889D01*
X17093890Y24161797D01*
X17087998Y24158266D01*
X17081788Y24155328D01*
X17075320Y24153014D01*
X17068656Y24151345D01*
X17061861Y24150337D01*
X17055000Y24150000D01*
X16445000Y24150000D01*
X16438139Y24150337D01*
X16431344Y24151345D01*
X16424680Y24153014D01*
X16418212Y24155328D01*
X16412002Y24158266D01*
X16406110Y24161797D01*
X16400592Y24165889D01*
X16395503Y24170503D01*
X16390889Y24175592D01*
X16386797Y24181110D01*
X16383266Y24187002D01*
X16380328Y24193212D01*
X16378014Y24199680D01*
X16376345Y24206344D01*
X16375337Y24213139D01*
X16375000Y24220000D01*
X16375000Y24780000D01*
X16375337Y24786861D01*
X16376345Y24793656D01*
X16378014Y24800320D01*
X16380328Y24806788D01*
X16383266Y24812998D01*
X16386797Y24818890D01*
X16390889Y24824408D01*
X16395503Y24829497D01*
X16400592Y24834111D01*
X16406110Y24838203D01*
X16412002Y24841734D01*
X16418212Y24844672D01*
X16424680Y24846986D01*
X16431344Y24848655D01*
X16438139Y24849663D01*
X16445000Y24850000D01*
X17055000Y24850000D01*
X17061861Y24849663D01*
X17061861Y24849663D01*
G37*
D25*
X16750000Y24500000D03*
D24*
G36*
X17061861Y23349663D02*
G01*
X17068656Y23348655D01*
X17075320Y23346986D01*
X17081788Y23344672D01*
X17087998Y23341734D01*
X17093890Y23338203D01*
X17099408Y23334111D01*
X17104497Y23329497D01*
X17109111Y23324408D01*
X17113203Y23318890D01*
X17116734Y23312998D01*
X17119672Y23306788D01*
X17121986Y23300320D01*
X17123655Y23293656D01*
X17124663Y23286861D01*
X17125000Y23280000D01*
X17125000Y22720000D01*
X17124663Y22713139D01*
X17123655Y22706344D01*
X17121986Y22699680D01*
X17119672Y22693212D01*
X17116734Y22687002D01*
X17113203Y22681110D01*
X17109111Y22675592D01*
X17104497Y22670503D01*
X17099408Y22665889D01*
X17093890Y22661797D01*
X17087998Y22658266D01*
X17081788Y22655328D01*
X17075320Y22653014D01*
X17068656Y22651345D01*
X17061861Y22650337D01*
X17055000Y22650000D01*
X16445000Y22650000D01*
X16438139Y22650337D01*
X16431344Y22651345D01*
X16424680Y22653014D01*
X16418212Y22655328D01*
X16412002Y22658266D01*
X16406110Y22661797D01*
X16400592Y22665889D01*
X16395503Y22670503D01*
X16390889Y22675592D01*
X16386797Y22681110D01*
X16383266Y22687002D01*
X16380328Y22693212D01*
X16378014Y22699680D01*
X16376345Y22706344D01*
X16375337Y22713139D01*
X16375000Y22720000D01*
X16375000Y23280000D01*
X16375337Y23286861D01*
X16376345Y23293656D01*
X16378014Y23300320D01*
X16380328Y23306788D01*
X16383266Y23312998D01*
X16386797Y23318890D01*
X16390889Y23324408D01*
X16395503Y23329497D01*
X16400592Y23334111D01*
X16406110Y23338203D01*
X16412002Y23341734D01*
X16418212Y23344672D01*
X16424680Y23346986D01*
X16431344Y23348655D01*
X16438139Y23349663D01*
X16445000Y23350000D01*
X17055000Y23350000D01*
X17061861Y23349663D01*
X17061861Y23349663D01*
G37*
D25*
X16750000Y23000000D03*
D24*
G36*
X51761861Y17119663D02*
G01*
X51768656Y17118655D01*
X51775320Y17116986D01*
X51781788Y17114672D01*
X51787998Y17111734D01*
X51793890Y17108203D01*
X51799408Y17104111D01*
X51804497Y17099497D01*
X51809111Y17094408D01*
X51813203Y17088890D01*
X51816734Y17082998D01*
X51819672Y17076788D01*
X51821986Y17070320D01*
X51823655Y17063656D01*
X51824663Y17056861D01*
X51825000Y17050000D01*
X51825000Y16490000D01*
X51824663Y16483139D01*
X51823655Y16476344D01*
X51821986Y16469680D01*
X51819672Y16463212D01*
X51816734Y16457002D01*
X51813203Y16451110D01*
X51809111Y16445592D01*
X51804497Y16440503D01*
X51799408Y16435889D01*
X51793890Y16431797D01*
X51787998Y16428266D01*
X51781788Y16425328D01*
X51775320Y16423014D01*
X51768656Y16421345D01*
X51761861Y16420337D01*
X51755000Y16420000D01*
X51145000Y16420000D01*
X51138139Y16420337D01*
X51131344Y16421345D01*
X51124680Y16423014D01*
X51118212Y16425328D01*
X51112002Y16428266D01*
X51106110Y16431797D01*
X51100592Y16435889D01*
X51095503Y16440503D01*
X51090889Y16445592D01*
X51086797Y16451110D01*
X51083266Y16457002D01*
X51080328Y16463212D01*
X51078014Y16469680D01*
X51076345Y16476344D01*
X51075337Y16483139D01*
X51075000Y16490000D01*
X51075000Y17050000D01*
X51075337Y17056861D01*
X51076345Y17063656D01*
X51078014Y17070320D01*
X51080328Y17076788D01*
X51083266Y17082998D01*
X51086797Y17088890D01*
X51090889Y17094408D01*
X51095503Y17099497D01*
X51100592Y17104111D01*
X51106110Y17108203D01*
X51112002Y17111734D01*
X51118212Y17114672D01*
X51124680Y17116986D01*
X51131344Y17118655D01*
X51138139Y17119663D01*
X51145000Y17120000D01*
X51755000Y17120000D01*
X51761861Y17119663D01*
X51761861Y17119663D01*
G37*
D25*
X51450000Y16770000D03*
D24*
G36*
X51761861Y18619663D02*
G01*
X51768656Y18618655D01*
X51775320Y18616986D01*
X51781788Y18614672D01*
X51787998Y18611734D01*
X51793890Y18608203D01*
X51799408Y18604111D01*
X51804497Y18599497D01*
X51809111Y18594408D01*
X51813203Y18588890D01*
X51816734Y18582998D01*
X51819672Y18576788D01*
X51821986Y18570320D01*
X51823655Y18563656D01*
X51824663Y18556861D01*
X51825000Y18550000D01*
X51825000Y17990000D01*
X51824663Y17983139D01*
X51823655Y17976344D01*
X51821986Y17969680D01*
X51819672Y17963212D01*
X51816734Y17957002D01*
X51813203Y17951110D01*
X51809111Y17945592D01*
X51804497Y17940503D01*
X51799408Y17935889D01*
X51793890Y17931797D01*
X51787998Y17928266D01*
X51781788Y17925328D01*
X51775320Y17923014D01*
X51768656Y17921345D01*
X51761861Y17920337D01*
X51755000Y17920000D01*
X51145000Y17920000D01*
X51138139Y17920337D01*
X51131344Y17921345D01*
X51124680Y17923014D01*
X51118212Y17925328D01*
X51112002Y17928266D01*
X51106110Y17931797D01*
X51100592Y17935889D01*
X51095503Y17940503D01*
X51090889Y17945592D01*
X51086797Y17951110D01*
X51083266Y17957002D01*
X51080328Y17963212D01*
X51078014Y17969680D01*
X51076345Y17976344D01*
X51075337Y17983139D01*
X51075000Y17990000D01*
X51075000Y18550000D01*
X51075337Y18556861D01*
X51076345Y18563656D01*
X51078014Y18570320D01*
X51080328Y18576788D01*
X51083266Y18582998D01*
X51086797Y18588890D01*
X51090889Y18594408D01*
X51095503Y18599497D01*
X51100592Y18604111D01*
X51106110Y18608203D01*
X51112002Y18611734D01*
X51118212Y18614672D01*
X51124680Y18616986D01*
X51131344Y18618655D01*
X51138139Y18619663D01*
X51145000Y18620000D01*
X51755000Y18620000D01*
X51761861Y18619663D01*
X51761861Y18619663D01*
G37*
D25*
X51450000Y18270000D03*
D26*
X16800000Y51800000D03*
X14800000Y51800000D03*
X16800000Y49800000D03*
X14800000Y49800000D03*
D17*
X16000000Y45600000D03*
X16000000Y47600000D03*
D24*
G36*
X37786861Y50374663D02*
G01*
X37793656Y50373655D01*
X37800320Y50371986D01*
X37806788Y50369672D01*
X37812998Y50366734D01*
X37818890Y50363203D01*
X37824408Y50359111D01*
X37829497Y50354497D01*
X37834111Y50349408D01*
X37838203Y50343890D01*
X37841734Y50337998D01*
X37844672Y50331788D01*
X37846986Y50325320D01*
X37848655Y50318656D01*
X37849663Y50311861D01*
X37850000Y50305000D01*
X37850000Y49695000D01*
X37849663Y49688139D01*
X37848655Y49681344D01*
X37846986Y49674680D01*
X37844672Y49668212D01*
X37841734Y49662002D01*
X37838203Y49656110D01*
X37834111Y49650592D01*
X37829497Y49645503D01*
X37824408Y49640889D01*
X37818890Y49636797D01*
X37812998Y49633266D01*
X37806788Y49630328D01*
X37800320Y49628014D01*
X37793656Y49626345D01*
X37786861Y49625337D01*
X37780000Y49625000D01*
X37220000Y49625000D01*
X37213139Y49625337D01*
X37206344Y49626345D01*
X37199680Y49628014D01*
X37193212Y49630328D01*
X37187002Y49633266D01*
X37181110Y49636797D01*
X37175592Y49640889D01*
X37170503Y49645503D01*
X37165889Y49650592D01*
X37161797Y49656110D01*
X37158266Y49662002D01*
X37155328Y49668212D01*
X37153014Y49674680D01*
X37151345Y49681344D01*
X37150337Y49688139D01*
X37150000Y49695000D01*
X37150000Y50305000D01*
X37150337Y50311861D01*
X37151345Y50318656D01*
X37153014Y50325320D01*
X37155328Y50331788D01*
X37158266Y50337998D01*
X37161797Y50343890D01*
X37165889Y50349408D01*
X37170503Y50354497D01*
X37175592Y50359111D01*
X37181110Y50363203D01*
X37187002Y50366734D01*
X37193212Y50369672D01*
X37199680Y50371986D01*
X37206344Y50373655D01*
X37213139Y50374663D01*
X37220000Y50375000D01*
X37780000Y50375000D01*
X37786861Y50374663D01*
X37786861Y50374663D01*
G37*
D25*
X37500000Y50000000D03*
D24*
G36*
X39286861Y50374663D02*
G01*
X39293656Y50373655D01*
X39300320Y50371986D01*
X39306788Y50369672D01*
X39312998Y50366734D01*
X39318890Y50363203D01*
X39324408Y50359111D01*
X39329497Y50354497D01*
X39334111Y50349408D01*
X39338203Y50343890D01*
X39341734Y50337998D01*
X39344672Y50331788D01*
X39346986Y50325320D01*
X39348655Y50318656D01*
X39349663Y50311861D01*
X39350000Y50305000D01*
X39350000Y49695000D01*
X39349663Y49688139D01*
X39348655Y49681344D01*
X39346986Y49674680D01*
X39344672Y49668212D01*
X39341734Y49662002D01*
X39338203Y49656110D01*
X39334111Y49650592D01*
X39329497Y49645503D01*
X39324408Y49640889D01*
X39318890Y49636797D01*
X39312998Y49633266D01*
X39306788Y49630328D01*
X39300320Y49628014D01*
X39293656Y49626345D01*
X39286861Y49625337D01*
X39280000Y49625000D01*
X38720000Y49625000D01*
X38713139Y49625337D01*
X38706344Y49626345D01*
X38699680Y49628014D01*
X38693212Y49630328D01*
X38687002Y49633266D01*
X38681110Y49636797D01*
X38675592Y49640889D01*
X38670503Y49645503D01*
X38665889Y49650592D01*
X38661797Y49656110D01*
X38658266Y49662002D01*
X38655328Y49668212D01*
X38653014Y49674680D01*
X38651345Y49681344D01*
X38650337Y49688139D01*
X38650000Y49695000D01*
X38650000Y50305000D01*
X38650337Y50311861D01*
X38651345Y50318656D01*
X38653014Y50325320D01*
X38655328Y50331788D01*
X38658266Y50337998D01*
X38661797Y50343890D01*
X38665889Y50349408D01*
X38670503Y50354497D01*
X38675592Y50359111D01*
X38681110Y50363203D01*
X38687002Y50366734D01*
X38693212Y50369672D01*
X38699680Y50371986D01*
X38706344Y50373655D01*
X38713139Y50374663D01*
X38720000Y50375000D01*
X39280000Y50375000D01*
X39286861Y50374663D01*
X39286861Y50374663D01*
G37*
D25*
X39000000Y50000000D03*
D26*
X35500000Y14500000D03*
X37500000Y14500000D03*
X35500000Y16500000D03*
X37500000Y16500000D03*
D17*
X26936000Y43700000D03*
X26936000Y45700000D03*
X24000000Y43700000D03*
X24000000Y45700000D03*
D27*
X14500000Y33000000D03*
X14500000Y34100000D03*
X14500000Y35200000D03*
X14500000Y36300000D03*
X14500000Y37400000D03*
X14500000Y38500000D03*
X14500000Y39600000D03*
X14500000Y40700000D03*
X14500000Y41800000D03*
D28*
X13900000Y43000000D03*
D29*
X4400000Y43000000D03*
X4400000Y27500000D03*
D30*
X14000000Y28400000D03*
D31*
X15400000Y5380000D03*
X15400000Y6650000D03*
X15400000Y7920000D03*
X15400000Y11730000D03*
X15400000Y10460000D03*
X15400000Y9190000D03*
D32*
X11230000Y3135000D03*
X13230000Y3135000D03*
X11230000Y15665000D03*
X13230000Y15665000D03*
D33*
X1670000Y3295000D03*
X1670000Y15505000D03*
D34*
X1670000Y11940000D03*
X1670000Y6860000D03*
D35*
X1850000Y52665000D03*
X3750000Y52665000D03*
X6550000Y52665000D03*
X11060000Y46135000D03*
X2610000Y46135000D03*
X5460000Y46135000D03*
X8310000Y46135000D03*
X8900000Y52665000D03*
D32*
X16700000Y28400000D03*
D36*
X17200000Y27640000D03*
X16700000Y27640000D03*
X16200000Y27640000D03*
X16200000Y29160000D03*
X16700000Y29160000D03*
X17200000Y29160000D03*
D37*
X58100000Y53200000D03*
X58100000Y54800000D03*
X28700000Y10000000D03*
X30300000Y10000000D03*
D38*
X21750000Y3000000D03*
D39*
X22510000Y3500000D03*
X22510000Y3000000D03*
X22510000Y2500000D03*
X20990000Y2500000D03*
X20990000Y3000000D03*
X20990000Y3500000D03*
D40*
X21020000Y47400000D03*
X20180000Y47400000D03*
X18420000Y47400000D03*
X17580000Y47400000D03*
D41*
X40700000Y43250000D03*
X36300000Y43250000D03*
D37*
X38700000Y62000000D03*
X38700000Y60400000D03*
D11*
X54000000Y55000000D03*
X54650000Y53000000D03*
X53350000Y53000000D03*
X29500000Y13500000D03*
X28850000Y15500000D03*
X30150000Y15500000D03*
D42*
X26594000Y61654000D03*
X24594000Y61004000D03*
X24594000Y62304000D03*
D43*
X16050000Y41800000D03*
X17550000Y41800000D03*
X19850000Y6500000D03*
X18350000Y6500000D03*
X19850000Y8050000D03*
X18350000Y8050000D03*
X19850000Y13450000D03*
X18350000Y13450000D03*
D44*
X56300000Y55000000D03*
X56300000Y53500000D03*
D43*
X30250000Y12000000D03*
X28750000Y12000000D03*
X19850000Y10750000D03*
X18350000Y10750000D03*
D44*
X47750000Y22250000D03*
X47750000Y23750000D03*
X26610000Y59500000D03*
X26610000Y58000000D03*
X37200000Y58950000D03*
X37200000Y57450000D03*
X38699999Y58950000D03*
X38699999Y57450000D03*
X37200000Y61450000D03*
X37200000Y59950000D03*
X39000000Y11700000D03*
X39000000Y10200000D03*
D45*
X51300000Y30925000D03*
X51300000Y30275000D03*
X51300000Y29625000D03*
X51300000Y28975000D03*
X51300000Y28325000D03*
X51300000Y27675000D03*
X51300000Y27025000D03*
X51300000Y26375000D03*
X51300000Y25725000D03*
X51300000Y25075000D03*
X45700000Y25075000D03*
X45700000Y25725000D03*
X45700000Y26375000D03*
X45700000Y27025000D03*
X45700000Y27675000D03*
X45700000Y28325000D03*
X45700000Y28975000D03*
X45700000Y29625000D03*
X45700000Y30275000D03*
X45700000Y30925000D03*
D46*
X34540000Y59200000D03*
X33270000Y59200000D03*
X32000000Y59200000D03*
X30730000Y59200000D03*
X29460000Y59200000D03*
D47*
X35500000Y12800000D03*
X37400000Y12800000D03*
X37400000Y10200000D03*
X36450000Y10200000D03*
X35500000Y10200000D03*
D48*
X28684000Y43700000D03*
X28684000Y45600000D03*
X31284000Y45600000D03*
X31284000Y44650000D03*
X31284000Y43700000D03*
D23*
X19650000Y12250000D03*
X18550000Y12250000D03*
X19650000Y9300000D03*
X18550000Y9300000D03*
X18550000Y4650000D03*
X19650000Y4650000D03*
X21150000Y46400000D03*
X20050000Y46400000D03*
X21150000Y45400000D03*
X20050000Y45400000D03*
D12*
X46250000Y23800000D03*
X46250000Y22700000D03*
X49250000Y23800000D03*
X49250000Y22700000D03*
X18000000Y37200000D03*
X18000000Y38300000D03*
X19000000Y37200000D03*
X19000000Y38300000D03*
X19900000Y35950000D03*
X19900000Y37050000D03*
X20800000Y35950000D03*
X20800000Y37050000D03*
D23*
X18550000Y46400000D03*
X17450000Y46400000D03*
X18550000Y45400000D03*
X17450000Y45400000D03*
D12*
X18000000Y34700000D03*
X18000000Y35800000D03*
X19000000Y34700000D03*
X19000000Y35800000D03*
X24750000Y58200000D03*
X24750000Y59300000D03*
D23*
X37500000Y48500000D03*
X38600000Y48500000D03*
X37500000Y47000000D03*
X38600000Y47000000D03*
X37500000Y45500000D03*
X38600000Y45500000D03*
D12*
X33500000Y11200000D03*
X33500000Y12300000D03*
D23*
X35500000Y18000000D03*
X36600000Y18000000D03*
D12*
X32750000Y43700000D03*
X32750000Y44800000D03*
X25500000Y43700000D03*
X25500000Y44800000D03*
D24*
G36*
X47274504Y36498796D02*
G01*
X47298773Y36495196D01*
X47322571Y36489235D01*
X47345671Y36480970D01*
X47367849Y36470480D01*
X47388893Y36457867D01*
X47408598Y36443253D01*
X47426777Y36426777D01*
X47443253Y36408598D01*
X47457867Y36388893D01*
X47470480Y36367849D01*
X47480970Y36345671D01*
X47489235Y36322571D01*
X47495196Y36298773D01*
X47498796Y36274504D01*
X47500000Y36250000D01*
X47500000Y35750000D01*
X47498796Y35725496D01*
X47495196Y35701227D01*
X47489235Y35677429D01*
X47480970Y35654329D01*
X47470480Y35632151D01*
X47457867Y35611107D01*
X47443253Y35591402D01*
X47426777Y35573223D01*
X47408598Y35556747D01*
X47388893Y35542133D01*
X47367849Y35529520D01*
X47345671Y35519030D01*
X47322571Y35510765D01*
X47298773Y35504804D01*
X47274504Y35501204D01*
X47250000Y35500000D01*
X46750000Y35500000D01*
X46725496Y35501204D01*
X46701227Y35504804D01*
X46677429Y35510765D01*
X46654329Y35519030D01*
X46632151Y35529520D01*
X46611107Y35542133D01*
X46591402Y35556747D01*
X46573223Y35573223D01*
X46556747Y35591402D01*
X46542133Y35611107D01*
X46529520Y35632151D01*
X46519030Y35654329D01*
X46510765Y35677429D01*
X46504804Y35701227D01*
X46501204Y35725496D01*
X46500000Y35750000D01*
X46500000Y36250000D01*
X46501204Y36274504D01*
X46504804Y36298773D01*
X46510765Y36322571D01*
X46519030Y36345671D01*
X46529520Y36367849D01*
X46542133Y36388893D01*
X46556747Y36408598D01*
X46573223Y36426777D01*
X46591402Y36443253D01*
X46611107Y36457867D01*
X46632151Y36470480D01*
X46654329Y36480970D01*
X46677429Y36489235D01*
X46701227Y36495196D01*
X46725496Y36498796D01*
X46750000Y36500000D01*
X47250000Y36500000D01*
X47274504Y36498796D01*
X47274504Y36498796D01*
G37*
D49*
X47000000Y36000000D03*
D50*
X50000000Y36000000D03*
D51*
X48500000Y34525000D03*
X48500000Y37475000D03*
D24*
G36*
X15274504Y23498796D02*
G01*
X15298773Y23495196D01*
X15322571Y23489235D01*
X15345671Y23480970D01*
X15367849Y23470480D01*
X15388893Y23457867D01*
X15408598Y23443253D01*
X15426777Y23426777D01*
X15443253Y23408598D01*
X15457867Y23388893D01*
X15470480Y23367849D01*
X15480970Y23345671D01*
X15489235Y23322571D01*
X15495196Y23298773D01*
X15498796Y23274504D01*
X15500000Y23250000D01*
X15500000Y22750000D01*
X15498796Y22725496D01*
X15495196Y22701227D01*
X15489235Y22677429D01*
X15480970Y22654329D01*
X15470480Y22632151D01*
X15457867Y22611107D01*
X15443253Y22591402D01*
X15426777Y22573223D01*
X15408598Y22556747D01*
X15388893Y22542133D01*
X15367849Y22529520D01*
X15345671Y22519030D01*
X15322571Y22510765D01*
X15298773Y22504804D01*
X15274504Y22501204D01*
X15250000Y22500000D01*
X14750000Y22500000D01*
X14725496Y22501204D01*
X14701227Y22504804D01*
X14677429Y22510765D01*
X14654329Y22519030D01*
X14632151Y22529520D01*
X14611107Y22542133D01*
X14591402Y22556747D01*
X14573223Y22573223D01*
X14556747Y22591402D01*
X14542133Y22611107D01*
X14529520Y22632151D01*
X14519030Y22654329D01*
X14510765Y22677429D01*
X14504804Y22701227D01*
X14501204Y22725496D01*
X14500000Y22750000D01*
X14500000Y23250000D01*
X14501204Y23274504D01*
X14504804Y23298773D01*
X14510765Y23322571D01*
X14519030Y23345671D01*
X14529520Y23367849D01*
X14542133Y23388893D01*
X14556747Y23408598D01*
X14573223Y23426777D01*
X14591402Y23443253D01*
X14611107Y23457867D01*
X14632151Y23470480D01*
X14654329Y23480970D01*
X14677429Y23489235D01*
X14701227Y23495196D01*
X14725496Y23498796D01*
X14750000Y23500000D01*
X15250000Y23500000D01*
X15274504Y23498796D01*
X15274504Y23498796D01*
G37*
D49*
X15000000Y23000000D03*
D50*
X12000000Y23000000D03*
D51*
X13500000Y24475000D03*
X13500000Y21525000D03*
D13*
X20950000Y44250000D03*
X20050000Y44250000D03*
M02*
