M48
; DRILL file {KiCad 5.1.2-f72e74a~84~ubuntu18.04.1} date Sat Jun 22 18:56:28 2019
; FORMAT={-:-/ absolute / inch / decimal}
; #@! TF.CreationDate,2019-06-22T18:56:28+05:30
; #@! TF.GenerationSoftware,Kicad,Pcbnew,5.1.2-f72e74a~84~ubuntu18.04.1
FMAT,2
INCH
T1C0.0157
T2C0.0197
T3C0.0256
T4C0.0400
T5C0.0433
T6C0.1260
T7C0.0335
T8C0.0433
T9C0.0787
%
G90
G05
T1
X0.0236Y2.5394
X0.0236Y2.4606
X0.0236Y2.3819
X0.0236Y2.3031
X0.0236Y2.2244
X0.0236Y2.1457
X0.0236Y2.0669
X0.0236Y1.9882
X0.0236Y1.9094
X0.0236Y1.8307
X0.0236Y1.752
X0.0236Y1.6732
X0.0236Y1.5945
X0.0236Y1.5157
X0.0236Y1.437
X0.0236Y1.3583
X0.0236Y1.2795
X0.0236Y1.2008
X0.0236Y1.122
X0.0236Y1.0433
X0.0236Y0.9646
X0.0236Y0.8858
X0.0236Y0.8071
X0.0236Y0.7283
X0.0236Y0.6693
X0.0748Y1.0433
X0.0984Y0.6693
X0.1181Y1.6929
X0.1181Y1.0827
X0.1194Y0.0236
X0.1398Y0.9252
X0.1772Y0.6693
X0.1811Y0.0236
X0.2165Y2.7323
X0.2227Y1.0853
X0.2264Y1.6929
X0.2559Y0.6693
X0.2598Y0.0236
X0.2756Y1.0039
X0.2953Y2.7323
X0.3346Y0.6693
X0.3386Y0.0236
X0.374Y2.7323
X0.3799Y0.8839
X0.4173Y0.0236
X0.4331Y1.0236
X0.4331Y0.9646
X0.4331Y0.9055
X0.4331Y0.8268
X0.4331Y0.748
X0.4331Y0.6693
X0.4528Y2.7323
X0.4724Y1.0039
X0.4724Y0.9547
X0.4724Y0.8563
X0.4724Y0.8071
X0.4961Y0.0236
X0.502Y1.6929
X0.5118Y1.1181
X0.5118Y0.6693
X0.5276Y1.5157
X0.5315Y2.7323
X0.5315Y1.0039
X0.5315Y0.8071
X0.5472Y1.7323
X0.5748Y0.0236
X0.5906Y1.0039
X0.5906Y0.8071
X0.5906Y0.6693
X0.6102Y2.7323
X0.6142Y1.1181
X0.6161Y1.5157
X0.6181Y1.2008
X0.6201Y0.9449
X0.6201Y0.8661
X0.6299Y1.4291
X0.6319Y1.6122
X0.6378Y1.2913
X0.6398Y2.6969
X0.6398Y2.6378
X0.6398Y2.5787
X0.6398Y2.5197
X0.6535Y0.0236
X0.6575Y1.1969
X0.6594Y1.0039
X0.6594Y0.8661
X0.6693Y0.6693
X0.6772Y1.3661
X0.6772Y1.2756
X0.6772Y0.4705
X0.6791Y0.4232
X0.6791Y0.315
X0.6791Y0.1378
X0.689Y2.7323
X0.689Y2.5197
X0.7047Y1.0906
X0.7087Y0.9449
X0.7087Y0.8661
X0.7136Y1.6513
X0.7244Y1.8976
X0.7283Y0.1378
X0.7323Y0.0236
X0.7373Y1.7638
X0.748Y1.0236
X0.748Y0.9449
X0.748Y0.8661
X0.748Y0.6693
X0.7484Y1.5394
X0.7579Y2.5197
X0.7677Y2.7323
X0.7717Y1.1654
X0.7869Y0.1383
X0.7874Y1.0039
X0.7972Y0.8661
X0.8071Y2.6969
X0.8071Y2.6378
X0.8071Y2.5787
X0.8071Y2.5197
X0.811Y0.4843
X0.811Y0.6167
X0.811Y0.3583
X0.811Y0.0236
X0.8169Y0.2559
X0.8268Y1.0236
X0.8268Y0.6693
X0.8276Y1.8996
X0.8366Y0.9449
X0.8465Y2.7323
X0.8465Y0.8661
X0.8465Y0.5709
X0.8465Y0.2165
X0.8661Y0.7283
X0.872Y1.7874
X0.874Y1.7205
X0.876Y2.0177
X0.8898Y0.0236
X0.8957Y0.8661
X0.9055Y0.7776
X0.9154Y0.7283
X0.9154Y0.6988
X0.9252Y2.7323
X0.9269Y2.4017
X0.9449Y0.8661
X0.9449Y0.7283
X0.9646Y0.8268
X0.9646Y0.7776
X0.9685Y0.0236
X0.9724Y1.2992
X0.9764Y1.378
X0.9843Y2.0866
X0.9843Y1.939
X0.9843Y0.9449
X0.9843Y0.9055
X0.9882Y1.2598
X0.9921Y1.3386
X1.0039Y2.7323
X1.0039Y1.7953
X1.0433Y1.4902
X1.0433Y0.75
X1.063Y0.563
X1.063Y0.4823
X1.063Y0.4035
X1.063Y0.3248
X1.063Y0.2461
X1.0826Y1.4902
X1.0827Y2.7323
X1.0827Y2.6673
X1.0827Y2.6083
X1.0827Y2.5492
X1.0827Y2.4902
X1.1024Y2.4409
X1.1102Y0.6102
X1.122Y1.4094
X1.1417Y2.7323
X1.1417Y2.4409
X1.1592Y1.7953
X1.1614Y0.0236
X1.185Y1.4094
X1.187Y0.7008
X1.1966Y1.7579
X1.2008Y2.7323
X1.2008Y2.4409
X1.2008Y1.4724
X1.2402Y1.4724
X1.2402Y0.0236
X1.2598Y2.7323
X1.2598Y2.4409
X1.2618Y0.7441
X1.2618Y0.6732
X1.3189Y2.7323
X1.3189Y2.4409
X1.3189Y0.5138
X1.3189Y0.0236
X1.3189Y0.4016
X1.3386Y1.7618
X1.3524Y0.4016
X1.3583Y1.4724
X1.378Y2.7323
X1.378Y2.4409
X1.3976Y0.0236
X1.4173Y2.4409
X1.435Y0.4409
X1.437Y2.7323
X1.437Y2.6673
X1.437Y2.6083
X1.437Y2.5492
X1.437Y2.4902
X1.4567Y1.4567
X1.4567Y1.4173
X1.4567Y1.378
X1.4567Y1.063
X1.4567Y1.0236
X1.4626Y0.2264
X1.4626Y0.1673
X1.4646Y2.4508
X1.4646Y0.0669
X1.4724Y0.4646
X1.4764Y0.8661
X1.4764Y0.8071
X1.4764Y0.748
X1.4764Y0.7087
X1.4764Y0.0236
X1.4803Y1.5472
X1.4941Y0.2854
X1.4941Y0.0984
X1.4961Y1.4961
X1.5157Y2.7323
X1.5236Y2.4724
X1.5354Y0.4941
X1.5531Y0.2854
X1.5531Y0.0984
X1.5551Y1.4961
X1.5551Y0.0236
X1.563Y1.9685
X1.565Y1.9094
X1.565Y1.8504
X1.565Y1.7913
X1.5945Y2.7323
X1.6024Y1.7677
X1.6043Y1.4567
X1.6043Y1.378
X1.6083Y1.0236
X1.6122Y0.0984
X1.6142Y0.2854
X1.6339Y0.0236
X1.6476Y0.9744
X1.6476Y0.9252
X1.6476Y0.8661
X1.6476Y0.8071
X1.6535Y1.5157
X1.6535Y1.378
X1.6535Y0.6988
X1.6535Y0.6201
X1.6535Y0.5413
X1.6634Y1.3287
X1.6634Y0.7579
X1.6732Y2.7323
X1.6929Y0.7185
X1.6949Y1.811
X1.7028Y1.4567
X1.7028Y1.378
X1.7028Y1.2894
X1.7126Y1.5453
X1.7126Y0.0236
X1.7224Y1.0236
X1.7224Y0.9843
X1.7224Y0.935
X1.7224Y0.8858
X1.7224Y0.8366
X1.7323Y0.689
X1.7323Y0.5413
X1.7343Y1.687
X1.7421Y1.4567
X1.7421Y1.378
X1.7421Y0.7874
X1.752Y2.7323
X1.7618Y2.6969
X1.7618Y2.6378
X1.7618Y2.5787
X1.7618Y2.5295
X1.7717Y1.811
X1.7717Y0.935
X1.7717Y0.8858
X1.7815Y1.6732
X1.7815Y1.6142
X1.7815Y1.5551
X1.7815Y1.5157
X1.7815Y1.378
X1.7815Y1.2894
X1.7815Y0.7579
X1.7815Y0.6791
X1.7913Y0.0236
X1.811Y0.5413
X1.8209Y2.5295
X1.8209Y0.8642
X1.8307Y2.7323
X1.8307Y1.4665
X1.8307Y1.3681
X1.8307Y0.7579
X1.8307Y0.6791
X1.8504Y1.9193
X1.8504Y1.5059
X1.8504Y1.3287
X1.8504Y1.2894
X1.8543Y1.1929
X1.8602Y1.6732
X1.8622Y1.0669
X1.8701Y0.0236
X1.8799Y2.5295
X1.8799Y0.8465
X1.8898Y0.7677
X1.8898Y0.6201
X1.8898Y0.5413
X1.9094Y2.7323
X1.9094Y1.5157
X1.9094Y1.3189
X1.9291Y1.811
X1.939Y2.6969
X1.939Y2.6378
X1.939Y2.5787
X1.939Y2.5295
X1.939Y1.6732
X1.939Y0.8642
X1.939Y0.7579
X1.939Y0.6791
X1.9488Y0.0236
X1.9685Y1.5059
X1.9685Y1.3287
X1.9685Y1.2894
X1.9685Y0.5413
X1.9783Y0.7579
X1.9783Y0.6791
X1.9882Y2.7323
X1.9882Y1.4665
X1.9882Y1.3681
X1.998Y0.9154
X2.0177Y1.6732
X2.0177Y1.4173
X2.0276Y0.7677
X2.0276Y0.6201
X2.0276Y0.0236
X2.0472Y1.3583
X2.0472Y1.2992
X2.0472Y0.5413
X2.0669Y2.7323
X2.0669Y0.9803
X2.0669Y0.876
X2.0669Y0.8268
X2.0669Y0.7677
X2.0669Y0.6791
X2.0669Y0.6398
X2.0768Y0.9154
X2.0965Y1.6732
X2.1063Y0.0236
X2.1161Y1.4075
X2.1161Y0.876
X2.1161Y0.6398
X2.126Y0.5413
X2.1452Y1.6629
X2.1457Y2.7323
X2.1516Y2.0492
X2.1555Y1.6142
X2.1555Y1.5354
X2.1555Y1.4567
X2.1555Y0.9154
X2.1654Y0.876
X2.1654Y0.6398
X2.2047Y0.9055
X2.2047Y0.5413
X2.2146Y0.6004
X2.2736Y0.9055
X2.2736Y0.6004
X2.2835Y0.5413
X2.3327Y0.9055
X2.3327Y0.6004
X2.3327Y0.5413
X2.3386Y2.5
X2.3386Y2.4213
X2.3386Y2.3425
X2.3386Y2.2638
X2.3386Y2.185
X2.3386Y2.1063
X2.3386Y2.0276
X2.3386Y1.9488
X2.3386Y1.8701
X2.3386Y1.7913
X2.3386Y1.7126
X2.3386Y1.6339
X2.3386Y1.5551
X2.3386Y1.4764
X2.3386Y1.3976
X2.3386Y1.3189
X2.3386Y1.2402
X2.3386Y1.1614
X2.3386Y1.0827
X2.3386Y1.0039
X2.3386Y0.4528
X2.3386Y0.374
X2.3386Y0.2953
X2.3386Y0.2126
T2
X2.1634Y2.6378
X2.187Y2.6949
X2.187Y2.5807
X2.2441Y2.7185
X2.2441Y2.5571
X2.3012Y2.6949
X2.3012Y2.5807
X2.3248Y2.6378
X2.1634Y0.1181
X2.187Y0.1752
X2.187Y0.061
X2.2441Y0.1988
X2.2441Y0.0374
X2.3012Y0.1752
X2.3012Y0.061
X2.3248Y0.1181
X0.0374Y2.6378
X0.061Y2.6949
X0.061Y2.5807
X0.1181Y2.7185
X0.1181Y2.5571
X0.1752Y2.6949
X0.1752Y2.5807
X0.1988Y2.6378
X0.9823Y0.1181
X1.0059Y0.1752
X1.0059Y0.061
X1.063Y0.1988
X1.063Y0.0374
X1.1201Y0.1752
X1.1201Y0.061
X1.1437Y0.1181
T3
X1.0157Y2.6378
X1.0157Y2.5878
X1.0157Y2.5378
X2.1161Y1.9299
X2.1161Y1.8799
X2.1161Y1.8299
T4
X0.1181Y2.4228
X0.1181Y2.3228
X0.1181Y2.2228
X2.1555Y1.3091
X2.1555Y1.2091
X2.1555Y1.1091
X2.1555Y1.0091
X2.2555Y1.3091
X2.2555Y1.2091
X2.2555Y1.1091
X2.2555Y1.0091
X1.7913Y0.3984
X1.7913Y0.2984
X1.7913Y0.1984
X1.7913Y0.0984
X2.2441Y1.9701
X2.2441Y1.8701
X2.2441Y1.7701
T5
X0.328Y2.4016
X0.428Y2.4016
T6
X2.2441Y2.6378
X2.2441Y0.1181
X0.1181Y2.6378
X1.063Y0.1181
T7
X0.1575Y1.5827
X0.1575Y1.2677
T8
X0.328Y2.5016
X0.428Y2.5016
T9
X0.0984Y1.9449
X0.374Y1.9449
T0
M30
