G04 #@! TF.GenerationSoftware,KiCad,Pcbnew,5.1.2-f72e74a~84~ubuntu18.04.1*
G04 #@! TF.CreationDate,2019-06-22T18:56:12+05:30*
G04 #@! TF.ProjectId,mc60,6d633630-2e6b-4696-9361-645f70636258,rev?*
G04 #@! TF.SameCoordinates,PX41cdb40PY7bfa480*
G04 #@! TF.FileFunction,Soldermask,Top*
G04 #@! TF.FilePolarity,Negative*
%FSLAX46Y46*%
G04 Gerber Fmt 4.6, Leading zero omitted, Abs format (unit mm)*
G04 Created by KiCad (PCBNEW 5.1.2-f72e74a~84~ubuntu18.04.1) date 2019-06-22 18:56:12*
%MOMM*%
%LPD*%
G04 APERTURE LIST*
%ADD10C,0.700000*%
%ADD11C,0.250000*%
%ADD12C,1.150000*%
%ADD13C,5.600000*%
%ADD14R,1.600000X1.500000*%
%ADD15R,1.400000X1.400000*%
%ADD16O,1.400000X1.400000*%
%ADD17R,0.900000X1.100000*%
%ADD18R,0.900000X1.000000*%
%ADD19R,0.800000X1.000000*%
%ADD20R,1.000000X0.800000*%
%ADD21R,4.400000X2.900000*%
%ADD22R,2.900000X4.400000*%
%ADD23R,1.650000X1.400000*%
%ADD24R,2.900000X1.100000*%
%ADD25R,1.100000X2.900000*%
%ADD26R,1.500000X1.500000*%
%ADD27R,4.200000X1.550000*%
%ADD28R,1.150000X1.600000*%
%ADD29O,2.432000X2.127200*%
%ADD30R,2.432000X2.127200*%
%ADD31R,1.000000X0.900000*%
%ADD32C,0.508000*%
%ADD33C,1.100000*%
%ADD34R,1.400000X1.650000*%
%ADD35C,1.250000*%
%ADD36R,2.000000X1.100000*%
%ADD37R,2.000000X1.600000*%
%ADD38R,2.600000X1.600000*%
%ADD39R,1.800000X2.000000*%
%ADD40R,1.550000X1.050000*%
%ADD41R,1.700000X0.850000*%
%ADD42R,2.100000X1.800000*%
%ADD43R,1.200000X0.940000*%
%ADD44C,2.400000*%
%ADD45R,1.400000X2.700000*%
%ADD46R,1.460000X0.610000*%
%ADD47R,0.460000X0.790000*%
%ADD48R,1.200000X1.200000*%
%ADD49R,0.610000X1.460000*%
%ADD50R,0.790000X0.460000*%
%ADD51R,0.560000X0.450000*%
%ADD52R,1.800000X2.400000*%
%ADD53O,2.127200X2.127200*%
%ADD54R,2.127200X2.127200*%
%ADD55R,1.100000X0.900000*%
%ADD56R,0.900000X1.300000*%
%ADD57R,1.300000X0.900000*%
%ADD58R,2.000000X0.750000*%
%ADD59R,7.500000X6.250000*%
%ADD60R,1.160000X2.600000*%
%ADD61R,1.000000X1.500000*%
%ADD62R,1.500000X1.000000*%
%ADD63C,1.400000*%
%ADD64R,1.100000X1.100000*%
%ADD65R,2.300000X1.150000*%
%ADD66R,2.600000X1.450000*%
%ADD67C,1.500000*%
%ADD68R,2.200000X2.600000*%
%ADD69O,2.200000X2.600000*%
G04 APERTURE END LIST*
D10*
X24600000Y600000D02*
X3050000Y600000D01*
X27000000Y3000000D02*
X24600000Y600000D01*
X600000Y64600000D02*
X600000Y17000000D01*
X5400000Y69400000D02*
X600000Y64600000D01*
X54600000Y69400000D02*
X5400000Y69400000D01*
X59400000Y64600000D02*
X54600000Y69400000D01*
X59400000Y22900000D02*
X59400000Y64600000D01*
X59400000Y5400000D02*
X59400000Y15500000D01*
X54600000Y600000D02*
X59400000Y5400000D01*
X29400000Y600000D02*
X54600000Y600000D01*
X27000000Y3000000D02*
X29400000Y600000D01*
D11*
X49815476Y4898810D02*
X51065476Y5196429D01*
X50172619Y5434524D01*
X51065476Y5672620D01*
X49815476Y5970239D01*
X50470238Y6684524D02*
X51065476Y6684524D01*
X49815476Y6267858D02*
X50470238Y6684524D01*
X49815476Y7101191D01*
X49815476Y7755953D02*
X49815476Y7994048D01*
X49875000Y8113096D01*
X49994047Y8232143D01*
X50232142Y8291667D01*
X50648809Y8291667D01*
X50886904Y8232143D01*
X51005952Y8113096D01*
X51065476Y7994048D01*
X51065476Y7755953D01*
X51005952Y7636905D01*
X50886904Y7517858D01*
X50648809Y7458334D01*
X50232142Y7458334D01*
X49994047Y7517858D01*
X49875000Y7636905D01*
X49815476Y7755953D01*
X51065476Y9422620D02*
X51065476Y8827381D01*
X49815476Y8827381D01*
X49815476Y9839286D02*
X50827380Y9839286D01*
X50946428Y9898810D01*
X51005952Y9958334D01*
X51065476Y10077381D01*
X51065476Y10315477D01*
X51005952Y10434524D01*
X50946428Y10494048D01*
X50827380Y10553572D01*
X49815476Y10553572D01*
X51065476Y11148810D02*
X49815476Y11148810D01*
X50708333Y11565477D01*
X49815476Y11982143D01*
X51065476Y11982143D01*
D12*
X55550000Y68450000D03*
X58450000Y68450000D03*
X58450000Y65550000D03*
X55550000Y65550000D03*
X57000000Y64950000D03*
X57000000Y69050000D03*
X54950000Y67000000D03*
X59050000Y67000000D03*
D13*
X57000000Y67000000D03*
D12*
X1550000Y68450000D03*
X4450000Y68450000D03*
X4450000Y65550000D03*
X1550000Y65550000D03*
X3000000Y64950000D03*
X3000000Y69050000D03*
X950000Y67000000D03*
X5050000Y67000000D03*
D13*
X3000000Y67000000D03*
D12*
X55550000Y4450000D03*
X58450000Y4450000D03*
X58450000Y1550000D03*
X55550000Y1550000D03*
X57000000Y950000D03*
X57000000Y5050000D03*
X54950000Y3000000D03*
X59050000Y3000000D03*
D13*
X57000000Y3000000D03*
D12*
X25550000Y4450000D03*
X28450000Y4450000D03*
X28450000Y1550000D03*
X25550000Y1550000D03*
X27000000Y950000D03*
X27000000Y5050000D03*
X24950000Y3000000D03*
X29050000Y3000000D03*
D13*
X27000000Y3000000D03*
D14*
X5300000Y23500000D03*
X1900000Y23500000D03*
X5300000Y25000000D03*
X1900000Y25000000D03*
D15*
X53750000Y46480000D03*
D16*
X53750000Y47750000D03*
X53750000Y49020000D03*
D15*
X25800000Y67000000D03*
D16*
X25800000Y65730000D03*
X25800000Y64460000D03*
D17*
X9000000Y25250000D03*
X9650000Y23250000D03*
X8350000Y23250000D03*
D18*
X7000000Y23700000D03*
X7000000Y24800000D03*
D19*
X43200000Y36000000D03*
X44100000Y36000000D03*
X18950000Y23000000D03*
X18050000Y23000000D03*
X49250000Y18270000D03*
X50150000Y18270000D03*
X24550000Y18500000D03*
X25450000Y18500000D03*
X32050000Y18000000D03*
X32950000Y18000000D03*
X32500000Y16500000D03*
X33400000Y16500000D03*
D20*
X14400000Y45950000D03*
X14400000Y46850000D03*
D21*
X40050000Y5000000D03*
X33950000Y5000000D03*
X24950000Y51200000D03*
X31050000Y51200000D03*
D22*
X47000000Y46000000D03*
X47000000Y54000000D03*
X18400000Y67000000D03*
X18400000Y59000000D03*
X47000000Y67000000D03*
X47000000Y59000000D03*
D23*
X43050000Y40850000D03*
X43050000Y42850000D03*
D24*
X23100000Y37000000D03*
X23100000Y36000000D03*
X23100000Y35000000D03*
X23100000Y34000000D03*
X23100000Y33000000D03*
X23100000Y32000000D03*
X23100000Y31000000D03*
X23100000Y30000000D03*
X23100000Y29000000D03*
X23100000Y28000000D03*
X23100000Y27000000D03*
X23100000Y26000000D03*
X23100000Y25000000D03*
X23100000Y24000000D03*
X23100000Y23000000D03*
D25*
X25500000Y20750000D03*
X26500000Y20750000D03*
X27500000Y20750000D03*
X28500000Y20750000D03*
X29500000Y20750000D03*
X30500000Y20750000D03*
X31500000Y20750000D03*
X32500000Y20750000D03*
X33500000Y20750000D03*
X34500000Y20750000D03*
X35500000Y20750000D03*
X36500000Y20750000D03*
D24*
X38900000Y23000000D03*
X38900000Y24000000D03*
X38900000Y25000000D03*
X38900000Y26000000D03*
X38900000Y27000000D03*
X38900000Y28000000D03*
X38900000Y29000000D03*
X38900000Y30000000D03*
X38900000Y31000000D03*
X38900000Y32000000D03*
X38900000Y33000000D03*
X38900000Y34000000D03*
X38900000Y35000000D03*
X38900000Y36000000D03*
X38900000Y37000000D03*
D25*
X36500000Y39250000D03*
X35500000Y39250000D03*
X34500000Y39250000D03*
X33500000Y39250000D03*
X32500000Y39250000D03*
X31500000Y39250000D03*
X30500000Y39250000D03*
X29500000Y39250000D03*
X28500000Y39250000D03*
X27500000Y39250000D03*
X26500000Y39250000D03*
X25500000Y39250000D03*
D26*
X34600000Y32700000D03*
X34600000Y30900000D03*
X34600000Y27300000D03*
X34600000Y29100000D03*
X32800000Y25500000D03*
X31000000Y25500000D03*
X29200000Y25500000D03*
X27400000Y27300000D03*
X27400000Y29100000D03*
X27400000Y30900000D03*
X27400000Y32700000D03*
X29200000Y34500000D03*
X31000000Y34500000D03*
X32800000Y34500000D03*
D27*
X57600000Y16700000D03*
X57600000Y21700000D03*
D28*
X56075000Y18275000D03*
D29*
X3000000Y61540000D03*
X3000000Y59000000D03*
D30*
X3000000Y56460000D03*
D31*
X19650000Y14650000D03*
X18550000Y14650000D03*
D32*
G36*
X48425782Y17319470D02*
G01*
X48436460Y17317886D01*
X48446931Y17315263D01*
X48457095Y17311627D01*
X48466854Y17307011D01*
X48476113Y17301462D01*
X48484783Y17295031D01*
X48492782Y17287782D01*
X48500031Y17279783D01*
X48506462Y17271113D01*
X48512011Y17261854D01*
X48516627Y17252095D01*
X48520263Y17241931D01*
X48522886Y17231460D01*
X48524470Y17220782D01*
X48525000Y17210000D01*
X48525000Y16330000D01*
X48524470Y16319218D01*
X48522886Y16308540D01*
X48520263Y16298069D01*
X48516627Y16287905D01*
X48512011Y16278146D01*
X48506462Y16268887D01*
X48500031Y16260217D01*
X48492782Y16252218D01*
X48484783Y16244969D01*
X48476113Y16238538D01*
X48466854Y16232989D01*
X48457095Y16228373D01*
X48446931Y16224737D01*
X48436460Y16222114D01*
X48425782Y16220530D01*
X48415000Y16220000D01*
X47485000Y16220000D01*
X47474218Y16220530D01*
X47463540Y16222114D01*
X47453069Y16224737D01*
X47442905Y16228373D01*
X47433146Y16232989D01*
X47423887Y16238538D01*
X47415217Y16244969D01*
X47407218Y16252218D01*
X47399969Y16260217D01*
X47393538Y16268887D01*
X47387989Y16278146D01*
X47383373Y16287905D01*
X47379737Y16298069D01*
X47377114Y16308540D01*
X47375530Y16319218D01*
X47375000Y16330000D01*
X47375000Y17210000D01*
X47375530Y17220782D01*
X47377114Y17231460D01*
X47379737Y17241931D01*
X47383373Y17252095D01*
X47387989Y17261854D01*
X47393538Y17271113D01*
X47399969Y17279783D01*
X47407218Y17287782D01*
X47415217Y17295031D01*
X47423887Y17301462D01*
X47433146Y17307011D01*
X47442905Y17311627D01*
X47453069Y17315263D01*
X47463540Y17317886D01*
X47474218Y17319470D01*
X47485000Y17320000D01*
X48415000Y17320000D01*
X48425782Y17319470D01*
X48425782Y17319470D01*
G37*
D33*
X47950000Y16770000D03*
D32*
G36*
X48425782Y18819470D02*
G01*
X48436460Y18817886D01*
X48446931Y18815263D01*
X48457095Y18811627D01*
X48466854Y18807011D01*
X48476113Y18801462D01*
X48484783Y18795031D01*
X48492782Y18787782D01*
X48500031Y18779783D01*
X48506462Y18771113D01*
X48512011Y18761854D01*
X48516627Y18752095D01*
X48520263Y18741931D01*
X48522886Y18731460D01*
X48524470Y18720782D01*
X48525000Y18710000D01*
X48525000Y17830000D01*
X48524470Y17819218D01*
X48522886Y17808540D01*
X48520263Y17798069D01*
X48516627Y17787905D01*
X48512011Y17778146D01*
X48506462Y17768887D01*
X48500031Y17760217D01*
X48492782Y17752218D01*
X48484783Y17744969D01*
X48476113Y17738538D01*
X48466854Y17732989D01*
X48457095Y17728373D01*
X48446931Y17724737D01*
X48436460Y17722114D01*
X48425782Y17720530D01*
X48415000Y17720000D01*
X47485000Y17720000D01*
X47474218Y17720530D01*
X47463540Y17722114D01*
X47453069Y17724737D01*
X47442905Y17728373D01*
X47433146Y17732989D01*
X47423887Y17738538D01*
X47415217Y17744969D01*
X47407218Y17752218D01*
X47399969Y17760217D01*
X47393538Y17768887D01*
X47387989Y17778146D01*
X47383373Y17787905D01*
X47379737Y17798069D01*
X47377114Y17808540D01*
X47375530Y17819218D01*
X47375000Y17830000D01*
X47375000Y18710000D01*
X47375530Y18720782D01*
X47377114Y18731460D01*
X47379737Y18741931D01*
X47383373Y18752095D01*
X47387989Y18761854D01*
X47393538Y18771113D01*
X47399969Y18779783D01*
X47407218Y18787782D01*
X47415217Y18795031D01*
X47423887Y18801462D01*
X47433146Y18807011D01*
X47442905Y18811627D01*
X47453069Y18815263D01*
X47463540Y18817886D01*
X47474218Y18819470D01*
X47485000Y18820000D01*
X48415000Y18820000D01*
X48425782Y18819470D01*
X48425782Y18819470D01*
G37*
D33*
X47950000Y18270000D03*
D32*
G36*
X42475782Y38049470D02*
G01*
X42486460Y38047886D01*
X42496931Y38045263D01*
X42507095Y38041627D01*
X42516854Y38037011D01*
X42526113Y38031462D01*
X42534783Y38025031D01*
X42542782Y38017782D01*
X42550031Y38009783D01*
X42556462Y38001113D01*
X42562011Y37991854D01*
X42566627Y37982095D01*
X42570263Y37971931D01*
X42572886Y37961460D01*
X42574470Y37950782D01*
X42575000Y37940000D01*
X42575000Y37060000D01*
X42574470Y37049218D01*
X42572886Y37038540D01*
X42570263Y37028069D01*
X42566627Y37017905D01*
X42562011Y37008146D01*
X42556462Y36998887D01*
X42550031Y36990217D01*
X42542782Y36982218D01*
X42534783Y36974969D01*
X42526113Y36968538D01*
X42516854Y36962989D01*
X42507095Y36958373D01*
X42496931Y36954737D01*
X42486460Y36952114D01*
X42475782Y36950530D01*
X42465000Y36950000D01*
X41535000Y36950000D01*
X41524218Y36950530D01*
X41513540Y36952114D01*
X41503069Y36954737D01*
X41492905Y36958373D01*
X41483146Y36962989D01*
X41473887Y36968538D01*
X41465217Y36974969D01*
X41457218Y36982218D01*
X41449969Y36990217D01*
X41443538Y36998887D01*
X41437989Y37008146D01*
X41433373Y37017905D01*
X41429737Y37028069D01*
X41427114Y37038540D01*
X41425530Y37049218D01*
X41425000Y37060000D01*
X41425000Y37940000D01*
X41425530Y37950782D01*
X41427114Y37961460D01*
X41429737Y37971931D01*
X41433373Y37982095D01*
X41437989Y37991854D01*
X41443538Y38001113D01*
X41449969Y38009783D01*
X41457218Y38017782D01*
X41465217Y38025031D01*
X41473887Y38031462D01*
X41483146Y38037011D01*
X41492905Y38041627D01*
X41503069Y38045263D01*
X41513540Y38047886D01*
X41524218Y38049470D01*
X41535000Y38050000D01*
X42465000Y38050000D01*
X42475782Y38049470D01*
X42475782Y38049470D01*
G37*
D33*
X42000000Y37500000D03*
D32*
G36*
X42475782Y36549470D02*
G01*
X42486460Y36547886D01*
X42496931Y36545263D01*
X42507095Y36541627D01*
X42516854Y36537011D01*
X42526113Y36531462D01*
X42534783Y36525031D01*
X42542782Y36517782D01*
X42550031Y36509783D01*
X42556462Y36501113D01*
X42562011Y36491854D01*
X42566627Y36482095D01*
X42570263Y36471931D01*
X42572886Y36461460D01*
X42574470Y36450782D01*
X42575000Y36440000D01*
X42575000Y35560000D01*
X42574470Y35549218D01*
X42572886Y35538540D01*
X42570263Y35528069D01*
X42566627Y35517905D01*
X42562011Y35508146D01*
X42556462Y35498887D01*
X42550031Y35490217D01*
X42542782Y35482218D01*
X42534783Y35474969D01*
X42526113Y35468538D01*
X42516854Y35462989D01*
X42507095Y35458373D01*
X42496931Y35454737D01*
X42486460Y35452114D01*
X42475782Y35450530D01*
X42465000Y35450000D01*
X41535000Y35450000D01*
X41524218Y35450530D01*
X41513540Y35452114D01*
X41503069Y35454737D01*
X41492905Y35458373D01*
X41483146Y35462989D01*
X41473887Y35468538D01*
X41465217Y35474969D01*
X41457218Y35482218D01*
X41449969Y35490217D01*
X41443538Y35498887D01*
X41437989Y35508146D01*
X41433373Y35517905D01*
X41429737Y35528069D01*
X41427114Y35538540D01*
X41425530Y35549218D01*
X41425000Y35560000D01*
X41425000Y36440000D01*
X41425530Y36450782D01*
X41427114Y36461460D01*
X41429737Y36471931D01*
X41433373Y36482095D01*
X41437989Y36491854D01*
X41443538Y36501113D01*
X41449969Y36509783D01*
X41457218Y36517782D01*
X41465217Y36525031D01*
X41473887Y36531462D01*
X41483146Y36537011D01*
X41492905Y36541627D01*
X41503069Y36545263D01*
X41513540Y36547886D01*
X41524218Y36549470D01*
X41535000Y36550000D01*
X42465000Y36550000D01*
X42475782Y36549470D01*
X42475782Y36549470D01*
G37*
D33*
X42000000Y36000000D03*
D32*
G36*
X45725782Y38049470D02*
G01*
X45736460Y38047886D01*
X45746931Y38045263D01*
X45757095Y38041627D01*
X45766854Y38037011D01*
X45776113Y38031462D01*
X45784783Y38025031D01*
X45792782Y38017782D01*
X45800031Y38009783D01*
X45806462Y38001113D01*
X45812011Y37991854D01*
X45816627Y37982095D01*
X45820263Y37971931D01*
X45822886Y37961460D01*
X45824470Y37950782D01*
X45825000Y37940000D01*
X45825000Y37060000D01*
X45824470Y37049218D01*
X45822886Y37038540D01*
X45820263Y37028069D01*
X45816627Y37017905D01*
X45812011Y37008146D01*
X45806462Y36998887D01*
X45800031Y36990217D01*
X45792782Y36982218D01*
X45784783Y36974969D01*
X45776113Y36968538D01*
X45766854Y36962989D01*
X45757095Y36958373D01*
X45746931Y36954737D01*
X45736460Y36952114D01*
X45725782Y36950530D01*
X45715000Y36950000D01*
X44785000Y36950000D01*
X44774218Y36950530D01*
X44763540Y36952114D01*
X44753069Y36954737D01*
X44742905Y36958373D01*
X44733146Y36962989D01*
X44723887Y36968538D01*
X44715217Y36974969D01*
X44707218Y36982218D01*
X44699969Y36990217D01*
X44693538Y36998887D01*
X44687989Y37008146D01*
X44683373Y37017905D01*
X44679737Y37028069D01*
X44677114Y37038540D01*
X44675530Y37049218D01*
X44675000Y37060000D01*
X44675000Y37940000D01*
X44675530Y37950782D01*
X44677114Y37961460D01*
X44679737Y37971931D01*
X44683373Y37982095D01*
X44687989Y37991854D01*
X44693538Y38001113D01*
X44699969Y38009783D01*
X44707218Y38017782D01*
X44715217Y38025031D01*
X44723887Y38031462D01*
X44733146Y38037011D01*
X44742905Y38041627D01*
X44753069Y38045263D01*
X44763540Y38047886D01*
X44774218Y38049470D01*
X44785000Y38050000D01*
X45715000Y38050000D01*
X45725782Y38049470D01*
X45725782Y38049470D01*
G37*
D33*
X45250000Y37500000D03*
D32*
G36*
X45725782Y36549470D02*
G01*
X45736460Y36547886D01*
X45746931Y36545263D01*
X45757095Y36541627D01*
X45766854Y36537011D01*
X45776113Y36531462D01*
X45784783Y36525031D01*
X45792782Y36517782D01*
X45800031Y36509783D01*
X45806462Y36501113D01*
X45812011Y36491854D01*
X45816627Y36482095D01*
X45820263Y36471931D01*
X45822886Y36461460D01*
X45824470Y36450782D01*
X45825000Y36440000D01*
X45825000Y35560000D01*
X45824470Y35549218D01*
X45822886Y35538540D01*
X45820263Y35528069D01*
X45816627Y35517905D01*
X45812011Y35508146D01*
X45806462Y35498887D01*
X45800031Y35490217D01*
X45792782Y35482218D01*
X45784783Y35474969D01*
X45776113Y35468538D01*
X45766854Y35462989D01*
X45757095Y35458373D01*
X45746931Y35454737D01*
X45736460Y35452114D01*
X45725782Y35450530D01*
X45715000Y35450000D01*
X44785000Y35450000D01*
X44774218Y35450530D01*
X44763540Y35452114D01*
X44753069Y35454737D01*
X44742905Y35458373D01*
X44733146Y35462989D01*
X44723887Y35468538D01*
X44715217Y35474969D01*
X44707218Y35482218D01*
X44699969Y35490217D01*
X44693538Y35498887D01*
X44687989Y35508146D01*
X44683373Y35517905D01*
X44679737Y35528069D01*
X44677114Y35538540D01*
X44675530Y35549218D01*
X44675000Y35560000D01*
X44675000Y36440000D01*
X44675530Y36450782D01*
X44677114Y36461460D01*
X44679737Y36471931D01*
X44683373Y36482095D01*
X44687989Y36491854D01*
X44693538Y36501113D01*
X44699969Y36509783D01*
X44707218Y36517782D01*
X44715217Y36525031D01*
X44723887Y36531462D01*
X44733146Y36537011D01*
X44742905Y36541627D01*
X44753069Y36545263D01*
X44763540Y36547886D01*
X44774218Y36549470D01*
X44785000Y36550000D01*
X45715000Y36550000D01*
X45725782Y36549470D01*
X45725782Y36549470D01*
G37*
D33*
X45250000Y36000000D03*
D32*
G36*
X20575782Y25049470D02*
G01*
X20586460Y25047886D01*
X20596931Y25045263D01*
X20607095Y25041627D01*
X20616854Y25037011D01*
X20626113Y25031462D01*
X20634783Y25025031D01*
X20642782Y25017782D01*
X20650031Y25009783D01*
X20656462Y25001113D01*
X20662011Y24991854D01*
X20666627Y24982095D01*
X20670263Y24971931D01*
X20672886Y24961460D01*
X20674470Y24950782D01*
X20675000Y24940000D01*
X20675000Y24060000D01*
X20674470Y24049218D01*
X20672886Y24038540D01*
X20670263Y24028069D01*
X20666627Y24017905D01*
X20662011Y24008146D01*
X20656462Y23998887D01*
X20650031Y23990217D01*
X20642782Y23982218D01*
X20634783Y23974969D01*
X20626113Y23968538D01*
X20616854Y23962989D01*
X20607095Y23958373D01*
X20596931Y23954737D01*
X20586460Y23952114D01*
X20575782Y23950530D01*
X20565000Y23950000D01*
X19635000Y23950000D01*
X19624218Y23950530D01*
X19613540Y23952114D01*
X19603069Y23954737D01*
X19592905Y23958373D01*
X19583146Y23962989D01*
X19573887Y23968538D01*
X19565217Y23974969D01*
X19557218Y23982218D01*
X19549969Y23990217D01*
X19543538Y23998887D01*
X19537989Y24008146D01*
X19533373Y24017905D01*
X19529737Y24028069D01*
X19527114Y24038540D01*
X19525530Y24049218D01*
X19525000Y24060000D01*
X19525000Y24940000D01*
X19525530Y24950782D01*
X19527114Y24961460D01*
X19529737Y24971931D01*
X19533373Y24982095D01*
X19537989Y24991854D01*
X19543538Y25001113D01*
X19549969Y25009783D01*
X19557218Y25017782D01*
X19565217Y25025031D01*
X19573887Y25031462D01*
X19583146Y25037011D01*
X19592905Y25041627D01*
X19603069Y25045263D01*
X19613540Y25047886D01*
X19624218Y25049470D01*
X19635000Y25050000D01*
X20565000Y25050000D01*
X20575782Y25049470D01*
X20575782Y25049470D01*
G37*
D33*
X20100000Y24500000D03*
D32*
G36*
X20575782Y23549470D02*
G01*
X20586460Y23547886D01*
X20596931Y23545263D01*
X20607095Y23541627D01*
X20616854Y23537011D01*
X20626113Y23531462D01*
X20634783Y23525031D01*
X20642782Y23517782D01*
X20650031Y23509783D01*
X20656462Y23501113D01*
X20662011Y23491854D01*
X20666627Y23482095D01*
X20670263Y23471931D01*
X20672886Y23461460D01*
X20674470Y23450782D01*
X20675000Y23440000D01*
X20675000Y22560000D01*
X20674470Y22549218D01*
X20672886Y22538540D01*
X20670263Y22528069D01*
X20666627Y22517905D01*
X20662011Y22508146D01*
X20656462Y22498887D01*
X20650031Y22490217D01*
X20642782Y22482218D01*
X20634783Y22474969D01*
X20626113Y22468538D01*
X20616854Y22462989D01*
X20607095Y22458373D01*
X20596931Y22454737D01*
X20586460Y22452114D01*
X20575782Y22450530D01*
X20565000Y22450000D01*
X19635000Y22450000D01*
X19624218Y22450530D01*
X19613540Y22452114D01*
X19603069Y22454737D01*
X19592905Y22458373D01*
X19583146Y22462989D01*
X19573887Y22468538D01*
X19565217Y22474969D01*
X19557218Y22482218D01*
X19549969Y22490217D01*
X19543538Y22498887D01*
X19537989Y22508146D01*
X19533373Y22517905D01*
X19529737Y22528069D01*
X19527114Y22538540D01*
X19525530Y22549218D01*
X19525000Y22560000D01*
X19525000Y23440000D01*
X19525530Y23450782D01*
X19527114Y23461460D01*
X19529737Y23471931D01*
X19533373Y23482095D01*
X19537989Y23491854D01*
X19543538Y23501113D01*
X19549969Y23509783D01*
X19557218Y23517782D01*
X19565217Y23525031D01*
X19573887Y23531462D01*
X19583146Y23537011D01*
X19592905Y23541627D01*
X19603069Y23545263D01*
X19613540Y23547886D01*
X19624218Y23549470D01*
X19635000Y23550000D01*
X20565000Y23550000D01*
X20575782Y23549470D01*
X20575782Y23549470D01*
G37*
D33*
X20100000Y23000000D03*
D32*
G36*
X17225782Y25049470D02*
G01*
X17236460Y25047886D01*
X17246931Y25045263D01*
X17257095Y25041627D01*
X17266854Y25037011D01*
X17276113Y25031462D01*
X17284783Y25025031D01*
X17292782Y25017782D01*
X17300031Y25009783D01*
X17306462Y25001113D01*
X17312011Y24991854D01*
X17316627Y24982095D01*
X17320263Y24971931D01*
X17322886Y24961460D01*
X17324470Y24950782D01*
X17325000Y24940000D01*
X17325000Y24060000D01*
X17324470Y24049218D01*
X17322886Y24038540D01*
X17320263Y24028069D01*
X17316627Y24017905D01*
X17312011Y24008146D01*
X17306462Y23998887D01*
X17300031Y23990217D01*
X17292782Y23982218D01*
X17284783Y23974969D01*
X17276113Y23968538D01*
X17266854Y23962989D01*
X17257095Y23958373D01*
X17246931Y23954737D01*
X17236460Y23952114D01*
X17225782Y23950530D01*
X17215000Y23950000D01*
X16285000Y23950000D01*
X16274218Y23950530D01*
X16263540Y23952114D01*
X16253069Y23954737D01*
X16242905Y23958373D01*
X16233146Y23962989D01*
X16223887Y23968538D01*
X16215217Y23974969D01*
X16207218Y23982218D01*
X16199969Y23990217D01*
X16193538Y23998887D01*
X16187989Y24008146D01*
X16183373Y24017905D01*
X16179737Y24028069D01*
X16177114Y24038540D01*
X16175530Y24049218D01*
X16175000Y24060000D01*
X16175000Y24940000D01*
X16175530Y24950782D01*
X16177114Y24961460D01*
X16179737Y24971931D01*
X16183373Y24982095D01*
X16187989Y24991854D01*
X16193538Y25001113D01*
X16199969Y25009783D01*
X16207218Y25017782D01*
X16215217Y25025031D01*
X16223887Y25031462D01*
X16233146Y25037011D01*
X16242905Y25041627D01*
X16253069Y25045263D01*
X16263540Y25047886D01*
X16274218Y25049470D01*
X16285000Y25050000D01*
X17215000Y25050000D01*
X17225782Y25049470D01*
X17225782Y25049470D01*
G37*
D33*
X16750000Y24500000D03*
D32*
G36*
X17225782Y23549470D02*
G01*
X17236460Y23547886D01*
X17246931Y23545263D01*
X17257095Y23541627D01*
X17266854Y23537011D01*
X17276113Y23531462D01*
X17284783Y23525031D01*
X17292782Y23517782D01*
X17300031Y23509783D01*
X17306462Y23501113D01*
X17312011Y23491854D01*
X17316627Y23482095D01*
X17320263Y23471931D01*
X17322886Y23461460D01*
X17324470Y23450782D01*
X17325000Y23440000D01*
X17325000Y22560000D01*
X17324470Y22549218D01*
X17322886Y22538540D01*
X17320263Y22528069D01*
X17316627Y22517905D01*
X17312011Y22508146D01*
X17306462Y22498887D01*
X17300031Y22490217D01*
X17292782Y22482218D01*
X17284783Y22474969D01*
X17276113Y22468538D01*
X17266854Y22462989D01*
X17257095Y22458373D01*
X17246931Y22454737D01*
X17236460Y22452114D01*
X17225782Y22450530D01*
X17215000Y22450000D01*
X16285000Y22450000D01*
X16274218Y22450530D01*
X16263540Y22452114D01*
X16253069Y22454737D01*
X16242905Y22458373D01*
X16233146Y22462989D01*
X16223887Y22468538D01*
X16215217Y22474969D01*
X16207218Y22482218D01*
X16199969Y22490217D01*
X16193538Y22498887D01*
X16187989Y22508146D01*
X16183373Y22517905D01*
X16179737Y22528069D01*
X16177114Y22538540D01*
X16175530Y22549218D01*
X16175000Y22560000D01*
X16175000Y23440000D01*
X16175530Y23450782D01*
X16177114Y23461460D01*
X16179737Y23471931D01*
X16183373Y23482095D01*
X16187989Y23491854D01*
X16193538Y23501113D01*
X16199969Y23509783D01*
X16207218Y23517782D01*
X16215217Y23525031D01*
X16223887Y23531462D01*
X16233146Y23537011D01*
X16242905Y23541627D01*
X16253069Y23545263D01*
X16263540Y23547886D01*
X16274218Y23549470D01*
X16285000Y23550000D01*
X17215000Y23550000D01*
X17225782Y23549470D01*
X17225782Y23549470D01*
G37*
D33*
X16750000Y23000000D03*
D32*
G36*
X51925782Y17319470D02*
G01*
X51936460Y17317886D01*
X51946931Y17315263D01*
X51957095Y17311627D01*
X51966854Y17307011D01*
X51976113Y17301462D01*
X51984783Y17295031D01*
X51992782Y17287782D01*
X52000031Y17279783D01*
X52006462Y17271113D01*
X52012011Y17261854D01*
X52016627Y17252095D01*
X52020263Y17241931D01*
X52022886Y17231460D01*
X52024470Y17220782D01*
X52025000Y17210000D01*
X52025000Y16330000D01*
X52024470Y16319218D01*
X52022886Y16308540D01*
X52020263Y16298069D01*
X52016627Y16287905D01*
X52012011Y16278146D01*
X52006462Y16268887D01*
X52000031Y16260217D01*
X51992782Y16252218D01*
X51984783Y16244969D01*
X51976113Y16238538D01*
X51966854Y16232989D01*
X51957095Y16228373D01*
X51946931Y16224737D01*
X51936460Y16222114D01*
X51925782Y16220530D01*
X51915000Y16220000D01*
X50985000Y16220000D01*
X50974218Y16220530D01*
X50963540Y16222114D01*
X50953069Y16224737D01*
X50942905Y16228373D01*
X50933146Y16232989D01*
X50923887Y16238538D01*
X50915217Y16244969D01*
X50907218Y16252218D01*
X50899969Y16260217D01*
X50893538Y16268887D01*
X50887989Y16278146D01*
X50883373Y16287905D01*
X50879737Y16298069D01*
X50877114Y16308540D01*
X50875530Y16319218D01*
X50875000Y16330000D01*
X50875000Y17210000D01*
X50875530Y17220782D01*
X50877114Y17231460D01*
X50879737Y17241931D01*
X50883373Y17252095D01*
X50887989Y17261854D01*
X50893538Y17271113D01*
X50899969Y17279783D01*
X50907218Y17287782D01*
X50915217Y17295031D01*
X50923887Y17301462D01*
X50933146Y17307011D01*
X50942905Y17311627D01*
X50953069Y17315263D01*
X50963540Y17317886D01*
X50974218Y17319470D01*
X50985000Y17320000D01*
X51915000Y17320000D01*
X51925782Y17319470D01*
X51925782Y17319470D01*
G37*
D33*
X51450000Y16770000D03*
D32*
G36*
X51925782Y18819470D02*
G01*
X51936460Y18817886D01*
X51946931Y18815263D01*
X51957095Y18811627D01*
X51966854Y18807011D01*
X51976113Y18801462D01*
X51984783Y18795031D01*
X51992782Y18787782D01*
X52000031Y18779783D01*
X52006462Y18771113D01*
X52012011Y18761854D01*
X52016627Y18752095D01*
X52020263Y18741931D01*
X52022886Y18731460D01*
X52024470Y18720782D01*
X52025000Y18710000D01*
X52025000Y17830000D01*
X52024470Y17819218D01*
X52022886Y17808540D01*
X52020263Y17798069D01*
X52016627Y17787905D01*
X52012011Y17778146D01*
X52006462Y17768887D01*
X52000031Y17760217D01*
X51992782Y17752218D01*
X51984783Y17744969D01*
X51976113Y17738538D01*
X51966854Y17732989D01*
X51957095Y17728373D01*
X51946931Y17724737D01*
X51936460Y17722114D01*
X51925782Y17720530D01*
X51915000Y17720000D01*
X50985000Y17720000D01*
X50974218Y17720530D01*
X50963540Y17722114D01*
X50953069Y17724737D01*
X50942905Y17728373D01*
X50933146Y17732989D01*
X50923887Y17738538D01*
X50915217Y17744969D01*
X50907218Y17752218D01*
X50899969Y17760217D01*
X50893538Y17768887D01*
X50887989Y17778146D01*
X50883373Y17787905D01*
X50879737Y17798069D01*
X50877114Y17808540D01*
X50875530Y17819218D01*
X50875000Y17830000D01*
X50875000Y18710000D01*
X50875530Y18720782D01*
X50877114Y18731460D01*
X50879737Y18741931D01*
X50883373Y18752095D01*
X50887989Y18761854D01*
X50893538Y18771113D01*
X50899969Y18779783D01*
X50907218Y18787782D01*
X50915217Y18795031D01*
X50923887Y18801462D01*
X50933146Y18807011D01*
X50942905Y18811627D01*
X50953069Y18815263D01*
X50963540Y18817886D01*
X50974218Y18819470D01*
X50985000Y18820000D01*
X51915000Y18820000D01*
X51925782Y18819470D01*
X51925782Y18819470D01*
G37*
D33*
X51450000Y18270000D03*
D34*
X16800000Y51800000D03*
X14800000Y51800000D03*
X16800000Y49800000D03*
X14800000Y49800000D03*
D23*
X16000000Y45600000D03*
X16000000Y47600000D03*
D32*
G36*
X37950782Y50574470D02*
G01*
X37961460Y50572886D01*
X37971931Y50570263D01*
X37982095Y50566627D01*
X37991854Y50562011D01*
X38001113Y50556462D01*
X38009783Y50550031D01*
X38017782Y50542782D01*
X38025031Y50534783D01*
X38031462Y50526113D01*
X38037011Y50516854D01*
X38041627Y50507095D01*
X38045263Y50496931D01*
X38047886Y50486460D01*
X38049470Y50475782D01*
X38050000Y50465000D01*
X38050000Y49535000D01*
X38049470Y49524218D01*
X38047886Y49513540D01*
X38045263Y49503069D01*
X38041627Y49492905D01*
X38037011Y49483146D01*
X38031462Y49473887D01*
X38025031Y49465217D01*
X38017782Y49457218D01*
X38009783Y49449969D01*
X38001113Y49443538D01*
X37991854Y49437989D01*
X37982095Y49433373D01*
X37971931Y49429737D01*
X37961460Y49427114D01*
X37950782Y49425530D01*
X37940000Y49425000D01*
X37060000Y49425000D01*
X37049218Y49425530D01*
X37038540Y49427114D01*
X37028069Y49429737D01*
X37017905Y49433373D01*
X37008146Y49437989D01*
X36998887Y49443538D01*
X36990217Y49449969D01*
X36982218Y49457218D01*
X36974969Y49465217D01*
X36968538Y49473887D01*
X36962989Y49483146D01*
X36958373Y49492905D01*
X36954737Y49503069D01*
X36952114Y49513540D01*
X36950530Y49524218D01*
X36950000Y49535000D01*
X36950000Y50465000D01*
X36950530Y50475782D01*
X36952114Y50486460D01*
X36954737Y50496931D01*
X36958373Y50507095D01*
X36962989Y50516854D01*
X36968538Y50526113D01*
X36974969Y50534783D01*
X36982218Y50542782D01*
X36990217Y50550031D01*
X36998887Y50556462D01*
X37008146Y50562011D01*
X37017905Y50566627D01*
X37028069Y50570263D01*
X37038540Y50572886D01*
X37049218Y50574470D01*
X37060000Y50575000D01*
X37940000Y50575000D01*
X37950782Y50574470D01*
X37950782Y50574470D01*
G37*
D33*
X37500000Y50000000D03*
D32*
G36*
X39450782Y50574470D02*
G01*
X39461460Y50572886D01*
X39471931Y50570263D01*
X39482095Y50566627D01*
X39491854Y50562011D01*
X39501113Y50556462D01*
X39509783Y50550031D01*
X39517782Y50542782D01*
X39525031Y50534783D01*
X39531462Y50526113D01*
X39537011Y50516854D01*
X39541627Y50507095D01*
X39545263Y50496931D01*
X39547886Y50486460D01*
X39549470Y50475782D01*
X39550000Y50465000D01*
X39550000Y49535000D01*
X39549470Y49524218D01*
X39547886Y49513540D01*
X39545263Y49503069D01*
X39541627Y49492905D01*
X39537011Y49483146D01*
X39531462Y49473887D01*
X39525031Y49465217D01*
X39517782Y49457218D01*
X39509783Y49449969D01*
X39501113Y49443538D01*
X39491854Y49437989D01*
X39482095Y49433373D01*
X39471931Y49429737D01*
X39461460Y49427114D01*
X39450782Y49425530D01*
X39440000Y49425000D01*
X38560000Y49425000D01*
X38549218Y49425530D01*
X38538540Y49427114D01*
X38528069Y49429737D01*
X38517905Y49433373D01*
X38508146Y49437989D01*
X38498887Y49443538D01*
X38490217Y49449969D01*
X38482218Y49457218D01*
X38474969Y49465217D01*
X38468538Y49473887D01*
X38462989Y49483146D01*
X38458373Y49492905D01*
X38454737Y49503069D01*
X38452114Y49513540D01*
X38450530Y49524218D01*
X38450000Y49535000D01*
X38450000Y50465000D01*
X38450530Y50475782D01*
X38452114Y50486460D01*
X38454737Y50496931D01*
X38458373Y50507095D01*
X38462989Y50516854D01*
X38468538Y50526113D01*
X38474969Y50534783D01*
X38482218Y50542782D01*
X38490217Y50550031D01*
X38498887Y50556462D01*
X38508146Y50562011D01*
X38517905Y50566627D01*
X38528069Y50570263D01*
X38538540Y50572886D01*
X38549218Y50574470D01*
X38560000Y50575000D01*
X39440000Y50575000D01*
X39450782Y50574470D01*
X39450782Y50574470D01*
G37*
D33*
X39000000Y50000000D03*
D34*
X35500000Y14500000D03*
X37500000Y14500000D03*
X35500000Y16500000D03*
X37500000Y16500000D03*
D23*
X26936000Y43700000D03*
X26936000Y45700000D03*
X24000000Y43700000D03*
X24000000Y45700000D03*
D35*
X4000000Y40200000D03*
X4000000Y32200000D03*
D36*
X14500000Y33000000D03*
X14500000Y34100000D03*
X14500000Y35200000D03*
X14500000Y36300000D03*
X14500000Y37400000D03*
X14500000Y38500000D03*
X14500000Y39600000D03*
X14500000Y40700000D03*
X14500000Y41800000D03*
D37*
X13900000Y43000000D03*
D38*
X4400000Y43000000D03*
X4400000Y27500000D03*
D39*
X14000000Y28400000D03*
D40*
X15400000Y5380000D03*
X15400000Y6650000D03*
X15400000Y7920000D03*
X15400000Y11730000D03*
X15400000Y10460000D03*
X15400000Y9190000D03*
D41*
X11230000Y3135000D03*
X13230000Y3135000D03*
X11230000Y15665000D03*
X13230000Y15665000D03*
D42*
X1670000Y3295000D03*
X1670000Y15505000D03*
D43*
X1670000Y11940000D03*
X1670000Y6860000D03*
D44*
X9500000Y49400000D03*
X2500000Y49400000D03*
D45*
X1850000Y52665000D03*
X3750000Y52665000D03*
X6550000Y52665000D03*
X11060000Y46135000D03*
X2610000Y46135000D03*
X5460000Y46135000D03*
X8310000Y46135000D03*
X8900000Y52665000D03*
D46*
X16700000Y28400000D03*
D47*
X17200000Y27640000D03*
X16700000Y27640000D03*
X16200000Y27640000D03*
X16200000Y29160000D03*
X16700000Y29160000D03*
X17200000Y29160000D03*
D48*
X58100000Y53200000D03*
X58100000Y54800000D03*
X28700000Y10000000D03*
X30300000Y10000000D03*
D49*
X21750000Y3000000D03*
D50*
X22510000Y3500000D03*
X22510000Y3000000D03*
X22510000Y2500000D03*
X20990000Y2500000D03*
X20990000Y3000000D03*
X20990000Y3500000D03*
D51*
X21020000Y47400000D03*
X20180000Y47400000D03*
X18420000Y47400000D03*
X17580000Y47400000D03*
D52*
X40700000Y43250000D03*
X36300000Y43250000D03*
D48*
X38700000Y62000000D03*
X38700000Y60400000D03*
D53*
X57290000Y25630000D03*
X54750000Y25630000D03*
X57290000Y28170000D03*
X54750000Y28170000D03*
X57290000Y30710000D03*
X54750000Y30710000D03*
X57290000Y33250000D03*
D54*
X54750000Y33250000D03*
D17*
X54000000Y55000000D03*
X54650000Y53000000D03*
X53350000Y53000000D03*
X29500000Y13500000D03*
X28850000Y15500000D03*
X30150000Y15500000D03*
D55*
X26594000Y61654000D03*
X24594000Y61004000D03*
X24594000Y62304000D03*
D56*
X16050000Y41800000D03*
X17550000Y41800000D03*
X19850000Y6500000D03*
X18350000Y6500000D03*
X19850000Y8050000D03*
X18350000Y8050000D03*
X19850000Y13450000D03*
X18350000Y13450000D03*
D57*
X56300000Y55000000D03*
X56300000Y53500000D03*
D56*
X30250000Y12000000D03*
X28750000Y12000000D03*
X19850000Y10750000D03*
X18350000Y10750000D03*
D57*
X47750000Y22250000D03*
X47750000Y23750000D03*
X26610000Y59500000D03*
X26610000Y58000000D03*
X37200000Y58950000D03*
X37200000Y57450000D03*
X38699999Y58950000D03*
X38699999Y57450000D03*
X37200000Y61450000D03*
X37200000Y59950000D03*
X39000000Y11700000D03*
X39000000Y10200000D03*
D58*
X51300000Y30925000D03*
X51300000Y30275000D03*
X51300000Y29625000D03*
X51300000Y28975000D03*
X51300000Y28325000D03*
X51300000Y27675000D03*
X51300000Y27025000D03*
X51300000Y26375000D03*
X51300000Y25725000D03*
X51300000Y25075000D03*
X45700000Y25075000D03*
X45700000Y25725000D03*
X45700000Y26375000D03*
X45700000Y27025000D03*
X45700000Y27675000D03*
X45700000Y28325000D03*
X45700000Y28975000D03*
X45700000Y29625000D03*
X45700000Y30275000D03*
X45700000Y30925000D03*
D59*
X32000000Y65875000D03*
D60*
X34540000Y59200000D03*
X33270000Y59200000D03*
X32000000Y59200000D03*
X30730000Y59200000D03*
X29460000Y59200000D03*
D61*
X35500000Y12800000D03*
X37400000Y12800000D03*
X37400000Y10200000D03*
X36450000Y10200000D03*
X35500000Y10200000D03*
D62*
X28684000Y43700000D03*
X28684000Y45600000D03*
X31284000Y45600000D03*
X31284000Y44650000D03*
X31284000Y43700000D03*
D31*
X19650000Y12250000D03*
X18550000Y12250000D03*
X19650000Y9300000D03*
X18550000Y9300000D03*
X18550000Y4650000D03*
X19650000Y4650000D03*
X21150000Y46400000D03*
X20050000Y46400000D03*
X21150000Y45400000D03*
X20050000Y45400000D03*
D18*
X46250000Y23800000D03*
X46250000Y22700000D03*
X49250000Y23800000D03*
X49250000Y22700000D03*
X18000000Y37200000D03*
X18000000Y38300000D03*
X19000000Y37200000D03*
X19000000Y38300000D03*
X19900000Y35950000D03*
X19900000Y37050000D03*
X20800000Y35950000D03*
X20800000Y37050000D03*
D31*
X18550000Y46400000D03*
X17450000Y46400000D03*
X18550000Y45400000D03*
X17450000Y45400000D03*
D18*
X18000000Y34700000D03*
X18000000Y35800000D03*
X19000000Y34700000D03*
X19000000Y35800000D03*
X24750000Y58200000D03*
X24750000Y59300000D03*
D31*
X37500000Y48500000D03*
X38600000Y48500000D03*
X37500000Y47000000D03*
X38600000Y47000000D03*
X37500000Y45500000D03*
X38600000Y45500000D03*
D18*
X33500000Y11200000D03*
X33500000Y12300000D03*
D31*
X35500000Y18000000D03*
X36600000Y18000000D03*
D18*
X32750000Y43700000D03*
X32750000Y44800000D03*
X25500000Y43700000D03*
X25500000Y44800000D03*
D32*
G36*
X47384306Y36698315D02*
G01*
X47418282Y36693275D01*
X47451600Y36684929D01*
X47483939Y36673358D01*
X47514989Y36658672D01*
X47544450Y36641014D01*
X47572038Y36620554D01*
X47597487Y36597487D01*
X47620554Y36572038D01*
X47641014Y36544450D01*
X47658672Y36514989D01*
X47673358Y36483939D01*
X47684929Y36451600D01*
X47693275Y36418282D01*
X47698315Y36384306D01*
X47700000Y36350000D01*
X47700000Y35650000D01*
X47698315Y35615694D01*
X47693275Y35581718D01*
X47684929Y35548400D01*
X47673358Y35516061D01*
X47658672Y35485011D01*
X47641014Y35455550D01*
X47620554Y35427962D01*
X47597487Y35402513D01*
X47572038Y35379446D01*
X47544450Y35358986D01*
X47514989Y35341328D01*
X47483939Y35326642D01*
X47451600Y35315071D01*
X47418282Y35306725D01*
X47384306Y35301685D01*
X47350000Y35300000D01*
X46650000Y35300000D01*
X46615694Y35301685D01*
X46581718Y35306725D01*
X46548400Y35315071D01*
X46516061Y35326642D01*
X46485011Y35341328D01*
X46455550Y35358986D01*
X46427962Y35379446D01*
X46402513Y35402513D01*
X46379446Y35427962D01*
X46358986Y35455550D01*
X46341328Y35485011D01*
X46326642Y35516061D01*
X46315071Y35548400D01*
X46306725Y35581718D01*
X46301685Y35615694D01*
X46300000Y35650000D01*
X46300000Y36350000D01*
X46301685Y36384306D01*
X46306725Y36418282D01*
X46315071Y36451600D01*
X46326642Y36483939D01*
X46341328Y36514989D01*
X46358986Y36544450D01*
X46379446Y36572038D01*
X46402513Y36597487D01*
X46427962Y36620554D01*
X46455550Y36641014D01*
X46485011Y36658672D01*
X46516061Y36673358D01*
X46548400Y36684929D01*
X46581718Y36693275D01*
X46615694Y36698315D01*
X46650000Y36700000D01*
X47350000Y36700000D01*
X47384306Y36698315D01*
X47384306Y36698315D01*
G37*
D63*
X47000000Y36000000D03*
D64*
X50000000Y36000000D03*
D65*
X48500000Y34525000D03*
X48500000Y37475000D03*
D32*
G36*
X15384306Y23698315D02*
G01*
X15418282Y23693275D01*
X15451600Y23684929D01*
X15483939Y23673358D01*
X15514989Y23658672D01*
X15544450Y23641014D01*
X15572038Y23620554D01*
X15597487Y23597487D01*
X15620554Y23572038D01*
X15641014Y23544450D01*
X15658672Y23514989D01*
X15673358Y23483939D01*
X15684929Y23451600D01*
X15693275Y23418282D01*
X15698315Y23384306D01*
X15700000Y23350000D01*
X15700000Y22650000D01*
X15698315Y22615694D01*
X15693275Y22581718D01*
X15684929Y22548400D01*
X15673358Y22516061D01*
X15658672Y22485011D01*
X15641014Y22455550D01*
X15620554Y22427962D01*
X15597487Y22402513D01*
X15572038Y22379446D01*
X15544450Y22358986D01*
X15514989Y22341328D01*
X15483939Y22326642D01*
X15451600Y22315071D01*
X15418282Y22306725D01*
X15384306Y22301685D01*
X15350000Y22300000D01*
X14650000Y22300000D01*
X14615694Y22301685D01*
X14581718Y22306725D01*
X14548400Y22315071D01*
X14516061Y22326642D01*
X14485011Y22341328D01*
X14455550Y22358986D01*
X14427962Y22379446D01*
X14402513Y22402513D01*
X14379446Y22427962D01*
X14358986Y22455550D01*
X14341328Y22485011D01*
X14326642Y22516061D01*
X14315071Y22548400D01*
X14306725Y22581718D01*
X14301685Y22615694D01*
X14300000Y22650000D01*
X14300000Y23350000D01*
X14301685Y23384306D01*
X14306725Y23418282D01*
X14315071Y23451600D01*
X14326642Y23483939D01*
X14341328Y23514989D01*
X14358986Y23544450D01*
X14379446Y23572038D01*
X14402513Y23597487D01*
X14427962Y23620554D01*
X14455550Y23641014D01*
X14485011Y23658672D01*
X14516061Y23673358D01*
X14548400Y23684929D01*
X14581718Y23693275D01*
X14615694Y23698315D01*
X14650000Y23700000D01*
X15350000Y23700000D01*
X15384306Y23698315D01*
X15384306Y23698315D01*
G37*
D63*
X15000000Y23000000D03*
D15*
X12000000Y23000000D03*
D66*
X13500000Y24475000D03*
X13500000Y21525000D03*
D67*
X8330000Y63540000D03*
X10870000Y63540000D03*
D68*
X10870000Y61000000D03*
D69*
X8330000Y61000000D03*
D29*
X57000000Y44960000D03*
X57000000Y47500000D03*
D30*
X57000000Y50040000D03*
X45500000Y2500000D03*
D29*
X45500000Y5040000D03*
X45500000Y7580000D03*
X45500000Y10120000D03*
D19*
X20950000Y44250000D03*
X20050000Y44250000D03*
M02*
