G04 #@! TF.GenerationSoftware,KiCad,Pcbnew,5.1.2-f72e74a~84~ubuntu18.04.1*
G04 #@! TF.CreationDate,2019-06-22T18:56:12+05:30*
G04 #@! TF.ProjectId,mc60,6d633630-2e6b-4696-9361-645f70636258,rev?*
G04 #@! TF.SameCoordinates,PX41cdb40PY7bfa480*
G04 #@! TF.FileFunction,Legend,Bot*
G04 #@! TF.FilePolarity,Positive*
%FSLAX46Y46*%
G04 Gerber Fmt 4.6, Leading zero omitted, Abs format (unit mm)*
G04 Created by KiCad (PCBNEW 5.1.2-f72e74a~84~ubuntu18.04.1) date 2019-06-22 18:56:12*
%MOMM*%
%LPD*%
G04 APERTURE LIST*
%ADD10C,0.100000*%
%ADD11C,0.120000*%
%ADD12C,0.010000*%
%ADD13C,0.075000*%
%ADD14C,0.150000*%
%ADD15C,0.700000*%
%ADD16C,0.002540*%
%ADD17C,1.150000*%
%ADD18C,5.600000*%
%ADD19R,1.400000X1.400000*%
%ADD20O,1.400000X1.400000*%
%ADD21R,2.400000X2.400000*%
%ADD22O,2.432000X2.127200*%
%ADD23R,2.432000X2.127200*%
%ADD24C,1.250000*%
%ADD25C,2.400000*%
%ADD26O,2.127200X2.127200*%
%ADD27R,2.127200X2.127200*%
%ADD28C,1.500000*%
%ADD29R,2.200000X2.600000*%
%ADD30O,2.200000X2.600000*%
G04 APERTURE END LIST*
D10*
X53766666Y33866667D02*
X53433333Y34100000D01*
X53766666Y34266667D02*
X53066666Y34266667D01*
X53066666Y34000000D01*
X53100000Y33933334D01*
X53133333Y33900000D01*
X53200000Y33866667D01*
X53300000Y33866667D01*
X53366666Y33900000D01*
X53400000Y33933334D01*
X53433333Y34000000D01*
X53433333Y34266667D01*
X53066666Y33666667D02*
X53066666Y33266667D01*
X53766666Y33466667D02*
X53066666Y33466667D01*
X53733333Y33066667D02*
X53766666Y32966667D01*
X53766666Y32800000D01*
X53733333Y32733334D01*
X53700000Y32700000D01*
X53633333Y32666667D01*
X53566666Y32666667D01*
X53500000Y32700000D01*
X53466666Y32733334D01*
X53433333Y32800000D01*
X53400000Y32933334D01*
X53366666Y33000000D01*
X53333333Y33033334D01*
X53266666Y33066667D01*
X53200000Y33066667D01*
X53133333Y33033334D01*
X53100000Y33000000D01*
X53066666Y32933334D01*
X53066666Y32766667D01*
X53100000Y32666667D01*
X54000000Y32200000D02*
X53000000Y32200000D01*
X53766666Y31700000D02*
X53066666Y31700000D01*
X53066666Y31533334D01*
X53100000Y31433334D01*
X53166666Y31366667D01*
X53233333Y31333334D01*
X53366666Y31300000D01*
X53466666Y31300000D01*
X53600000Y31333334D01*
X53666666Y31366667D01*
X53733333Y31433334D01*
X53766666Y31533334D01*
X53766666Y31700000D01*
X53066666Y31100000D02*
X53066666Y30700000D01*
X53766666Y30900000D02*
X53066666Y30900000D01*
X53766666Y30066667D02*
X53433333Y30300000D01*
X53766666Y30466667D02*
X53066666Y30466667D01*
X53066666Y30200000D01*
X53100000Y30133334D01*
X53133333Y30100000D01*
X53200000Y30066667D01*
X53300000Y30066667D01*
X53366666Y30100000D01*
X53400000Y30133334D01*
X53433333Y30200000D01*
X53433333Y30466667D01*
X54000000Y29600000D02*
X53000000Y29600000D01*
X53766666Y28700000D02*
X53433333Y28933334D01*
X53766666Y29100000D02*
X53066666Y29100000D01*
X53066666Y28833334D01*
X53100000Y28766667D01*
X53133333Y28733334D01*
X53200000Y28700000D01*
X53300000Y28700000D01*
X53366666Y28733334D01*
X53400000Y28766667D01*
X53433333Y28833334D01*
X53433333Y29100000D01*
X53766666Y28400000D02*
X53066666Y28400000D01*
X53766666Y28000000D01*
X53066666Y28000000D01*
X53100000Y27300000D02*
X53066666Y27366667D01*
X53066666Y27466667D01*
X53100000Y27566667D01*
X53166666Y27633334D01*
X53233333Y27666667D01*
X53366666Y27700000D01*
X53466666Y27700000D01*
X53600000Y27666667D01*
X53666666Y27633334D01*
X53733333Y27566667D01*
X53766666Y27466667D01*
X53766666Y27400000D01*
X53733333Y27300000D01*
X53700000Y27266667D01*
X53466666Y27266667D01*
X53466666Y27400000D01*
X54000000Y26800000D02*
X53000000Y26800000D01*
X53066666Y26400000D02*
X53066666Y26000000D01*
X53766666Y26200000D02*
X53066666Y26200000D01*
X53066666Y25833334D02*
X53766666Y25366667D01*
X53066666Y25366667D02*
X53766666Y25833334D01*
X53766666Y25100000D02*
X53066666Y25100000D01*
X53066666Y24933334D01*
X53100000Y24833334D01*
X53166666Y24766667D01*
X53233333Y24733334D01*
X53366666Y24700000D01*
X53466666Y24700000D01*
X53600000Y24733334D01*
X53666666Y24766667D01*
X53733333Y24833334D01*
X53766666Y24933334D01*
X53766666Y25100000D01*
X58900000Y33900000D02*
X58933333Y33933334D01*
X58966666Y34033334D01*
X58966666Y34100000D01*
X58933333Y34200000D01*
X58866666Y34266667D01*
X58800000Y34300000D01*
X58666666Y34333334D01*
X58566666Y34333334D01*
X58433333Y34300000D01*
X58366666Y34266667D01*
X58300000Y34200000D01*
X58266666Y34100000D01*
X58266666Y34033334D01*
X58300000Y33933334D01*
X58333333Y33900000D01*
X58266666Y33700000D02*
X58266666Y33300000D01*
X58966666Y33500000D02*
X58266666Y33500000D01*
X58933333Y33100000D02*
X58966666Y33000000D01*
X58966666Y32833334D01*
X58933333Y32766667D01*
X58900000Y32733334D01*
X58833333Y32700000D01*
X58766666Y32700000D01*
X58700000Y32733334D01*
X58666666Y32766667D01*
X58633333Y32833334D01*
X58600000Y32966667D01*
X58566666Y33033334D01*
X58533333Y33066667D01*
X58466666Y33100000D01*
X58400000Y33100000D01*
X58333333Y33066667D01*
X58300000Y33033334D01*
X58266666Y32966667D01*
X58266666Y32800000D01*
X58300000Y32700000D01*
X59200000Y32233334D02*
X58200000Y32233334D01*
X58966666Y31733334D02*
X58266666Y31733334D01*
X58266666Y31566667D01*
X58300000Y31466667D01*
X58366666Y31400000D01*
X58433333Y31366667D01*
X58566666Y31333334D01*
X58666666Y31333334D01*
X58800000Y31366667D01*
X58866666Y31400000D01*
X58933333Y31466667D01*
X58966666Y31566667D01*
X58966666Y31733334D01*
X58900000Y30633334D02*
X58933333Y30666667D01*
X58966666Y30766667D01*
X58966666Y30833334D01*
X58933333Y30933334D01*
X58866666Y31000000D01*
X58800000Y31033334D01*
X58666666Y31066667D01*
X58566666Y31066667D01*
X58433333Y31033334D01*
X58366666Y31000000D01*
X58300000Y30933334D01*
X58266666Y30833334D01*
X58266666Y30766667D01*
X58300000Y30666667D01*
X58333333Y30633334D01*
X58966666Y30333334D02*
X58266666Y30333334D01*
X58266666Y30166667D01*
X58300000Y30066667D01*
X58366666Y30000000D01*
X58433333Y29966667D01*
X58566666Y29933334D01*
X58666666Y29933334D01*
X58800000Y29966667D01*
X58866666Y30000000D01*
X58933333Y30066667D01*
X58966666Y30166667D01*
X58966666Y30333334D01*
X59200000Y29466667D02*
X58200000Y29466667D01*
X58966666Y28566667D02*
X58633333Y28800000D01*
X58966666Y28966667D02*
X58266666Y28966667D01*
X58266666Y28700000D01*
X58300000Y28633334D01*
X58333333Y28600000D01*
X58400000Y28566667D01*
X58500000Y28566667D01*
X58566666Y28600000D01*
X58600000Y28633334D01*
X58633333Y28700000D01*
X58633333Y28966667D01*
X58266666Y28333334D02*
X58966666Y27866667D01*
X58266666Y27866667D02*
X58966666Y28333334D01*
X58966666Y27600000D02*
X58266666Y27600000D01*
X58266666Y27433334D01*
X58300000Y27333334D01*
X58366666Y27266667D01*
X58433333Y27233334D01*
X58566666Y27200000D01*
X58666666Y27200000D01*
X58800000Y27233334D01*
X58866666Y27266667D01*
X58933333Y27333334D01*
X58966666Y27433334D01*
X58966666Y27600000D01*
X59200000Y26733334D02*
X58200000Y26733334D01*
X58966666Y26233334D02*
X58266666Y26233334D01*
X58266666Y26066667D01*
X58300000Y25966667D01*
X58366666Y25900000D01*
X58433333Y25866667D01*
X58566666Y25833334D01*
X58666666Y25833334D01*
X58800000Y25866667D01*
X58866666Y25900000D01*
X58933333Y25966667D01*
X58966666Y26066667D01*
X58966666Y26233334D01*
X58600000Y25533334D02*
X58600000Y25300000D01*
X58966666Y25200000D02*
X58966666Y25533334D01*
X58266666Y25533334D01*
X58266666Y25200000D01*
X58266666Y25000000D02*
X58266666Y24600000D01*
X58966666Y24800000D02*
X58266666Y24800000D01*
D11*
X43611904Y10733334D02*
X43230952Y10966667D01*
X43611904Y11133334D02*
X42811904Y11133334D01*
X42811904Y10866667D01*
X42850000Y10800000D01*
X42888095Y10766667D01*
X42964285Y10733334D01*
X43078571Y10733334D01*
X43154761Y10766667D01*
X43192857Y10800000D01*
X43230952Y10866667D01*
X43230952Y11133334D01*
X42811904Y10500000D02*
X43611904Y10033334D01*
X42811904Y10033334D02*
X43611904Y10500000D01*
X43611904Y9766667D02*
X42811904Y9766667D01*
X42811904Y9600000D01*
X42850000Y9500000D01*
X42926190Y9433334D01*
X43002380Y9400000D01*
X43154761Y9366667D01*
X43269047Y9366667D01*
X43421428Y9400000D01*
X43497619Y9433334D01*
X43573809Y9500000D01*
X43611904Y9600000D01*
X43611904Y9766667D01*
X43878571Y8900000D02*
X42735714Y8900000D01*
X42811904Y8500000D02*
X42811904Y8100000D01*
X43611904Y8300000D02*
X42811904Y8300000D01*
X42811904Y7933334D02*
X43611904Y7466667D01*
X42811904Y7466667D02*
X43611904Y7933334D01*
X43611904Y7200000D02*
X42811904Y7200000D01*
X42811904Y7033334D01*
X42850000Y6933334D01*
X42926190Y6866667D01*
X43002380Y6833334D01*
X43154761Y6800000D01*
X43269047Y6800000D01*
X43421428Y6833334D01*
X43497619Y6866667D01*
X43573809Y6933334D01*
X43611904Y7033334D01*
X43611904Y7200000D01*
X43878571Y6333334D02*
X42735714Y6333334D01*
X42850000Y5466667D02*
X42811904Y5533334D01*
X42811904Y5633334D01*
X42850000Y5733334D01*
X42926190Y5800000D01*
X43002380Y5833334D01*
X43154761Y5866667D01*
X43269047Y5866667D01*
X43421428Y5833334D01*
X43497619Y5800000D01*
X43573809Y5733334D01*
X43611904Y5633334D01*
X43611904Y5566667D01*
X43573809Y5466667D01*
X43535714Y5433334D01*
X43269047Y5433334D01*
X43269047Y5566667D01*
X43611904Y5133334D02*
X42811904Y5133334D01*
X43611904Y4733334D01*
X42811904Y4733334D01*
X43611904Y4400000D02*
X42811904Y4400000D01*
X42811904Y4233334D01*
X42850000Y4133334D01*
X42926190Y4066667D01*
X43002380Y4033334D01*
X43154761Y4000000D01*
X43269047Y4000000D01*
X43421428Y4033334D01*
X43497619Y4066667D01*
X43573809Y4133334D01*
X43611904Y4233334D01*
X43611904Y4400000D01*
X43878571Y3533334D02*
X42735714Y3533334D01*
X42811904Y3133334D02*
X43611904Y2900000D01*
X42811904Y2666667D01*
X43611904Y2433334D02*
X42811904Y2433334D01*
X42811904Y2266667D01*
X42850000Y2166667D01*
X42926190Y2100000D01*
X43002380Y2066667D01*
X43154761Y2033334D01*
X43269047Y2033334D01*
X43421428Y2066667D01*
X43497619Y2100000D01*
X43573809Y2166667D01*
X43611904Y2266667D01*
X43611904Y2433334D01*
X43611904Y1733334D02*
X42811904Y1733334D01*
X42811904Y1566667D01*
X42850000Y1466667D01*
X42926190Y1400000D01*
X43002380Y1366667D01*
X43154761Y1333334D01*
X43269047Y1333334D01*
X43421428Y1366667D01*
X43497619Y1400000D01*
X43573809Y1466667D01*
X43611904Y1566667D01*
X43611904Y1733334D01*
D12*
G36*
X8319066Y15071371D02*
G01*
X8319467Y15031889D01*
X8322259Y14916200D01*
X8330550Y14819311D01*
X8345232Y14737919D01*
X8367193Y14668723D01*
X8397322Y14608420D01*
X8436510Y14553708D01*
X8453532Y14534167D01*
X8493363Y14501750D01*
X8547413Y14472520D01*
X8607323Y14449991D01*
X8664739Y14437679D01*
X8685956Y14436400D01*
X8744769Y14444417D01*
X8809013Y14465899D01*
X8869821Y14496999D01*
X8918330Y14533866D01*
X8924182Y14539854D01*
X8965321Y14590579D01*
X8997435Y14646125D01*
X9021365Y14709696D01*
X9037953Y14784494D01*
X9048041Y14873722D01*
X9052469Y14980582D01*
X9052845Y15029528D01*
X9052545Y15091762D01*
X9051292Y15135528D01*
X9048554Y15164931D01*
X9043801Y15184079D01*
X9036501Y15197077D01*
X9030267Y15204045D01*
X9022694Y15210626D01*
X9012924Y15215788D01*
X8998340Y15219703D01*
X8976326Y15222543D01*
X8944264Y15224480D01*
X8899536Y15225684D01*
X8839526Y15226328D01*
X8761617Y15226583D01*
X8685956Y15226622D01*
X8585041Y15226870D01*
X8504427Y15226817D01*
X8465822Y15225857D01*
X8465822Y15079867D01*
X8906089Y15079867D01*
X8906004Y14986734D01*
X8904396Y14930693D01*
X8900256Y14871999D01*
X8894464Y14823028D01*
X8894226Y14821538D01*
X8875090Y14742392D01*
X8845287Y14681002D01*
X8802878Y14634305D01*
X8756961Y14604635D01*
X8706026Y14586353D01*
X8658200Y14587771D01*
X8606933Y14608988D01*
X8553899Y14650489D01*
X8514600Y14707998D01*
X8488331Y14782750D01*
X8479035Y14832708D01*
X8472507Y14889416D01*
X8467782Y14949519D01*
X8465817Y15000639D01*
X8465808Y15003667D01*
X8465822Y15079867D01*
X8465822Y15225857D01*
X8441851Y15225260D01*
X8395055Y15220998D01*
X8361778Y15212830D01*
X8339759Y15199556D01*
X8326739Y15179974D01*
X8320457Y15152883D01*
X8318653Y15117082D01*
X8319066Y15071371D01*
X8319066Y15071371D01*
G37*
X8319066Y15071371D02*
X8319467Y15031889D01*
X8322259Y14916200D01*
X8330550Y14819311D01*
X8345232Y14737919D01*
X8367193Y14668723D01*
X8397322Y14608420D01*
X8436510Y14553708D01*
X8453532Y14534167D01*
X8493363Y14501750D01*
X8547413Y14472520D01*
X8607323Y14449991D01*
X8664739Y14437679D01*
X8685956Y14436400D01*
X8744769Y14444417D01*
X8809013Y14465899D01*
X8869821Y14496999D01*
X8918330Y14533866D01*
X8924182Y14539854D01*
X8965321Y14590579D01*
X8997435Y14646125D01*
X9021365Y14709696D01*
X9037953Y14784494D01*
X9048041Y14873722D01*
X9052469Y14980582D01*
X9052845Y15029528D01*
X9052545Y15091762D01*
X9051292Y15135528D01*
X9048554Y15164931D01*
X9043801Y15184079D01*
X9036501Y15197077D01*
X9030267Y15204045D01*
X9022694Y15210626D01*
X9012924Y15215788D01*
X8998340Y15219703D01*
X8976326Y15222543D01*
X8944264Y15224480D01*
X8899536Y15225684D01*
X8839526Y15226328D01*
X8761617Y15226583D01*
X8685956Y15226622D01*
X8585041Y15226870D01*
X8504427Y15226817D01*
X8465822Y15225857D01*
X8465822Y15079867D01*
X8906089Y15079867D01*
X8906004Y14986734D01*
X8904396Y14930693D01*
X8900256Y14871999D01*
X8894464Y14823028D01*
X8894226Y14821538D01*
X8875090Y14742392D01*
X8845287Y14681002D01*
X8802878Y14634305D01*
X8756961Y14604635D01*
X8706026Y14586353D01*
X8658200Y14587771D01*
X8606933Y14608988D01*
X8553899Y14650489D01*
X8514600Y14707998D01*
X8488331Y14782750D01*
X8479035Y14832708D01*
X8472507Y14889416D01*
X8467782Y14949519D01*
X8465817Y15000639D01*
X8465808Y15003667D01*
X8465822Y15079867D01*
X8465822Y15225857D01*
X8441851Y15225260D01*
X8395055Y15220998D01*
X8361778Y15212830D01*
X8339759Y15199556D01*
X8326739Y15179974D01*
X8320457Y15152883D01*
X8318653Y15117082D01*
X8319066Y15071371D01*
G36*
X8319146Y13662794D02*
G01*
X8319518Y13593386D01*
X8320385Y13540997D01*
X8321946Y13502847D01*
X8324403Y13476159D01*
X8327957Y13458153D01*
X8332810Y13446049D01*
X8339161Y13437069D01*
X8342084Y13433818D01*
X8373142Y13414043D01*
X8408828Y13410482D01*
X8440510Y13423491D01*
X8446913Y13429506D01*
X8453121Y13439235D01*
X8457910Y13454901D01*
X8461514Y13479408D01*
X8464164Y13515661D01*
X8466095Y13566565D01*
X8467539Y13635026D01*
X8468418Y13697617D01*
X8471467Y13945334D01*
X8536378Y13948719D01*
X8601289Y13952105D01*
X8601289Y13783958D01*
X8601919Y13710959D01*
X8604553Y13657517D01*
X8610309Y13620628D01*
X8620304Y13597288D01*
X8635656Y13584494D01*
X8657482Y13579242D01*
X8677738Y13578445D01*
X8702592Y13580923D01*
X8720906Y13590277D01*
X8733637Y13609383D01*
X8741741Y13641118D01*
X8746176Y13688359D01*
X8747899Y13753983D01*
X8748045Y13789801D01*
X8748045Y13950978D01*
X8906089Y13950978D01*
X8906089Y13702622D01*
X8906202Y13621213D01*
X8906712Y13559342D01*
X8907870Y13513968D01*
X8909930Y13482054D01*
X8913146Y13460559D01*
X8917772Y13446443D01*
X8924059Y13436668D01*
X8928667Y13431689D01*
X8955560Y13414610D01*
X8979467Y13409111D01*
X9008667Y13416963D01*
X9030267Y13431689D01*
X9037066Y13439546D01*
X9042346Y13449688D01*
X9046298Y13464844D01*
X9049113Y13487741D01*
X9050982Y13521109D01*
X9052098Y13567675D01*
X9052651Y13630167D01*
X9052833Y13711314D01*
X9052845Y13753422D01*
X9052765Y13843598D01*
X9052398Y13913924D01*
X9051552Y13967129D01*
X9050036Y14005940D01*
X9047659Y14033087D01*
X9044229Y14051298D01*
X9039554Y14063300D01*
X9033444Y14071822D01*
X9030267Y14075156D01*
X9022670Y14081755D01*
X9012870Y14086927D01*
X8998239Y14090846D01*
X8976152Y14093684D01*
X8943982Y14095615D01*
X8899103Y14096812D01*
X8838889Y14097448D01*
X8760713Y14097697D01*
X8687923Y14097734D01*
X8594707Y14097700D01*
X8521431Y14097465D01*
X8465458Y14096830D01*
X8424151Y14095594D01*
X8394872Y14093556D01*
X8374984Y14090517D01*
X8361850Y14086277D01*
X8352832Y14080635D01*
X8345293Y14073391D01*
X8343612Y14071606D01*
X8336172Y14062945D01*
X8330409Y14052882D01*
X8326112Y14038625D01*
X8323064Y14017383D01*
X8321051Y13986364D01*
X8319860Y13942777D01*
X8319275Y13883831D01*
X8319083Y13806734D01*
X8319067Y13752001D01*
X8319146Y13662794D01*
X8319146Y13662794D01*
G37*
X8319146Y13662794D02*
X8319518Y13593386D01*
X8320385Y13540997D01*
X8321946Y13502847D01*
X8324403Y13476159D01*
X8327957Y13458153D01*
X8332810Y13446049D01*
X8339161Y13437069D01*
X8342084Y13433818D01*
X8373142Y13414043D01*
X8408828Y13410482D01*
X8440510Y13423491D01*
X8446913Y13429506D01*
X8453121Y13439235D01*
X8457910Y13454901D01*
X8461514Y13479408D01*
X8464164Y13515661D01*
X8466095Y13566565D01*
X8467539Y13635026D01*
X8468418Y13697617D01*
X8471467Y13945334D01*
X8536378Y13948719D01*
X8601289Y13952105D01*
X8601289Y13783958D01*
X8601919Y13710959D01*
X8604553Y13657517D01*
X8610309Y13620628D01*
X8620304Y13597288D01*
X8635656Y13584494D01*
X8657482Y13579242D01*
X8677738Y13578445D01*
X8702592Y13580923D01*
X8720906Y13590277D01*
X8733637Y13609383D01*
X8741741Y13641118D01*
X8746176Y13688359D01*
X8747899Y13753983D01*
X8748045Y13789801D01*
X8748045Y13950978D01*
X8906089Y13950978D01*
X8906089Y13702622D01*
X8906202Y13621213D01*
X8906712Y13559342D01*
X8907870Y13513968D01*
X8909930Y13482054D01*
X8913146Y13460559D01*
X8917772Y13446443D01*
X8924059Y13436668D01*
X8928667Y13431689D01*
X8955560Y13414610D01*
X8979467Y13409111D01*
X9008667Y13416963D01*
X9030267Y13431689D01*
X9037066Y13439546D01*
X9042346Y13449688D01*
X9046298Y13464844D01*
X9049113Y13487741D01*
X9050982Y13521109D01*
X9052098Y13567675D01*
X9052651Y13630167D01*
X9052833Y13711314D01*
X9052845Y13753422D01*
X9052765Y13843598D01*
X9052398Y13913924D01*
X9051552Y13967129D01*
X9050036Y14005940D01*
X9047659Y14033087D01*
X9044229Y14051298D01*
X9039554Y14063300D01*
X9033444Y14071822D01*
X9030267Y14075156D01*
X9022670Y14081755D01*
X9012870Y14086927D01*
X8998239Y14090846D01*
X8976152Y14093684D01*
X8943982Y14095615D01*
X8899103Y14096812D01*
X8838889Y14097448D01*
X8760713Y14097697D01*
X8687923Y14097734D01*
X8594707Y14097700D01*
X8521431Y14097465D01*
X8465458Y14096830D01*
X8424151Y14095594D01*
X8394872Y14093556D01*
X8374984Y14090517D01*
X8361850Y14086277D01*
X8352832Y14080635D01*
X8345293Y14073391D01*
X8343612Y14071606D01*
X8336172Y14062945D01*
X8330409Y14052882D01*
X8326112Y14038625D01*
X8323064Y14017383D01*
X8321051Y13986364D01*
X8319860Y13942777D01*
X8319275Y13883831D01*
X8319083Y13806734D01*
X8319067Y13752001D01*
X8319146Y13662794D01*
G36*
X8320351Y12641703D02*
G01*
X8325581Y12566888D01*
X8333750Y12497306D01*
X8344550Y12437002D01*
X8357673Y12390020D01*
X8372813Y12360406D01*
X8377269Y12355860D01*
X8411850Y12340054D01*
X8447351Y12344847D01*
X8477725Y12369364D01*
X8478596Y12370534D01*
X8487954Y12384954D01*
X8492876Y12400008D01*
X8493473Y12421005D01*
X8489861Y12453257D01*
X8482154Y12502073D01*
X8481505Y12506000D01*
X8472569Y12578739D01*
X8468161Y12657217D01*
X8468119Y12735927D01*
X8472279Y12809361D01*
X8480479Y12872011D01*
X8492557Y12918370D01*
X8493771Y12921416D01*
X8512615Y12955048D01*
X8531685Y12966864D01*
X8550439Y12957614D01*
X8568337Y12928047D01*
X8584837Y12878911D01*
X8599396Y12810957D01*
X8606406Y12765645D01*
X8619889Y12671456D01*
X8632214Y12596544D01*
X8644449Y12537717D01*
X8657661Y12491785D01*
X8672917Y12455555D01*
X8691285Y12425838D01*
X8713831Y12399442D01*
X8735971Y12378230D01*
X8766819Y12353065D01*
X8793345Y12340681D01*
X8826026Y12336808D01*
X8837995Y12336667D01*
X8877712Y12339576D01*
X8907259Y12351202D01*
X8933486Y12371323D01*
X8973576Y12412216D01*
X9004149Y12457817D01*
X9026203Y12511513D01*
X9040735Y12576692D01*
X9048741Y12656744D01*
X9051218Y12755057D01*
X9051177Y12771289D01*
X9049818Y12836849D01*
X9046730Y12901866D01*
X9042356Y12959252D01*
X9037140Y13001922D01*
X9036541Y13005372D01*
X9026491Y13047796D01*
X9013796Y13083780D01*
X9002190Y13104150D01*
X8971572Y13123107D01*
X8935918Y13124427D01*
X8904144Y13108085D01*
X8900551Y13104429D01*
X8889876Y13089315D01*
X8885276Y13070415D01*
X8886059Y13041162D01*
X8890127Y13005651D01*
X8893762Y12965970D01*
X8896828Y12910345D01*
X8899053Y12845406D01*
X8900164Y12777785D01*
X8900237Y12760000D01*
X8899964Y12692128D01*
X8898646Y12642454D01*
X8895827Y12606610D01*
X8891050Y12580224D01*
X8883857Y12558926D01*
X8877867Y12546126D01*
X8861233Y12518000D01*
X8846168Y12500068D01*
X8841897Y12497447D01*
X8824263Y12502976D01*
X8807192Y12529260D01*
X8791458Y12574478D01*
X8777838Y12636808D01*
X8774804Y12655171D01*
X8759738Y12751090D01*
X8747146Y12827641D01*
X8736111Y12887780D01*
X8725720Y12934460D01*
X8715056Y12970637D01*
X8703205Y12999265D01*
X8689251Y13023298D01*
X8672281Y13045692D01*
X8651378Y13069402D01*
X8644049Y13077380D01*
X8616699Y13105353D01*
X8595029Y13120160D01*
X8570232Y13125952D01*
X8538983Y13126889D01*
X8477705Y13116575D01*
X8425640Y13085752D01*
X8382958Y13034595D01*
X8349825Y12963283D01*
X8334964Y12912400D01*
X8325366Y12857100D01*
X8319936Y12790853D01*
X8318367Y12717706D01*
X8320351Y12641703D01*
X8320351Y12641703D01*
G37*
X8320351Y12641703D02*
X8325581Y12566888D01*
X8333750Y12497306D01*
X8344550Y12437002D01*
X8357673Y12390020D01*
X8372813Y12360406D01*
X8377269Y12355860D01*
X8411850Y12340054D01*
X8447351Y12344847D01*
X8477725Y12369364D01*
X8478596Y12370534D01*
X8487954Y12384954D01*
X8492876Y12400008D01*
X8493473Y12421005D01*
X8489861Y12453257D01*
X8482154Y12502073D01*
X8481505Y12506000D01*
X8472569Y12578739D01*
X8468161Y12657217D01*
X8468119Y12735927D01*
X8472279Y12809361D01*
X8480479Y12872011D01*
X8492557Y12918370D01*
X8493771Y12921416D01*
X8512615Y12955048D01*
X8531685Y12966864D01*
X8550439Y12957614D01*
X8568337Y12928047D01*
X8584837Y12878911D01*
X8599396Y12810957D01*
X8606406Y12765645D01*
X8619889Y12671456D01*
X8632214Y12596544D01*
X8644449Y12537717D01*
X8657661Y12491785D01*
X8672917Y12455555D01*
X8691285Y12425838D01*
X8713831Y12399442D01*
X8735971Y12378230D01*
X8766819Y12353065D01*
X8793345Y12340681D01*
X8826026Y12336808D01*
X8837995Y12336667D01*
X8877712Y12339576D01*
X8907259Y12351202D01*
X8933486Y12371323D01*
X8973576Y12412216D01*
X9004149Y12457817D01*
X9026203Y12511513D01*
X9040735Y12576692D01*
X9048741Y12656744D01*
X9051218Y12755057D01*
X9051177Y12771289D01*
X9049818Y12836849D01*
X9046730Y12901866D01*
X9042356Y12959252D01*
X9037140Y13001922D01*
X9036541Y13005372D01*
X9026491Y13047796D01*
X9013796Y13083780D01*
X9002190Y13104150D01*
X8971572Y13123107D01*
X8935918Y13124427D01*
X8904144Y13108085D01*
X8900551Y13104429D01*
X8889876Y13089315D01*
X8885276Y13070415D01*
X8886059Y13041162D01*
X8890127Y13005651D01*
X8893762Y12965970D01*
X8896828Y12910345D01*
X8899053Y12845406D01*
X8900164Y12777785D01*
X8900237Y12760000D01*
X8899964Y12692128D01*
X8898646Y12642454D01*
X8895827Y12606610D01*
X8891050Y12580224D01*
X8883857Y12558926D01*
X8877867Y12546126D01*
X8861233Y12518000D01*
X8846168Y12500068D01*
X8841897Y12497447D01*
X8824263Y12502976D01*
X8807192Y12529260D01*
X8791458Y12574478D01*
X8777838Y12636808D01*
X8774804Y12655171D01*
X8759738Y12751090D01*
X8747146Y12827641D01*
X8736111Y12887780D01*
X8725720Y12934460D01*
X8715056Y12970637D01*
X8703205Y12999265D01*
X8689251Y13023298D01*
X8672281Y13045692D01*
X8651378Y13069402D01*
X8644049Y13077380D01*
X8616699Y13105353D01*
X8595029Y13120160D01*
X8570232Y13125952D01*
X8538983Y13126889D01*
X8477705Y13116575D01*
X8425640Y13085752D01*
X8382958Y13034595D01*
X8349825Y12963283D01*
X8334964Y12912400D01*
X8325366Y12857100D01*
X8319936Y12790853D01*
X8318367Y12717706D01*
X8320351Y12641703D01*
G36*
X8341645Y11873822D02*
G01*
X8349218Y11867242D01*
X8358987Y11862079D01*
X8373571Y11858164D01*
X8395585Y11855324D01*
X8427648Y11853387D01*
X8472375Y11852183D01*
X8532385Y11851539D01*
X8610294Y11851284D01*
X8685956Y11851245D01*
X8779802Y11851314D01*
X8853689Y11851638D01*
X8910232Y11852386D01*
X8952049Y11853732D01*
X8981757Y11855846D01*
X9001973Y11858900D01*
X9015314Y11863066D01*
X9024398Y11868516D01*
X9030267Y11873822D01*
X9049947Y11906826D01*
X9048181Y11941991D01*
X9026717Y11973455D01*
X9018337Y11980684D01*
X9008614Y11986334D01*
X8994861Y11990599D01*
X8974389Y11993673D01*
X8944512Y11995752D01*
X8902541Y11997030D01*
X8845789Y11997701D01*
X8771567Y11997959D01*
X8687537Y11998000D01*
X8374485Y11998000D01*
X8346776Y11970291D01*
X8323463Y11936137D01*
X8322623Y11903006D01*
X8341645Y11873822D01*
X8341645Y11873822D01*
G37*
X8341645Y11873822D02*
X8349218Y11867242D01*
X8358987Y11862079D01*
X8373571Y11858164D01*
X8395585Y11855324D01*
X8427648Y11853387D01*
X8472375Y11852183D01*
X8532385Y11851539D01*
X8610294Y11851284D01*
X8685956Y11851245D01*
X8779802Y11851314D01*
X8853689Y11851638D01*
X8910232Y11852386D01*
X8952049Y11853732D01*
X8981757Y11855846D01*
X9001973Y11858900D01*
X9015314Y11863066D01*
X9024398Y11868516D01*
X9030267Y11873822D01*
X9049947Y11906826D01*
X9048181Y11941991D01*
X9026717Y11973455D01*
X9018337Y11980684D01*
X9008614Y11986334D01*
X8994861Y11990599D01*
X8974389Y11993673D01*
X8944512Y11995752D01*
X8902541Y11997030D01*
X8845789Y11997701D01*
X8771567Y11997959D01*
X8687537Y11998000D01*
X8374485Y11998000D01*
X8346776Y11970291D01*
X8323463Y11936137D01*
X8322623Y11903006D01*
X8341645Y11873822D01*
G36*
X8324599Y10900081D02*
G01*
X8336095Y10831565D01*
X8353967Y10778943D01*
X8377499Y10744708D01*
X8390924Y10735379D01*
X8422148Y10725893D01*
X8450395Y10732277D01*
X8477182Y10752430D01*
X8489713Y10783745D01*
X8488696Y10829183D01*
X8481906Y10864326D01*
X8468971Y10942419D01*
X8467742Y11022226D01*
X8478241Y11111555D01*
X8482690Y11136229D01*
X8506108Y11219291D01*
X8540945Y11284273D01*
X8586604Y11330461D01*
X8642494Y11357145D01*
X8671388Y11362663D01*
X8730012Y11359051D01*
X8781879Y11335729D01*
X8825978Y11294824D01*
X8861299Y11238459D01*
X8886829Y11168760D01*
X8901559Y11087852D01*
X8904478Y10997860D01*
X8894575Y10900910D01*
X8893641Y10895436D01*
X8886459Y10856875D01*
X8879521Y10835494D01*
X8869227Y10826227D01*
X8851976Y10824006D01*
X8842841Y10823956D01*
X8804489Y10823956D01*
X8804489Y10892431D01*
X8800347Y10952900D01*
X8787147Y10994165D01*
X8763730Y11018175D01*
X8728936Y11026877D01*
X8724394Y11026983D01*
X8694654Y11021892D01*
X8673419Y11004433D01*
X8659366Y10971939D01*
X8651173Y10921743D01*
X8648161Y10873123D01*
X8646433Y10802456D01*
X8649070Y10751198D01*
X8658800Y10716239D01*
X8678353Y10694470D01*
X8710456Y10682780D01*
X8757838Y10678060D01*
X8820071Y10677200D01*
X8889535Y10678609D01*
X8936786Y10682848D01*
X8962012Y10689936D01*
X8963988Y10691311D01*
X8995508Y10730228D01*
X9020470Y10787286D01*
X9038340Y10858869D01*
X9048586Y10941358D01*
X9050673Y11031139D01*
X9044068Y11124592D01*
X9035956Y11179556D01*
X9011554Y11265766D01*
X8971662Y11345892D01*
X8919887Y11412977D01*
X8909539Y11423173D01*
X8866035Y11456302D01*
X8812118Y11486194D01*
X8755592Y11509357D01*
X8704259Y11522298D01*
X8684544Y11523858D01*
X8643419Y11517218D01*
X8592252Y11499568D01*
X8538394Y11474297D01*
X8489195Y11444789D01*
X8456334Y11418719D01*
X8407452Y11357765D01*
X8368545Y11278969D01*
X8340494Y11185157D01*
X8324179Y11079150D01*
X8320192Y10982000D01*
X8324599Y10900081D01*
X8324599Y10900081D01*
G37*
X8324599Y10900081D02*
X8336095Y10831565D01*
X8353967Y10778943D01*
X8377499Y10744708D01*
X8390924Y10735379D01*
X8422148Y10725893D01*
X8450395Y10732277D01*
X8477182Y10752430D01*
X8489713Y10783745D01*
X8488696Y10829183D01*
X8481906Y10864326D01*
X8468971Y10942419D01*
X8467742Y11022226D01*
X8478241Y11111555D01*
X8482690Y11136229D01*
X8506108Y11219291D01*
X8540945Y11284273D01*
X8586604Y11330461D01*
X8642494Y11357145D01*
X8671388Y11362663D01*
X8730012Y11359051D01*
X8781879Y11335729D01*
X8825978Y11294824D01*
X8861299Y11238459D01*
X8886829Y11168760D01*
X8901559Y11087852D01*
X8904478Y10997860D01*
X8894575Y10900910D01*
X8893641Y10895436D01*
X8886459Y10856875D01*
X8879521Y10835494D01*
X8869227Y10826227D01*
X8851976Y10824006D01*
X8842841Y10823956D01*
X8804489Y10823956D01*
X8804489Y10892431D01*
X8800347Y10952900D01*
X8787147Y10994165D01*
X8763730Y11018175D01*
X8728936Y11026877D01*
X8724394Y11026983D01*
X8694654Y11021892D01*
X8673419Y11004433D01*
X8659366Y10971939D01*
X8651173Y10921743D01*
X8648161Y10873123D01*
X8646433Y10802456D01*
X8649070Y10751198D01*
X8658800Y10716239D01*
X8678353Y10694470D01*
X8710456Y10682780D01*
X8757838Y10678060D01*
X8820071Y10677200D01*
X8889535Y10678609D01*
X8936786Y10682848D01*
X8962012Y10689936D01*
X8963988Y10691311D01*
X8995508Y10730228D01*
X9020470Y10787286D01*
X9038340Y10858869D01*
X9048586Y10941358D01*
X9050673Y11031139D01*
X9044068Y11124592D01*
X9035956Y11179556D01*
X9011554Y11265766D01*
X8971662Y11345892D01*
X8919887Y11412977D01*
X8909539Y11423173D01*
X8866035Y11456302D01*
X8812118Y11486194D01*
X8755592Y11509357D01*
X8704259Y11522298D01*
X8684544Y11523858D01*
X8643419Y11517218D01*
X8592252Y11499568D01*
X8538394Y11474297D01*
X8489195Y11444789D01*
X8456334Y11418719D01*
X8407452Y11357765D01*
X8368545Y11278969D01*
X8340494Y11185157D01*
X8324179Y11079150D01*
X8320192Y10982000D01*
X8324599Y10900081D01*
G36*
X8323448Y10250114D02*
G01*
X8337273Y10226548D01*
X8359881Y10195735D01*
X8392338Y10156078D01*
X8435708Y10105980D01*
X8491058Y10043843D01*
X8559451Y9968072D01*
X8638084Y9881334D01*
X8801878Y9700711D01*
X8582029Y9695067D01*
X8506351Y9693029D01*
X8449994Y9691063D01*
X8409706Y9688734D01*
X8382235Y9685606D01*
X8364329Y9681245D01*
X8352737Y9675216D01*
X8344208Y9667084D01*
X8340623Y9662772D01*
X8321670Y9628241D01*
X8324441Y9595383D01*
X8340633Y9569318D01*
X8362199Y9542667D01*
X8677151Y9539352D01*
X8769779Y9538435D01*
X8842544Y9537968D01*
X8898161Y9538113D01*
X8939342Y9539032D01*
X8968803Y9540887D01*
X8989255Y9543839D01*
X9003413Y9548050D01*
X9013991Y9553682D01*
X9022474Y9559927D01*
X9038207Y9573439D01*
X9048636Y9586883D01*
X9052639Y9602124D01*
X9049094Y9621026D01*
X9036879Y9645455D01*
X9014871Y9677273D01*
X8981949Y9718348D01*
X8936991Y9770542D01*
X8878875Y9835722D01*
X8812099Y9909556D01*
X8571458Y10174845D01*
X8790589Y10180489D01*
X8866128Y10182531D01*
X8922354Y10184502D01*
X8962524Y10186839D01*
X8989896Y10189981D01*
X9007728Y10194364D01*
X9019279Y10200424D01*
X9027807Y10208600D01*
X9031282Y10212784D01*
X9050372Y10249765D01*
X9047493Y10284708D01*
X9023100Y10315136D01*
X9013286Y10322097D01*
X9001826Y10327523D01*
X8985968Y10331603D01*
X8962963Y10334529D01*
X8930062Y10336492D01*
X8884516Y10337683D01*
X8823573Y10338292D01*
X8744486Y10338511D01*
X8685956Y10338534D01*
X8594407Y10338460D01*
X8522687Y10338113D01*
X8468045Y10337301D01*
X8427732Y10335833D01*
X8398998Y10333519D01*
X8379093Y10330167D01*
X8365268Y10325588D01*
X8354772Y10319589D01*
X8348811Y10315136D01*
X8334691Y10303850D01*
X8324029Y10293301D01*
X8317892Y10281893D01*
X8317343Y10268030D01*
X8323448Y10250114D01*
X8323448Y10250114D01*
G37*
X8323448Y10250114D02*
X8337273Y10226548D01*
X8359881Y10195735D01*
X8392338Y10156078D01*
X8435708Y10105980D01*
X8491058Y10043843D01*
X8559451Y9968072D01*
X8638084Y9881334D01*
X8801878Y9700711D01*
X8582029Y9695067D01*
X8506351Y9693029D01*
X8449994Y9691063D01*
X8409706Y9688734D01*
X8382235Y9685606D01*
X8364329Y9681245D01*
X8352737Y9675216D01*
X8344208Y9667084D01*
X8340623Y9662772D01*
X8321670Y9628241D01*
X8324441Y9595383D01*
X8340633Y9569318D01*
X8362199Y9542667D01*
X8677151Y9539352D01*
X8769779Y9538435D01*
X8842544Y9537968D01*
X8898161Y9538113D01*
X8939342Y9539032D01*
X8968803Y9540887D01*
X8989255Y9543839D01*
X9003413Y9548050D01*
X9013991Y9553682D01*
X9022474Y9559927D01*
X9038207Y9573439D01*
X9048636Y9586883D01*
X9052639Y9602124D01*
X9049094Y9621026D01*
X9036879Y9645455D01*
X9014871Y9677273D01*
X8981949Y9718348D01*
X8936991Y9770542D01*
X8878875Y9835722D01*
X8812099Y9909556D01*
X8571458Y10174845D01*
X8790589Y10180489D01*
X8866128Y10182531D01*
X8922354Y10184502D01*
X8962524Y10186839D01*
X8989896Y10189981D01*
X9007728Y10194364D01*
X9019279Y10200424D01*
X9027807Y10208600D01*
X9031282Y10212784D01*
X9050372Y10249765D01*
X9047493Y10284708D01*
X9023100Y10315136D01*
X9013286Y10322097D01*
X9001826Y10327523D01*
X8985968Y10331603D01*
X8962963Y10334529D01*
X8930062Y10336492D01*
X8884516Y10337683D01*
X8823573Y10338292D01*
X8744486Y10338511D01*
X8685956Y10338534D01*
X8594407Y10338460D01*
X8522687Y10338113D01*
X8468045Y10337301D01*
X8427732Y10335833D01*
X8398998Y10333519D01*
X8379093Y10330167D01*
X8365268Y10325588D01*
X8354772Y10319589D01*
X8348811Y10315136D01*
X8334691Y10303850D01*
X8324029Y10293301D01*
X8317892Y10281893D01*
X8317343Y10268030D01*
X8323448Y10250114D01*
G36*
X8319260Y8719657D02*
G01*
X8320174Y8643299D01*
X8322311Y8584783D01*
X8326175Y8541745D01*
X8332267Y8511817D01*
X8341090Y8492632D01*
X8353146Y8481824D01*
X8368939Y8477027D01*
X8388970Y8475873D01*
X8391335Y8475867D01*
X8413992Y8476869D01*
X8431503Y8481604D01*
X8444574Y8492667D01*
X8453913Y8512652D01*
X8460227Y8544154D01*
X8464222Y8589768D01*
X8466606Y8652087D01*
X8468086Y8733707D01*
X8468414Y8758723D01*
X8471467Y9000800D01*
X8536378Y9004186D01*
X8601289Y9007571D01*
X8601289Y8839424D01*
X8601531Y8773734D01*
X8602556Y8726828D01*
X8604811Y8694917D01*
X8608742Y8674209D01*
X8614798Y8660916D01*
X8623424Y8651245D01*
X8623493Y8651183D01*
X8657112Y8633644D01*
X8693448Y8634278D01*
X8724423Y8652686D01*
X8727607Y8656329D01*
X8735812Y8669259D01*
X8741521Y8686976D01*
X8745162Y8713430D01*
X8747167Y8752568D01*
X8747964Y8808338D01*
X8748045Y8844006D01*
X8748045Y9006445D01*
X8906089Y9006445D01*
X8906089Y8759839D01*
X8906231Y8678420D01*
X8906814Y8616590D01*
X8908068Y8571363D01*
X8910227Y8539752D01*
X8913523Y8518769D01*
X8918189Y8505427D01*
X8924457Y8496739D01*
X8926733Y8494550D01*
X8958280Y8478386D01*
X8994168Y8477203D01*
X9025285Y8490464D01*
X9035271Y8500957D01*
X9040769Y8511871D01*
X9045022Y8528783D01*
X9048180Y8554367D01*
X9050392Y8591299D01*
X9051806Y8642254D01*
X9052572Y8709906D01*
X9052838Y8796931D01*
X9052845Y8816606D01*
X9052787Y8905089D01*
X9052467Y8973773D01*
X9051667Y9025436D01*
X9050167Y9062855D01*
X9047749Y9088810D01*
X9044194Y9106078D01*
X9039282Y9117438D01*
X9032795Y9125668D01*
X9028138Y9130183D01*
X9019889Y9136979D01*
X9009669Y9142288D01*
X8994800Y9146294D01*
X8972602Y9149179D01*
X8940393Y9151126D01*
X8895496Y9152319D01*
X8835228Y9152939D01*
X8756911Y9153171D01*
X8690994Y9153200D01*
X8598628Y9153129D01*
X8526117Y9152792D01*
X8470737Y9152002D01*
X8429765Y9150574D01*
X8400478Y9148321D01*
X8380153Y9145057D01*
X8366066Y9140596D01*
X8355495Y9134752D01*
X8348811Y9129803D01*
X8319067Y9106406D01*
X8319067Y8816226D01*
X8319260Y8719657D01*
X8319260Y8719657D01*
G37*
X8319260Y8719657D02*
X8320174Y8643299D01*
X8322311Y8584783D01*
X8326175Y8541745D01*
X8332267Y8511817D01*
X8341090Y8492632D01*
X8353146Y8481824D01*
X8368939Y8477027D01*
X8388970Y8475873D01*
X8391335Y8475867D01*
X8413992Y8476869D01*
X8431503Y8481604D01*
X8444574Y8492667D01*
X8453913Y8512652D01*
X8460227Y8544154D01*
X8464222Y8589768D01*
X8466606Y8652087D01*
X8468086Y8733707D01*
X8468414Y8758723D01*
X8471467Y9000800D01*
X8536378Y9004186D01*
X8601289Y9007571D01*
X8601289Y8839424D01*
X8601531Y8773734D01*
X8602556Y8726828D01*
X8604811Y8694917D01*
X8608742Y8674209D01*
X8614798Y8660916D01*
X8623424Y8651245D01*
X8623493Y8651183D01*
X8657112Y8633644D01*
X8693448Y8634278D01*
X8724423Y8652686D01*
X8727607Y8656329D01*
X8735812Y8669259D01*
X8741521Y8686976D01*
X8745162Y8713430D01*
X8747167Y8752568D01*
X8747964Y8808338D01*
X8748045Y8844006D01*
X8748045Y9006445D01*
X8906089Y9006445D01*
X8906089Y8759839D01*
X8906231Y8678420D01*
X8906814Y8616590D01*
X8908068Y8571363D01*
X8910227Y8539752D01*
X8913523Y8518769D01*
X8918189Y8505427D01*
X8924457Y8496739D01*
X8926733Y8494550D01*
X8958280Y8478386D01*
X8994168Y8477203D01*
X9025285Y8490464D01*
X9035271Y8500957D01*
X9040769Y8511871D01*
X9045022Y8528783D01*
X9048180Y8554367D01*
X9050392Y8591299D01*
X9051806Y8642254D01*
X9052572Y8709906D01*
X9052838Y8796931D01*
X9052845Y8816606D01*
X9052787Y8905089D01*
X9052467Y8973773D01*
X9051667Y9025436D01*
X9050167Y9062855D01*
X9047749Y9088810D01*
X9044194Y9106078D01*
X9039282Y9117438D01*
X9032795Y9125668D01*
X9028138Y9130183D01*
X9019889Y9136979D01*
X9009669Y9142288D01*
X8994800Y9146294D01*
X8972602Y9149179D01*
X8940393Y9151126D01*
X8895496Y9152319D01*
X8835228Y9152939D01*
X8756911Y9153171D01*
X8690994Y9153200D01*
X8598628Y9153129D01*
X8526117Y9152792D01*
X8470737Y9152002D01*
X8429765Y9150574D01*
X8400478Y9148321D01*
X8380153Y9145057D01*
X8366066Y9140596D01*
X8355495Y9134752D01*
X8348811Y9129803D01*
X8319067Y9106406D01*
X8319067Y8816226D01*
X8319260Y8719657D01*
G36*
X8319275Y7931691D02*
G01*
X8323636Y7802712D01*
X8336861Y7693009D01*
X8359741Y7600774D01*
X8393070Y7524198D01*
X8437638Y7461473D01*
X8494236Y7410788D01*
X8563658Y7370337D01*
X8565351Y7369541D01*
X8627483Y7345399D01*
X8682509Y7336797D01*
X8737887Y7343769D01*
X8801073Y7366346D01*
X8810689Y7370628D01*
X8866966Y7399828D01*
X8910451Y7432644D01*
X8947417Y7474998D01*
X8984135Y7532810D01*
X8986052Y7536169D01*
X9010227Y7586496D01*
X9028282Y7643379D01*
X9040839Y7710473D01*
X9048522Y7791435D01*
X9051953Y7889918D01*
X9052251Y7924714D01*
X9052845Y8090406D01*
X9023100Y8113803D01*
X9013319Y8120743D01*
X9001897Y8126158D01*
X8986095Y8130235D01*
X8963175Y8133163D01*
X8930396Y8135133D01*
X8906089Y8135775D01*
X8906089Y7979156D01*
X8906089Y7885274D01*
X8904483Y7830336D01*
X8900255Y7773940D01*
X8894292Y7727655D01*
X8893790Y7724861D01*
X8871736Y7642652D01*
X8838600Y7578886D01*
X8792847Y7531548D01*
X8732939Y7498618D01*
X8717061Y7492892D01*
X8692333Y7487279D01*
X8667902Y7489709D01*
X8635400Y7501533D01*
X8619434Y7508660D01*
X8577006Y7532000D01*
X8547240Y7560120D01*
X8526511Y7591060D01*
X8499537Y7653034D01*
X8479998Y7732349D01*
X8468746Y7824747D01*
X8466270Y7891667D01*
X8465822Y7979156D01*
X8906089Y7979156D01*
X8906089Y8135775D01*
X8885021Y8136332D01*
X8824311Y8136950D01*
X8745526Y8137175D01*
X8683920Y8137200D01*
X8374485Y8137200D01*
X8346776Y8109491D01*
X8335544Y8097194D01*
X8327853Y8083897D01*
X8323040Y8065328D01*
X8320446Y8037214D01*
X8319410Y7995283D01*
X8319270Y7935263D01*
X8319275Y7931691D01*
X8319275Y7931691D01*
G37*
X8319275Y7931691D02*
X8323636Y7802712D01*
X8336861Y7693009D01*
X8359741Y7600774D01*
X8393070Y7524198D01*
X8437638Y7461473D01*
X8494236Y7410788D01*
X8563658Y7370337D01*
X8565351Y7369541D01*
X8627483Y7345399D01*
X8682509Y7336797D01*
X8737887Y7343769D01*
X8801073Y7366346D01*
X8810689Y7370628D01*
X8866966Y7399828D01*
X8910451Y7432644D01*
X8947417Y7474998D01*
X8984135Y7532810D01*
X8986052Y7536169D01*
X9010227Y7586496D01*
X9028282Y7643379D01*
X9040839Y7710473D01*
X9048522Y7791435D01*
X9051953Y7889918D01*
X9052251Y7924714D01*
X9052845Y8090406D01*
X9023100Y8113803D01*
X9013319Y8120743D01*
X9001897Y8126158D01*
X8986095Y8130235D01*
X8963175Y8133163D01*
X8930396Y8135133D01*
X8906089Y8135775D01*
X8906089Y7979156D01*
X8906089Y7885274D01*
X8904483Y7830336D01*
X8900255Y7773940D01*
X8894292Y7727655D01*
X8893790Y7724861D01*
X8871736Y7642652D01*
X8838600Y7578886D01*
X8792847Y7531548D01*
X8732939Y7498618D01*
X8717061Y7492892D01*
X8692333Y7487279D01*
X8667902Y7489709D01*
X8635400Y7501533D01*
X8619434Y7508660D01*
X8577006Y7532000D01*
X8547240Y7560120D01*
X8526511Y7591060D01*
X8499537Y7653034D01*
X8479998Y7732349D01*
X8468746Y7824747D01*
X8466270Y7891667D01*
X8465822Y7979156D01*
X8906089Y7979156D01*
X8906089Y8135775D01*
X8885021Y8136332D01*
X8824311Y8136950D01*
X8745526Y8137175D01*
X8683920Y8137200D01*
X8374485Y8137200D01*
X8346776Y8109491D01*
X8335544Y8097194D01*
X8327853Y8083897D01*
X8323040Y8065328D01*
X8320446Y8037214D01*
X8319410Y7995283D01*
X8319270Y7935263D01*
X8319275Y7931691D01*
G36*
X8321034Y5205335D02*
G01*
X8328035Y5185745D01*
X8328377Y5184990D01*
X8348678Y5158387D01*
X8369561Y5143730D01*
X8379352Y5140862D01*
X8392361Y5141004D01*
X8410895Y5145039D01*
X8437257Y5153854D01*
X8473752Y5168331D01*
X8522687Y5189355D01*
X8586365Y5217812D01*
X8667093Y5254585D01*
X8711216Y5274825D01*
X8789985Y5311375D01*
X8862423Y5345685D01*
X8925880Y5376448D01*
X8977708Y5402352D01*
X9015259Y5422090D01*
X9035884Y5434350D01*
X9038733Y5436776D01*
X9051302Y5467817D01*
X9049619Y5502879D01*
X9034332Y5531000D01*
X9033089Y5532146D01*
X9016154Y5543332D01*
X8983170Y5562096D01*
X8938380Y5586125D01*
X8886032Y5613103D01*
X8866742Y5622799D01*
X8720150Y5695986D01*
X8879393Y5775760D01*
X8934415Y5804233D01*
X8982132Y5830650D01*
X9018893Y5852852D01*
X9041044Y5868681D01*
X9045741Y5874046D01*
X9052102Y5915743D01*
X9038733Y5950151D01*
X9024446Y5960272D01*
X8992692Y5977786D01*
X8946597Y6001265D01*
X8889285Y6029280D01*
X8823880Y6060401D01*
X8753507Y6093201D01*
X8681291Y6126250D01*
X8610355Y6158119D01*
X8543825Y6187381D01*
X8484826Y6212605D01*
X8436481Y6232364D01*
X8401915Y6245228D01*
X8384253Y6249769D01*
X8383613Y6249723D01*
X8361388Y6238674D01*
X8338753Y6216590D01*
X8337768Y6215290D01*
X8322425Y6188147D01*
X8322574Y6163042D01*
X8325466Y6153632D01*
X8331718Y6142166D01*
X8344014Y6129990D01*
X8364908Y6115643D01*
X8396949Y6097664D01*
X8442688Y6074593D01*
X8504677Y6044970D01*
X8561898Y6018255D01*
X8628226Y5987520D01*
X8687874Y5959979D01*
X8737725Y5937062D01*
X8774664Y5920202D01*
X8795573Y5910827D01*
X8798845Y5909460D01*
X8793497Y5903311D01*
X8771109Y5889178D01*
X8734946Y5868943D01*
X8688277Y5844485D01*
X8669022Y5834752D01*
X8604004Y5801783D01*
X8556654Y5776357D01*
X8524219Y5756388D01*
X8503946Y5739790D01*
X8493082Y5724476D01*
X8488875Y5708360D01*
X8488400Y5697857D01*
X8490042Y5679330D01*
X8496831Y5663096D01*
X8511566Y5646965D01*
X8537044Y5628749D01*
X8576061Y5606261D01*
X8631414Y5577311D01*
X8662903Y5561338D01*
X8713087Y5535430D01*
X8754704Y5512833D01*
X8784242Y5495542D01*
X8798189Y5485550D01*
X8798770Y5484191D01*
X8787793Y5477739D01*
X8759290Y5463292D01*
X8716244Y5442297D01*
X8661638Y5416203D01*
X8598454Y5386454D01*
X8567071Y5371820D01*
X8486078Y5333750D01*
X8423756Y5303095D01*
X8378071Y5278263D01*
X8346989Y5257663D01*
X8328478Y5239702D01*
X8320504Y5222790D01*
X8321034Y5205335D01*
X8321034Y5205335D01*
G37*
X8321034Y5205335D02*
X8328035Y5185745D01*
X8328377Y5184990D01*
X8348678Y5158387D01*
X8369561Y5143730D01*
X8379352Y5140862D01*
X8392361Y5141004D01*
X8410895Y5145039D01*
X8437257Y5153854D01*
X8473752Y5168331D01*
X8522687Y5189355D01*
X8586365Y5217812D01*
X8667093Y5254585D01*
X8711216Y5274825D01*
X8789985Y5311375D01*
X8862423Y5345685D01*
X8925880Y5376448D01*
X8977708Y5402352D01*
X9015259Y5422090D01*
X9035884Y5434350D01*
X9038733Y5436776D01*
X9051302Y5467817D01*
X9049619Y5502879D01*
X9034332Y5531000D01*
X9033089Y5532146D01*
X9016154Y5543332D01*
X8983170Y5562096D01*
X8938380Y5586125D01*
X8886032Y5613103D01*
X8866742Y5622799D01*
X8720150Y5695986D01*
X8879393Y5775760D01*
X8934415Y5804233D01*
X8982132Y5830650D01*
X9018893Y5852852D01*
X9041044Y5868681D01*
X9045741Y5874046D01*
X9052102Y5915743D01*
X9038733Y5950151D01*
X9024446Y5960272D01*
X8992692Y5977786D01*
X8946597Y6001265D01*
X8889285Y6029280D01*
X8823880Y6060401D01*
X8753507Y6093201D01*
X8681291Y6126250D01*
X8610355Y6158119D01*
X8543825Y6187381D01*
X8484826Y6212605D01*
X8436481Y6232364D01*
X8401915Y6245228D01*
X8384253Y6249769D01*
X8383613Y6249723D01*
X8361388Y6238674D01*
X8338753Y6216590D01*
X8337768Y6215290D01*
X8322425Y6188147D01*
X8322574Y6163042D01*
X8325466Y6153632D01*
X8331718Y6142166D01*
X8344014Y6129990D01*
X8364908Y6115643D01*
X8396949Y6097664D01*
X8442688Y6074593D01*
X8504677Y6044970D01*
X8561898Y6018255D01*
X8628226Y5987520D01*
X8687874Y5959979D01*
X8737725Y5937062D01*
X8774664Y5920202D01*
X8795573Y5910827D01*
X8798845Y5909460D01*
X8793497Y5903311D01*
X8771109Y5889178D01*
X8734946Y5868943D01*
X8688277Y5844485D01*
X8669022Y5834752D01*
X8604004Y5801783D01*
X8556654Y5776357D01*
X8524219Y5756388D01*
X8503946Y5739790D01*
X8493082Y5724476D01*
X8488875Y5708360D01*
X8488400Y5697857D01*
X8490042Y5679330D01*
X8496831Y5663096D01*
X8511566Y5646965D01*
X8537044Y5628749D01*
X8576061Y5606261D01*
X8631414Y5577311D01*
X8662903Y5561338D01*
X8713087Y5535430D01*
X8754704Y5512833D01*
X8784242Y5495542D01*
X8798189Y5485550D01*
X8798770Y5484191D01*
X8787793Y5477739D01*
X8759290Y5463292D01*
X8716244Y5442297D01*
X8661638Y5416203D01*
X8598454Y5386454D01*
X8567071Y5371820D01*
X8486078Y5333750D01*
X8423756Y5303095D01*
X8378071Y5278263D01*
X8346989Y5257663D01*
X8328478Y5239702D01*
X8320504Y5222790D01*
X8321034Y5205335D01*
G36*
X8325877Y4761386D02*
G01*
X8340647Y4737673D01*
X8362227Y4711022D01*
X8683773Y4711022D01*
X8777830Y4711107D01*
X8851932Y4711471D01*
X8908704Y4712276D01*
X8950768Y4713687D01*
X8980748Y4715867D01*
X9001267Y4718979D01*
X9014949Y4723186D01*
X9024416Y4728652D01*
X9029082Y4732528D01*
X9049575Y4763966D01*
X9048739Y4799767D01*
X9031264Y4831127D01*
X9009684Y4857778D01*
X8362227Y4857778D01*
X8340647Y4831127D01*
X8324949Y4805406D01*
X8319067Y4784400D01*
X8325877Y4761386D01*
X8325877Y4761386D01*
G37*
X8325877Y4761386D02*
X8340647Y4737673D01*
X8362227Y4711022D01*
X8683773Y4711022D01*
X8777830Y4711107D01*
X8851932Y4711471D01*
X8908704Y4712276D01*
X8950768Y4713687D01*
X8980748Y4715867D01*
X9001267Y4718979D01*
X9014949Y4723186D01*
X9024416Y4728652D01*
X9029082Y4732528D01*
X9049575Y4763966D01*
X9048739Y4799767D01*
X9031264Y4831127D01*
X9009684Y4857778D01*
X8362227Y4857778D01*
X8340647Y4831127D01*
X8324949Y4805406D01*
X8319067Y4784400D01*
X8325877Y4761386D01*
G36*
X8319163Y3986935D02*
G01*
X8319542Y3908228D01*
X8320333Y3847137D01*
X8321670Y3801183D01*
X8323683Y3767886D01*
X8326506Y3744764D01*
X8330269Y3729338D01*
X8335105Y3719129D01*
X8338822Y3714187D01*
X8371358Y3688543D01*
X8405138Y3685441D01*
X8435826Y3701289D01*
X8448089Y3711652D01*
X8456450Y3722804D01*
X8461657Y3738965D01*
X8464457Y3764358D01*
X8465596Y3803202D01*
X8465821Y3859720D01*
X8465822Y3870820D01*
X8465822Y4016756D01*
X8736756Y4016756D01*
X8822154Y4016852D01*
X8887864Y4017289D01*
X8936774Y4018288D01*
X8971773Y4020072D01*
X8995749Y4022863D01*
X9011593Y4026883D01*
X9022191Y4032355D01*
X9030267Y4039334D01*
X9050112Y4072266D01*
X9048548Y4106646D01*
X9025906Y4137824D01*
X9023100Y4140114D01*
X9012492Y4147571D01*
X9000081Y4153253D01*
X8982850Y4157399D01*
X8957784Y4160250D01*
X8921867Y4162046D01*
X8872083Y4163028D01*
X8805417Y4163436D01*
X8729589Y4163511D01*
X8465822Y4163511D01*
X8465822Y4302873D01*
X8465418Y4362678D01*
X8463840Y4404082D01*
X8460547Y4431252D01*
X8454992Y4448354D01*
X8446631Y4459557D01*
X8445178Y4460917D01*
X8411939Y4477275D01*
X8374362Y4475828D01*
X8341645Y4457022D01*
X8335298Y4449750D01*
X8330266Y4440373D01*
X8326396Y4426391D01*
X8323537Y4405304D01*
X8321535Y4374611D01*
X8320239Y4331811D01*
X8319498Y4274405D01*
X8319158Y4199890D01*
X8319068Y4105767D01*
X8319067Y4085740D01*
X8319163Y3986935D01*
X8319163Y3986935D01*
G37*
X8319163Y3986935D02*
X8319542Y3908228D01*
X8320333Y3847137D01*
X8321670Y3801183D01*
X8323683Y3767886D01*
X8326506Y3744764D01*
X8330269Y3729338D01*
X8335105Y3719129D01*
X8338822Y3714187D01*
X8371358Y3688543D01*
X8405138Y3685441D01*
X8435826Y3701289D01*
X8448089Y3711652D01*
X8456450Y3722804D01*
X8461657Y3738965D01*
X8464457Y3764358D01*
X8465596Y3803202D01*
X8465821Y3859720D01*
X8465822Y3870820D01*
X8465822Y4016756D01*
X8736756Y4016756D01*
X8822154Y4016852D01*
X8887864Y4017289D01*
X8936774Y4018288D01*
X8971773Y4020072D01*
X8995749Y4022863D01*
X9011593Y4026883D01*
X9022191Y4032355D01*
X9030267Y4039334D01*
X9050112Y4072266D01*
X9048548Y4106646D01*
X9025906Y4137824D01*
X9023100Y4140114D01*
X9012492Y4147571D01*
X9000081Y4153253D01*
X8982850Y4157399D01*
X8957784Y4160250D01*
X8921867Y4162046D01*
X8872083Y4163028D01*
X8805417Y4163436D01*
X8729589Y4163511D01*
X8465822Y4163511D01*
X8465822Y4302873D01*
X8465418Y4362678D01*
X8463840Y4404082D01*
X8460547Y4431252D01*
X8454992Y4448354D01*
X8446631Y4459557D01*
X8445178Y4460917D01*
X8411939Y4477275D01*
X8374362Y4475828D01*
X8341645Y4457022D01*
X8335298Y4449750D01*
X8330266Y4440373D01*
X8326396Y4426391D01*
X8323537Y4405304D01*
X8321535Y4374611D01*
X8320239Y4331811D01*
X8319498Y4274405D01*
X8319158Y4199890D01*
X8319068Y4105767D01*
X8319067Y4085740D01*
X8319163Y3986935D01*
G36*
X8324533Y2721177D02*
G01*
X8346776Y2689798D01*
X8374485Y2662089D01*
X8683920Y2662089D01*
X8775799Y2662162D01*
X8847840Y2662505D01*
X8902780Y2663308D01*
X8943360Y2664759D01*
X8972317Y2667048D01*
X8992391Y2670364D01*
X9006321Y2674895D01*
X9016845Y2680831D01*
X9023100Y2685486D01*
X9047673Y2716217D01*
X9050341Y2751504D01*
X9035271Y2783755D01*
X9026374Y2794412D01*
X9014557Y2801536D01*
X8995526Y2805833D01*
X8964992Y2808009D01*
X8918662Y2808772D01*
X8882871Y2808845D01*
X8748045Y2808845D01*
X8748045Y3305556D01*
X8870700Y3305556D01*
X8926787Y3306069D01*
X8965333Y3308124D01*
X8991361Y3312492D01*
X9009897Y3319944D01*
X9023100Y3328953D01*
X9047604Y3359856D01*
X9050506Y3394804D01*
X9033089Y3428262D01*
X9023959Y3437396D01*
X9011855Y3443848D01*
X8993001Y3448103D01*
X8963620Y3450648D01*
X8919937Y3451971D01*
X8858175Y3452557D01*
X8844000Y3452625D01*
X8727631Y3453109D01*
X8631727Y3453359D01*
X8554177Y3453277D01*
X8492869Y3452769D01*
X8445690Y3451738D01*
X8410530Y3450087D01*
X8385276Y3447721D01*
X8367817Y3444543D01*
X8356041Y3440456D01*
X8347835Y3435366D01*
X8341645Y3429734D01*
X8321844Y3397872D01*
X8324533Y3364643D01*
X8346776Y3333265D01*
X8361126Y3320567D01*
X8376978Y3312474D01*
X8399554Y3307958D01*
X8434078Y3305994D01*
X8485776Y3305556D01*
X8601289Y3305556D01*
X8601289Y2808845D01*
X8482756Y2808845D01*
X8428148Y2808338D01*
X8391275Y2806302D01*
X8367307Y2801965D01*
X8351415Y2794553D01*
X8341645Y2786267D01*
X8321844Y2754406D01*
X8324533Y2721177D01*
X8324533Y2721177D01*
G37*
X8324533Y2721177D02*
X8346776Y2689798D01*
X8374485Y2662089D01*
X8683920Y2662089D01*
X8775799Y2662162D01*
X8847840Y2662505D01*
X8902780Y2663308D01*
X8943360Y2664759D01*
X8972317Y2667048D01*
X8992391Y2670364D01*
X9006321Y2674895D01*
X9016845Y2680831D01*
X9023100Y2685486D01*
X9047673Y2716217D01*
X9050341Y2751504D01*
X9035271Y2783755D01*
X9026374Y2794412D01*
X9014557Y2801536D01*
X8995526Y2805833D01*
X8964992Y2808009D01*
X8918662Y2808772D01*
X8882871Y2808845D01*
X8748045Y2808845D01*
X8748045Y3305556D01*
X8870700Y3305556D01*
X8926787Y3306069D01*
X8965333Y3308124D01*
X8991361Y3312492D01*
X9009897Y3319944D01*
X9023100Y3328953D01*
X9047604Y3359856D01*
X9050506Y3394804D01*
X9033089Y3428262D01*
X9023959Y3437396D01*
X9011855Y3443848D01*
X8993001Y3448103D01*
X8963620Y3450648D01*
X8919937Y3451971D01*
X8858175Y3452557D01*
X8844000Y3452625D01*
X8727631Y3453109D01*
X8631727Y3453359D01*
X8554177Y3453277D01*
X8492869Y3452769D01*
X8445690Y3451738D01*
X8410530Y3450087D01*
X8385276Y3447721D01*
X8367817Y3444543D01*
X8356041Y3440456D01*
X8347835Y3435366D01*
X8341645Y3429734D01*
X8321844Y3397872D01*
X8324533Y3364643D01*
X8346776Y3333265D01*
X8361126Y3320567D01*
X8376978Y3312474D01*
X8399554Y3307958D01*
X8434078Y3305994D01*
X8485776Y3305556D01*
X8601289Y3305556D01*
X8601289Y2808845D01*
X8482756Y2808845D01*
X8428148Y2808338D01*
X8391275Y2806302D01*
X8367307Y2801965D01*
X8351415Y2794553D01*
X8341645Y2786267D01*
X8321844Y2754406D01*
X8324533Y2721177D01*
G36*
X3999071Y8621571D02*
G01*
X4020245Y8461430D01*
X4060385Y8297490D01*
X4119889Y8127687D01*
X4199154Y7949957D01*
X4204699Y7938690D01*
X4232725Y7880995D01*
X4256802Y7829448D01*
X4275249Y7787809D01*
X4286386Y7759838D01*
X4288933Y7750267D01*
X4293941Y7731050D01*
X4298147Y7726439D01*
X4308580Y7731542D01*
X4334868Y7747582D01*
X4374257Y7772712D01*
X4423991Y7805086D01*
X4481315Y7842857D01*
X4543476Y7884178D01*
X4607718Y7927202D01*
X4671285Y7970083D01*
X4731425Y8010974D01*
X4785380Y8048029D01*
X4830397Y8079400D01*
X4863721Y8103241D01*
X4882597Y8117706D01*
X4884787Y8119691D01*
X4880138Y8129809D01*
X4862962Y8152150D01*
X4836440Y8182720D01*
X4821964Y8198464D01*
X4746682Y8294953D01*
X4691241Y8401664D01*
X4656141Y8517168D01*
X4641880Y8640038D01*
X4643051Y8709439D01*
X4660212Y8830577D01*
X4696094Y8939795D01*
X4750959Y9037418D01*
X4825070Y9123772D01*
X4918688Y9199185D01*
X5032076Y9263982D01*
X5118667Y9301399D01*
X5254366Y9345252D01*
X5401850Y9377572D01*
X5557314Y9398443D01*
X5716956Y9407949D01*
X5876973Y9406173D01*
X6033561Y9393197D01*
X6182918Y9369106D01*
X6321240Y9333982D01*
X6444724Y9287908D01*
X6478978Y9271627D01*
X6593064Y9203380D01*
X6689557Y9122921D01*
X6767670Y9031430D01*
X6826617Y8930089D01*
X6865612Y8820080D01*
X6883868Y8702585D01*
X6885211Y8661117D01*
X6874290Y8539559D01*
X6841474Y8419122D01*
X6787439Y8301334D01*
X6712865Y8187723D01*
X6634539Y8096315D01*
X6590008Y8049785D01*
X6887271Y7868517D01*
X6961433Y7823420D01*
X7029646Y7782181D01*
X7089459Y7746265D01*
X7138420Y7717134D01*
X7174079Y7696250D01*
X7193984Y7685076D01*
X7197079Y7683625D01*
X7206718Y7691854D01*
X7223999Y7717433D01*
X7247283Y7757127D01*
X7274934Y7807703D01*
X7305315Y7865926D01*
X7336790Y7928563D01*
X7367722Y7992379D01*
X7396473Y8054140D01*
X7421408Y8110612D01*
X7440889Y8158562D01*
X7449318Y8182014D01*
X7487133Y8315779D01*
X7512136Y8453673D01*
X7525140Y8601378D01*
X7527468Y8728167D01*
X7526373Y8796122D01*
X7524275Y8861723D01*
X7521434Y8919153D01*
X7518106Y8962597D01*
X7516422Y8976702D01*
X7487587Y9115716D01*
X7442468Y9257243D01*
X7383750Y9394725D01*
X7314120Y9521606D01*
X7261441Y9599111D01*
X7153239Y9726519D01*
X7026671Y9844822D01*
X6884866Y9951828D01*
X6730951Y10045348D01*
X6568053Y10123190D01*
X6450756Y10167044D01*
X6267128Y10217292D01*
X6072581Y10250791D01*
X5871325Y10267551D01*
X5667568Y10267584D01*
X5465521Y10250899D01*
X5269392Y10217507D01*
X5083391Y10167420D01*
X5071803Y10163603D01*
X4909750Y10100719D01*
X4761832Y10023972D01*
X4623865Y9930758D01*
X4491661Y9818473D01*
X4446399Y9774608D01*
X4322457Y9638466D01*
X4219915Y9498509D01*
X4137656Y9352589D01*
X4074564Y9198558D01*
X4029523Y9034268D01*
X4012033Y8938711D01*
X3996466Y8779977D01*
X3999071Y8621571D01*
X3999071Y8621571D01*
G37*
X3999071Y8621571D02*
X4020245Y8461430D01*
X4060385Y8297490D01*
X4119889Y8127687D01*
X4199154Y7949957D01*
X4204699Y7938690D01*
X4232725Y7880995D01*
X4256802Y7829448D01*
X4275249Y7787809D01*
X4286386Y7759838D01*
X4288933Y7750267D01*
X4293941Y7731050D01*
X4298147Y7726439D01*
X4308580Y7731542D01*
X4334868Y7747582D01*
X4374257Y7772712D01*
X4423991Y7805086D01*
X4481315Y7842857D01*
X4543476Y7884178D01*
X4607718Y7927202D01*
X4671285Y7970083D01*
X4731425Y8010974D01*
X4785380Y8048029D01*
X4830397Y8079400D01*
X4863721Y8103241D01*
X4882597Y8117706D01*
X4884787Y8119691D01*
X4880138Y8129809D01*
X4862962Y8152150D01*
X4836440Y8182720D01*
X4821964Y8198464D01*
X4746682Y8294953D01*
X4691241Y8401664D01*
X4656141Y8517168D01*
X4641880Y8640038D01*
X4643051Y8709439D01*
X4660212Y8830577D01*
X4696094Y8939795D01*
X4750959Y9037418D01*
X4825070Y9123772D01*
X4918688Y9199185D01*
X5032076Y9263982D01*
X5118667Y9301399D01*
X5254366Y9345252D01*
X5401850Y9377572D01*
X5557314Y9398443D01*
X5716956Y9407949D01*
X5876973Y9406173D01*
X6033561Y9393197D01*
X6182918Y9369106D01*
X6321240Y9333982D01*
X6444724Y9287908D01*
X6478978Y9271627D01*
X6593064Y9203380D01*
X6689557Y9122921D01*
X6767670Y9031430D01*
X6826617Y8930089D01*
X6865612Y8820080D01*
X6883868Y8702585D01*
X6885211Y8661117D01*
X6874290Y8539559D01*
X6841474Y8419122D01*
X6787439Y8301334D01*
X6712865Y8187723D01*
X6634539Y8096315D01*
X6590008Y8049785D01*
X6887271Y7868517D01*
X6961433Y7823420D01*
X7029646Y7782181D01*
X7089459Y7746265D01*
X7138420Y7717134D01*
X7174079Y7696250D01*
X7193984Y7685076D01*
X7197079Y7683625D01*
X7206718Y7691854D01*
X7223999Y7717433D01*
X7247283Y7757127D01*
X7274934Y7807703D01*
X7305315Y7865926D01*
X7336790Y7928563D01*
X7367722Y7992379D01*
X7396473Y8054140D01*
X7421408Y8110612D01*
X7440889Y8158562D01*
X7449318Y8182014D01*
X7487133Y8315779D01*
X7512136Y8453673D01*
X7525140Y8601378D01*
X7527468Y8728167D01*
X7526373Y8796122D01*
X7524275Y8861723D01*
X7521434Y8919153D01*
X7518106Y8962597D01*
X7516422Y8976702D01*
X7487587Y9115716D01*
X7442468Y9257243D01*
X7383750Y9394725D01*
X7314120Y9521606D01*
X7261441Y9599111D01*
X7153239Y9726519D01*
X7026671Y9844822D01*
X6884866Y9951828D01*
X6730951Y10045348D01*
X6568053Y10123190D01*
X6450756Y10167044D01*
X6267128Y10217292D01*
X6072581Y10250791D01*
X5871325Y10267551D01*
X5667568Y10267584D01*
X5465521Y10250899D01*
X5269392Y10217507D01*
X5083391Y10167420D01*
X5071803Y10163603D01*
X4909750Y10100719D01*
X4761832Y10023972D01*
X4623865Y9930758D01*
X4491661Y9818473D01*
X4446399Y9774608D01*
X4322457Y9638466D01*
X4219915Y9498509D01*
X4137656Y9352589D01*
X4074564Y9198558D01*
X4029523Y9034268D01*
X4012033Y8938711D01*
X3996466Y8779977D01*
X3999071Y8621571D01*
G36*
X4916552Y6276426D02*
G01*
X4936567Y6124508D01*
X4970202Y5989244D01*
X5017725Y5869761D01*
X5079405Y5765185D01*
X5142965Y5687576D01*
X5217099Y5618735D01*
X5296871Y5564994D01*
X5389091Y5522090D01*
X5432161Y5506616D01*
X5471142Y5493756D01*
X5507289Y5482554D01*
X5542434Y5472880D01*
X5578410Y5464604D01*
X5617050Y5457597D01*
X5660185Y5451728D01*
X5709649Y5446869D01*
X5767273Y5442890D01*
X5834891Y5439660D01*
X5914334Y5437051D01*
X6007436Y5434933D01*
X6116027Y5433176D01*
X6241942Y5431651D01*
X6387012Y5430228D01*
X6529778Y5428975D01*
X6685968Y5427649D01*
X6821239Y5426444D01*
X6937246Y5425234D01*
X7035645Y5423894D01*
X7118093Y5422300D01*
X7186246Y5420325D01*
X7241760Y5417844D01*
X7286292Y5414731D01*
X7321498Y5410862D01*
X7349034Y5406111D01*
X7370556Y5400352D01*
X7387722Y5393461D01*
X7402186Y5385311D01*
X7415606Y5375777D01*
X7429638Y5364734D01*
X7435071Y5360434D01*
X7457910Y5344614D01*
X7473463Y5337578D01*
X7473922Y5337556D01*
X7476121Y5348433D01*
X7478147Y5379418D01*
X7479942Y5428043D01*
X7481451Y5491837D01*
X7482616Y5568331D01*
X7483380Y5655056D01*
X7483686Y5749543D01*
X7483689Y5760450D01*
X7483689Y6183343D01*
X7387622Y6186605D01*
X7291556Y6189867D01*
X7342543Y6251956D01*
X7410057Y6349286D01*
X7464749Y6459187D01*
X7494978Y6545651D01*
X7509666Y6614722D01*
X7519659Y6698075D01*
X7524646Y6787841D01*
X7524313Y6876155D01*
X7518351Y6955149D01*
X7512638Y6991378D01*
X7474776Y7131397D01*
X7419932Y7257822D01*
X7348924Y7369740D01*
X7262568Y7466238D01*
X7161679Y7546400D01*
X7047076Y7609313D01*
X6920984Y7653688D01*
X6864401Y7666022D01*
X6802202Y7673632D01*
X6727363Y7677261D01*
X6693467Y7677755D01*
X6690282Y7677690D01*
X6690282Y6917752D01*
X6765333Y6908459D01*
X6829160Y6880272D01*
X6884798Y6831803D01*
X6889211Y6826746D01*
X6924037Y6778452D01*
X6946620Y6726743D01*
X6958540Y6666011D01*
X6961383Y6590648D01*
X6960978Y6572541D01*
X6958325Y6518722D01*
X6952909Y6478692D01*
X6942745Y6443676D01*
X6925850Y6404897D01*
X6920672Y6394255D01*
X6884844Y6333604D01*
X6842212Y6286785D01*
X6826973Y6274048D01*
X6770462Y6229378D01*
X6574586Y6229378D01*
X6495939Y6229914D01*
X6437988Y6231604D01*
X6398875Y6234572D01*
X6376741Y6238943D01*
X6370274Y6243028D01*
X6367111Y6258953D01*
X6364488Y6292736D01*
X6362655Y6339660D01*
X6361857Y6395007D01*
X6361842Y6403894D01*
X6367096Y6524670D01*
X6383263Y6627340D01*
X6410961Y6713894D01*
X6450808Y6786319D01*
X6497758Y6841249D01*
X6555645Y6885796D01*
X6618693Y6910520D01*
X6690282Y6917752D01*
X6690282Y7677690D01*
X6599712Y7675822D01*
X6520812Y7667478D01*
X6449590Y7651232D01*
X6378864Y7625595D01*
X6326493Y7601599D01*
X6231196Y7542980D01*
X6143170Y7464883D01*
X6064017Y7369685D01*
X5995340Y7259762D01*
X5938741Y7137490D01*
X5895821Y7005245D01*
X5880882Y6940578D01*
X5858777Y6804396D01*
X5844194Y6655951D01*
X5837813Y6504495D01*
X5839445Y6377936D01*
X5846224Y6216050D01*
X5787245Y6223470D01*
X5688092Y6242762D01*
X5607372Y6273896D01*
X5544466Y6317731D01*
X5498756Y6375129D01*
X5469622Y6446952D01*
X5456447Y6534059D01*
X5458611Y6637314D01*
X5462612Y6675289D01*
X5487780Y6816480D01*
X5528814Y6953293D01*
X5566815Y7047822D01*
X5586190Y7092982D01*
X5601760Y7131415D01*
X5611405Y7157766D01*
X5613452Y7165454D01*
X5604374Y7175198D01*
X5575405Y7191917D01*
X5526217Y7215768D01*
X5456484Y7246907D01*
X5365879Y7285493D01*
X5350089Y7292090D01*
X5277772Y7322147D01*
X5212425Y7349126D01*
X5156906Y7371864D01*
X5114072Y7389194D01*
X5086781Y7399952D01*
X5077942Y7403059D01*
X5073187Y7393060D01*
X5067910Y7366783D01*
X5064231Y7338511D01*
X5059474Y7308354D01*
X5050028Y7260567D01*
X5036820Y7199388D01*
X5020776Y7129054D01*
X5002820Y7053806D01*
X4995797Y7025245D01*
X4970209Y6920184D01*
X4950147Y6832520D01*
X4934969Y6757932D01*
X4924035Y6692097D01*
X4916704Y6630693D01*
X4912335Y6569398D01*
X4910287Y6503890D01*
X4909889Y6445872D01*
X4916552Y6276426D01*
X4916552Y6276426D01*
G37*
X4916552Y6276426D02*
X4936567Y6124508D01*
X4970202Y5989244D01*
X5017725Y5869761D01*
X5079405Y5765185D01*
X5142965Y5687576D01*
X5217099Y5618735D01*
X5296871Y5564994D01*
X5389091Y5522090D01*
X5432161Y5506616D01*
X5471142Y5493756D01*
X5507289Y5482554D01*
X5542434Y5472880D01*
X5578410Y5464604D01*
X5617050Y5457597D01*
X5660185Y5451728D01*
X5709649Y5446869D01*
X5767273Y5442890D01*
X5834891Y5439660D01*
X5914334Y5437051D01*
X6007436Y5434933D01*
X6116027Y5433176D01*
X6241942Y5431651D01*
X6387012Y5430228D01*
X6529778Y5428975D01*
X6685968Y5427649D01*
X6821239Y5426444D01*
X6937246Y5425234D01*
X7035645Y5423894D01*
X7118093Y5422300D01*
X7186246Y5420325D01*
X7241760Y5417844D01*
X7286292Y5414731D01*
X7321498Y5410862D01*
X7349034Y5406111D01*
X7370556Y5400352D01*
X7387722Y5393461D01*
X7402186Y5385311D01*
X7415606Y5375777D01*
X7429638Y5364734D01*
X7435071Y5360434D01*
X7457910Y5344614D01*
X7473463Y5337578D01*
X7473922Y5337556D01*
X7476121Y5348433D01*
X7478147Y5379418D01*
X7479942Y5428043D01*
X7481451Y5491837D01*
X7482616Y5568331D01*
X7483380Y5655056D01*
X7483686Y5749543D01*
X7483689Y5760450D01*
X7483689Y6183343D01*
X7387622Y6186605D01*
X7291556Y6189867D01*
X7342543Y6251956D01*
X7410057Y6349286D01*
X7464749Y6459187D01*
X7494978Y6545651D01*
X7509666Y6614722D01*
X7519659Y6698075D01*
X7524646Y6787841D01*
X7524313Y6876155D01*
X7518351Y6955149D01*
X7512638Y6991378D01*
X7474776Y7131397D01*
X7419932Y7257822D01*
X7348924Y7369740D01*
X7262568Y7466238D01*
X7161679Y7546400D01*
X7047076Y7609313D01*
X6920984Y7653688D01*
X6864401Y7666022D01*
X6802202Y7673632D01*
X6727363Y7677261D01*
X6693467Y7677755D01*
X6690282Y7677690D01*
X6690282Y6917752D01*
X6765333Y6908459D01*
X6829160Y6880272D01*
X6884798Y6831803D01*
X6889211Y6826746D01*
X6924037Y6778452D01*
X6946620Y6726743D01*
X6958540Y6666011D01*
X6961383Y6590648D01*
X6960978Y6572541D01*
X6958325Y6518722D01*
X6952909Y6478692D01*
X6942745Y6443676D01*
X6925850Y6404897D01*
X6920672Y6394255D01*
X6884844Y6333604D01*
X6842212Y6286785D01*
X6826973Y6274048D01*
X6770462Y6229378D01*
X6574586Y6229378D01*
X6495939Y6229914D01*
X6437988Y6231604D01*
X6398875Y6234572D01*
X6376741Y6238943D01*
X6370274Y6243028D01*
X6367111Y6258953D01*
X6364488Y6292736D01*
X6362655Y6339660D01*
X6361857Y6395007D01*
X6361842Y6403894D01*
X6367096Y6524670D01*
X6383263Y6627340D01*
X6410961Y6713894D01*
X6450808Y6786319D01*
X6497758Y6841249D01*
X6555645Y6885796D01*
X6618693Y6910520D01*
X6690282Y6917752D01*
X6690282Y7677690D01*
X6599712Y7675822D01*
X6520812Y7667478D01*
X6449590Y7651232D01*
X6378864Y7625595D01*
X6326493Y7601599D01*
X6231196Y7542980D01*
X6143170Y7464883D01*
X6064017Y7369685D01*
X5995340Y7259762D01*
X5938741Y7137490D01*
X5895821Y7005245D01*
X5880882Y6940578D01*
X5858777Y6804396D01*
X5844194Y6655951D01*
X5837813Y6504495D01*
X5839445Y6377936D01*
X5846224Y6216050D01*
X5787245Y6223470D01*
X5688092Y6242762D01*
X5607372Y6273896D01*
X5544466Y6317731D01*
X5498756Y6375129D01*
X5469622Y6446952D01*
X5456447Y6534059D01*
X5458611Y6637314D01*
X5462612Y6675289D01*
X5487780Y6816480D01*
X5528814Y6953293D01*
X5566815Y7047822D01*
X5586190Y7092982D01*
X5601760Y7131415D01*
X5611405Y7157766D01*
X5613452Y7165454D01*
X5604374Y7175198D01*
X5575405Y7191917D01*
X5526217Y7215768D01*
X5456484Y7246907D01*
X5365879Y7285493D01*
X5350089Y7292090D01*
X5277772Y7322147D01*
X5212425Y7349126D01*
X5156906Y7371864D01*
X5114072Y7389194D01*
X5086781Y7399952D01*
X5077942Y7403059D01*
X5073187Y7393060D01*
X5067910Y7366783D01*
X5064231Y7338511D01*
X5059474Y7308354D01*
X5050028Y7260567D01*
X5036820Y7199388D01*
X5020776Y7129054D01*
X5002820Y7053806D01*
X4995797Y7025245D01*
X4970209Y6920184D01*
X4950147Y6832520D01*
X4934969Y6757932D01*
X4924035Y6692097D01*
X4916704Y6630693D01*
X4912335Y6569398D01*
X4910287Y6503890D01*
X4909889Y6445872D01*
X4916552Y6276426D01*
G36*
X5522245Y2763493D02*
G01*
X5756662Y2763474D01*
X5969603Y2763448D01*
X6162168Y2763375D01*
X6335459Y2763218D01*
X6490576Y2762936D01*
X6628620Y2762491D01*
X6750692Y2761844D01*
X6857894Y2760955D01*
X6951326Y2759787D01*
X7032090Y2758299D01*
X7101286Y2756454D01*
X7160015Y2754211D01*
X7209379Y2751531D01*
X7250478Y2748377D01*
X7284413Y2744708D01*
X7312286Y2740487D01*
X7335198Y2735673D01*
X7354249Y2730227D01*
X7370540Y2724112D01*
X7385173Y2717288D01*
X7399249Y2709715D01*
X7413868Y2701355D01*
X7422974Y2696161D01*
X7483689Y2661896D01*
X7483689Y3520045D01*
X7387733Y3520045D01*
X7344370Y3520776D01*
X7311205Y3522728D01*
X7293424Y3525537D01*
X7291778Y3526779D01*
X7298662Y3538201D01*
X7316505Y3560916D01*
X7335879Y3583615D01*
X7376614Y3638200D01*
X7417617Y3707679D01*
X7455123Y3784730D01*
X7485364Y3862035D01*
X7495012Y3892887D01*
X7509578Y3961384D01*
X7519539Y4044236D01*
X7524583Y4133629D01*
X7524396Y4221752D01*
X7518666Y4300793D01*
X7512858Y4338489D01*
X7474797Y4476586D01*
X7417073Y4603887D01*
X7340211Y4719708D01*
X7244739Y4823363D01*
X7131179Y4914167D01*
X7020381Y4980969D01*
X6903625Y5035836D01*
X6784276Y5077837D01*
X6658283Y5107833D01*
X6521594Y5126689D01*
X6370158Y5135268D01*
X6292711Y5135994D01*
X6235934Y5133900D01*
X6235934Y4304783D01*
X6329002Y4304576D01*
X6416692Y4301663D01*
X6493772Y4296000D01*
X6555009Y4287545D01*
X6567350Y4284962D01*
X6674633Y4253160D01*
X6761658Y4211502D01*
X6828642Y4159637D01*
X6875805Y4097219D01*
X6903365Y4023900D01*
X6911541Y3939331D01*
X6900551Y3843165D01*
X6884829Y3779689D01*
X6866639Y3730546D01*
X6840791Y3676417D01*
X6817089Y3635756D01*
X6770721Y3565200D01*
X5620530Y3565200D01*
X5576962Y3632608D01*
X5536040Y3711133D01*
X5509389Y3795319D01*
X5497465Y3880443D01*
X5500722Y3961784D01*
X5519615Y4034620D01*
X5535184Y4066574D01*
X5578181Y4124499D01*
X5634953Y4173456D01*
X5707575Y4214610D01*
X5798121Y4249126D01*
X5908666Y4278167D01*
X5914533Y4279448D01*
X5976788Y4289619D01*
X6054594Y4297261D01*
X6142720Y4302330D01*
X6235934Y4304783D01*
X6235934Y5133900D01*
X6079895Y5128143D01*
X5884059Y5106198D01*
X5705332Y5070214D01*
X5543845Y5020241D01*
X5399726Y4956332D01*
X5273106Y4878538D01*
X5164115Y4786911D01*
X5072883Y4681503D01*
X5041932Y4636338D01*
X4985785Y4535389D01*
X4946174Y4432099D01*
X4922014Y4322011D01*
X4912219Y4200670D01*
X4913265Y4108164D01*
X4924231Y3978510D01*
X4946046Y3865916D01*
X4979714Y3767125D01*
X5026236Y3678879D01*
X5060448Y3630014D01*
X5082362Y3600647D01*
X5097333Y3578957D01*
X5101733Y3570747D01*
X5090904Y3569132D01*
X5060251Y3567841D01*
X5012526Y3566862D01*
X4950479Y3566183D01*
X4876862Y3565790D01*
X4794427Y3565670D01*
X4705925Y3565812D01*
X4614107Y3566203D01*
X4521724Y3566829D01*
X4431528Y3567680D01*
X4346271Y3568740D01*
X4268703Y3569999D01*
X4201576Y3571444D01*
X4147641Y3573062D01*
X4109650Y3574839D01*
X4102667Y3575331D01*
X4032251Y3582908D01*
X3977102Y3594469D01*
X3929981Y3612208D01*
X3883647Y3638318D01*
X3874067Y3644585D01*
X3837378Y3669017D01*
X3837378Y2763689D01*
X5522245Y2763493D01*
X5522245Y2763493D01*
G37*
X5522245Y2763493D02*
X5756662Y2763474D01*
X5969603Y2763448D01*
X6162168Y2763375D01*
X6335459Y2763218D01*
X6490576Y2762936D01*
X6628620Y2762491D01*
X6750692Y2761844D01*
X6857894Y2760955D01*
X6951326Y2759787D01*
X7032090Y2758299D01*
X7101286Y2756454D01*
X7160015Y2754211D01*
X7209379Y2751531D01*
X7250478Y2748377D01*
X7284413Y2744708D01*
X7312286Y2740487D01*
X7335198Y2735673D01*
X7354249Y2730227D01*
X7370540Y2724112D01*
X7385173Y2717288D01*
X7399249Y2709715D01*
X7413868Y2701355D01*
X7422974Y2696161D01*
X7483689Y2661896D01*
X7483689Y3520045D01*
X7387733Y3520045D01*
X7344370Y3520776D01*
X7311205Y3522728D01*
X7293424Y3525537D01*
X7291778Y3526779D01*
X7298662Y3538201D01*
X7316505Y3560916D01*
X7335879Y3583615D01*
X7376614Y3638200D01*
X7417617Y3707679D01*
X7455123Y3784730D01*
X7485364Y3862035D01*
X7495012Y3892887D01*
X7509578Y3961384D01*
X7519539Y4044236D01*
X7524583Y4133629D01*
X7524396Y4221752D01*
X7518666Y4300793D01*
X7512858Y4338489D01*
X7474797Y4476586D01*
X7417073Y4603887D01*
X7340211Y4719708D01*
X7244739Y4823363D01*
X7131179Y4914167D01*
X7020381Y4980969D01*
X6903625Y5035836D01*
X6784276Y5077837D01*
X6658283Y5107833D01*
X6521594Y5126689D01*
X6370158Y5135268D01*
X6292711Y5135994D01*
X6235934Y5133900D01*
X6235934Y4304783D01*
X6329002Y4304576D01*
X6416692Y4301663D01*
X6493772Y4296000D01*
X6555009Y4287545D01*
X6567350Y4284962D01*
X6674633Y4253160D01*
X6761658Y4211502D01*
X6828642Y4159637D01*
X6875805Y4097219D01*
X6903365Y4023900D01*
X6911541Y3939331D01*
X6900551Y3843165D01*
X6884829Y3779689D01*
X6866639Y3730546D01*
X6840791Y3676417D01*
X6817089Y3635756D01*
X6770721Y3565200D01*
X5620530Y3565200D01*
X5576962Y3632608D01*
X5536040Y3711133D01*
X5509389Y3795319D01*
X5497465Y3880443D01*
X5500722Y3961784D01*
X5519615Y4034620D01*
X5535184Y4066574D01*
X5578181Y4124499D01*
X5634953Y4173456D01*
X5707575Y4214610D01*
X5798121Y4249126D01*
X5908666Y4278167D01*
X5914533Y4279448D01*
X5976788Y4289619D01*
X6054594Y4297261D01*
X6142720Y4302330D01*
X6235934Y4304783D01*
X6235934Y5133900D01*
X6079895Y5128143D01*
X5884059Y5106198D01*
X5705332Y5070214D01*
X5543845Y5020241D01*
X5399726Y4956332D01*
X5273106Y4878538D01*
X5164115Y4786911D01*
X5072883Y4681503D01*
X5041932Y4636338D01*
X4985785Y4535389D01*
X4946174Y4432099D01*
X4922014Y4322011D01*
X4912219Y4200670D01*
X4913265Y4108164D01*
X4924231Y3978510D01*
X4946046Y3865916D01*
X4979714Y3767125D01*
X5026236Y3678879D01*
X5060448Y3630014D01*
X5082362Y3600647D01*
X5097333Y3578957D01*
X5101733Y3570747D01*
X5090904Y3569132D01*
X5060251Y3567841D01*
X5012526Y3566862D01*
X4950479Y3566183D01*
X4876862Y3565790D01*
X4794427Y3565670D01*
X4705925Y3565812D01*
X4614107Y3566203D01*
X4521724Y3566829D01*
X4431528Y3567680D01*
X4346271Y3568740D01*
X4268703Y3569999D01*
X4201576Y3571444D01*
X4147641Y3573062D01*
X4109650Y3574839D01*
X4102667Y3575331D01*
X4032251Y3582908D01*
X3977102Y3594469D01*
X3929981Y3612208D01*
X3883647Y3638318D01*
X3874067Y3644585D01*
X3837378Y3669017D01*
X3837378Y2763689D01*
X5522245Y2763493D01*
D13*
X14170000Y10140000D02*
X14630000Y10140000D01*
X14170000Y10050000D02*
X14170000Y10000000D01*
X14200000Y10100000D02*
X14170000Y10050000D01*
X14220000Y10120000D02*
X14200000Y10100000D01*
X14290000Y10140000D02*
X14220000Y10120000D01*
X14630000Y9700000D02*
X14600000Y9650000D01*
X14630000Y9800000D02*
X14630000Y9700000D01*
X14600000Y9840000D02*
X14630000Y9800000D01*
X14530000Y9860000D02*
X14600000Y9840000D01*
X14260000Y9860000D02*
X14530000Y9860000D01*
X14200000Y9830000D02*
X14260000Y9860000D01*
X14170000Y9790000D02*
X14200000Y9830000D01*
X14170000Y9690000D02*
X14170000Y9790000D01*
X14210000Y9650000D02*
X14170000Y9690000D01*
X14280000Y9630000D02*
X14210000Y9650000D01*
X14400000Y9630000D02*
X14280000Y9630000D01*
X14400000Y9630000D02*
X14400000Y9860000D01*
X14260000Y10380000D02*
X14630000Y10380000D01*
X14200000Y10410000D02*
X14260000Y10380000D01*
X14170000Y10450000D02*
X14200000Y10410000D01*
X14170000Y10550000D02*
X14170000Y10450000D01*
X14200000Y10600000D02*
X14170000Y10550000D01*
X14360000Y10540000D02*
X14390000Y10590000D01*
X14360000Y10420000D02*
X14360000Y10540000D01*
X14330000Y10380000D02*
X14360000Y10420000D01*
X14630000Y10430000D02*
X14590000Y10380000D01*
X14630000Y10550000D02*
X14630000Y10430000D01*
X14590000Y10600000D02*
X14630000Y10550000D01*
X14530000Y10620000D02*
X14590000Y10600000D01*
X14460000Y10620000D02*
X14530000Y10620000D01*
X14390000Y10590000D02*
X14460000Y10620000D01*
X14170000Y11170000D02*
X14630000Y11070000D01*
X14630000Y11070000D02*
X14290000Y10980000D01*
X14290000Y10980000D02*
X14630000Y10880000D01*
X14630000Y10880000D02*
X14170000Y10780000D01*
X14600000Y11360000D02*
X14630000Y11400000D01*
X14630000Y11400000D02*
X14630000Y11510000D01*
X14630000Y11510000D02*
X14600000Y11550000D01*
X14600000Y11550000D02*
X14570000Y11570000D01*
X14570000Y11570000D02*
X14500000Y11600000D01*
X14500000Y11600000D02*
X14300000Y11600000D01*
X14300000Y11600000D02*
X14230000Y11570000D01*
X14230000Y11570000D02*
X14200000Y11550000D01*
X14200000Y11550000D02*
X14160000Y11490000D01*
X14160000Y11490000D02*
X14160000Y11420000D01*
X14160000Y11420000D02*
X14200000Y11360000D01*
X13930000Y11360000D02*
X14630000Y11360000D01*
X14290000Y11880000D02*
X14220000Y11860000D01*
X14220000Y11860000D02*
X14200000Y11840000D01*
X14200000Y11840000D02*
X14170000Y11790000D01*
X14170000Y11790000D02*
X14170000Y11740000D01*
X14170000Y11880000D02*
X14630000Y11880000D01*
X14390000Y12330000D02*
X14460000Y12360000D01*
X14460000Y12360000D02*
X14530000Y12360000D01*
X14530000Y12360000D02*
X14590000Y12340000D01*
X14590000Y12340000D02*
X14630000Y12290000D01*
X14630000Y12290000D02*
X14630000Y12170000D01*
X14630000Y12170000D02*
X14590000Y12120000D01*
X14330000Y12120000D02*
X14360000Y12160000D01*
X14360000Y12160000D02*
X14360000Y12280000D01*
X14360000Y12280000D02*
X14390000Y12330000D01*
X14200000Y12340000D02*
X14170000Y12290000D01*
X14170000Y12290000D02*
X14170000Y12190000D01*
X14170000Y12190000D02*
X14200000Y12150000D01*
X14200000Y12150000D02*
X14260000Y12120000D01*
X14260000Y12120000D02*
X14630000Y12120000D01*
X14240000Y12790000D02*
X14200000Y12770000D01*
X14200000Y12770000D02*
X14170000Y12720000D01*
X14170000Y12720000D02*
X14170000Y12640000D01*
X14170000Y12640000D02*
X14200000Y12600000D01*
X14200000Y12600000D02*
X14260000Y12580000D01*
X14260000Y12580000D02*
X14630000Y12580000D01*
X13930000Y12790000D02*
X14630000Y12790000D01*
X14400000Y13840000D02*
X14400000Y14070000D01*
X14230000Y13620000D02*
X14200000Y13600000D01*
X14200000Y13600000D02*
X14170000Y13560000D01*
X14170000Y13560000D02*
X14170000Y13470000D01*
X14170000Y13470000D02*
X14200000Y13430000D01*
X14200000Y13430000D02*
X14260000Y13410000D01*
X14260000Y13410000D02*
X14630000Y13410000D01*
X14170000Y13620000D02*
X14630000Y13620000D01*
X14400000Y13840000D02*
X14280000Y13840000D01*
X14280000Y13840000D02*
X14210000Y13860000D01*
X14210000Y13860000D02*
X14170000Y13900000D01*
X14170000Y13900000D02*
X14170000Y14000000D01*
X14170000Y14000000D02*
X14200000Y14040000D01*
X14200000Y14040000D02*
X14260000Y14070000D01*
X14260000Y14070000D02*
X14530000Y14070000D01*
X14530000Y14070000D02*
X14600000Y14050000D01*
X14600000Y14050000D02*
X14630000Y14010000D01*
X14630000Y14010000D02*
X14630000Y13910000D01*
X14630000Y13910000D02*
X14600000Y13860000D01*
X14200000Y14500000D02*
X14170000Y14460000D01*
X14170000Y14460000D02*
X14170000Y14360000D01*
X14170000Y14360000D02*
X14200000Y14320000D01*
X14200000Y14320000D02*
X14230000Y14290000D01*
X14230000Y14290000D02*
X14290000Y14270000D01*
X14290000Y14270000D02*
X14510000Y14270000D01*
X14510000Y14270000D02*
X14570000Y14290000D01*
X14570000Y14290000D02*
X14600000Y14310000D01*
X14600000Y14310000D02*
X14630000Y14350000D01*
X14630000Y14350000D02*
X14630000Y14450000D01*
X14630000Y14450000D02*
X14600000Y14500000D01*
X14870000Y14500000D02*
X14170000Y14500000D01*
X14170000Y14810000D02*
X14170000Y14890000D01*
X14170000Y14890000D02*
X14200000Y14930000D01*
X14200000Y14930000D02*
X14230000Y14950000D01*
X14230000Y14950000D02*
X14300000Y14980000D01*
X14630000Y14890000D02*
X14630000Y14810000D01*
X14630000Y14810000D02*
X14600000Y14760000D01*
X14600000Y14760000D02*
X14570000Y14740000D01*
X14570000Y14740000D02*
X14500000Y14720000D01*
X14500000Y14720000D02*
X14300000Y14720000D01*
X14300000Y14720000D02*
X14240000Y14740000D01*
X14240000Y14740000D02*
X14210000Y14760000D01*
X14210000Y14760000D02*
X14170000Y14810000D01*
X14300000Y14980000D02*
X14500000Y14980000D01*
X14500000Y14980000D02*
X14560000Y14960000D01*
X14560000Y14960000D02*
X14590000Y14940000D01*
X14590000Y14940000D02*
X14630000Y14890000D01*
D11*
X25300000Y43700000D02*
X25300000Y41300000D01*
X27700000Y43700000D02*
X25300000Y43700000D01*
X27700000Y41300000D02*
X27700000Y43700000D01*
X25300000Y41300000D02*
X27700000Y41300000D01*
X28050000Y43700000D02*
X28050000Y41300000D01*
X30450000Y43700000D02*
X28050000Y43700000D01*
X30450000Y41300000D02*
X30450000Y43700000D01*
X28050000Y41300000D02*
X30450000Y41300000D01*
X17800000Y38700000D02*
X17800000Y36300000D01*
X20200000Y38700000D02*
X17800000Y38700000D01*
X20200000Y36300000D02*
X20200000Y38700000D01*
X17800000Y36300000D02*
X20200000Y36300000D01*
X17800000Y35950000D02*
X17800000Y33550000D01*
X20200000Y35950000D02*
X17800000Y35950000D01*
X20200000Y33550000D02*
X20200000Y35950000D01*
X17800000Y33550000D02*
X20200000Y33550000D01*
X17800000Y33200000D02*
X17800000Y30800000D01*
X20200000Y33200000D02*
X17800000Y33200000D01*
X20200000Y30800000D02*
X20200000Y33200000D01*
X17800000Y30800000D02*
X20200000Y30800000D01*
X51811904Y48416667D02*
X52383333Y48416667D01*
X52497619Y48454762D01*
X52573809Y48530953D01*
X52611904Y48645239D01*
X52611904Y48721429D01*
X52611904Y48035715D02*
X51811904Y48035715D01*
X51811904Y47730953D01*
X51850000Y47654762D01*
X51888095Y47616667D01*
X51964285Y47578572D01*
X52078571Y47578572D01*
X52154761Y47616667D01*
X52192857Y47654762D01*
X52230952Y47730953D01*
X52230952Y48035715D01*
X52611904Y46816667D02*
X52611904Y47273810D01*
X52611904Y47045239D02*
X51811904Y47045239D01*
X51926190Y47121429D01*
X52002380Y47197620D01*
X52040476Y47273810D01*
X22311904Y66416667D02*
X22883333Y66416667D01*
X22997619Y66454762D01*
X23073809Y66530953D01*
X23111904Y66645239D01*
X23111904Y66721429D01*
X23111904Y66035715D02*
X22311904Y66035715D01*
X22311904Y65730953D01*
X22350000Y65654762D01*
X22388095Y65616667D01*
X22464285Y65578572D01*
X22578571Y65578572D01*
X22654761Y65616667D01*
X22692857Y65654762D01*
X22730952Y65730953D01*
X22730952Y66035715D01*
X22388095Y65273810D02*
X22350000Y65235715D01*
X22311904Y65159524D01*
X22311904Y64969048D01*
X22350000Y64892858D01*
X22388095Y64854762D01*
X22464285Y64816667D01*
X22540476Y64816667D01*
X22654761Y64854762D01*
X23111904Y65311905D01*
X23111904Y64816667D01*
X23850000Y68616667D02*
X23811904Y68683334D01*
X23811904Y68783334D01*
X23850000Y68883334D01*
X23926190Y68950000D01*
X24002380Y68983334D01*
X24154761Y69016667D01*
X24269047Y69016667D01*
X24421428Y68983334D01*
X24497619Y68950000D01*
X24573809Y68883334D01*
X24611904Y68783334D01*
X24611904Y68716667D01*
X24573809Y68616667D01*
X24535714Y68583334D01*
X24269047Y68583334D01*
X24269047Y68716667D01*
X24573809Y68316667D02*
X24611904Y68216667D01*
X24611904Y68050000D01*
X24573809Y67983334D01*
X24535714Y67950000D01*
X24459523Y67916667D01*
X24383333Y67916667D01*
X24307142Y67950000D01*
X24269047Y67983334D01*
X24230952Y68050000D01*
X24192857Y68183334D01*
X24154761Y68250000D01*
X24116666Y68283334D01*
X24040476Y68316667D01*
X23964285Y68316667D01*
X23888095Y68283334D01*
X23850000Y68250000D01*
X23811904Y68183334D01*
X23811904Y68016667D01*
X23850000Y67916667D01*
X24611904Y67616667D02*
X23811904Y67616667D01*
X24383333Y67383334D01*
X23811904Y67150000D01*
X24611904Y67150000D01*
X24688095Y66983334D02*
X24688095Y66450000D01*
X24611904Y66283334D02*
X23811904Y66283334D01*
X23811904Y66016667D01*
X23850000Y65950000D01*
X23888095Y65916667D01*
X23964285Y65883334D01*
X24078571Y65883334D01*
X24154761Y65916667D01*
X24192857Y65950000D01*
X24230952Y66016667D01*
X24230952Y66283334D01*
X23811904Y65650000D02*
X24611904Y65483334D01*
X24040476Y65350000D01*
X24611904Y65216667D01*
X23811904Y65050000D01*
X24611904Y64383334D02*
X24230952Y64616667D01*
X24611904Y64783334D02*
X23811904Y64783334D01*
X23811904Y64516667D01*
X23850000Y64450000D01*
X23888095Y64416667D01*
X23964285Y64383334D01*
X24078571Y64383334D01*
X24154761Y64416667D01*
X24192857Y64450000D01*
X24230952Y64516667D01*
X24230952Y64783334D01*
X24688095Y64250000D02*
X24688095Y63716667D01*
X24192857Y63550000D02*
X24192857Y63316667D01*
X24611904Y63216667D02*
X24611904Y63550000D01*
X23811904Y63550000D01*
X23811904Y63216667D01*
X24611904Y62916667D02*
X23811904Y62916667D01*
X24611904Y62516667D01*
X23811904Y62516667D01*
X26111904Y40768667D02*
X26683333Y40768667D01*
X26797619Y40806762D01*
X26873809Y40882953D01*
X26911904Y40997239D01*
X26911904Y41073429D01*
X26911904Y39968667D02*
X26911904Y40425810D01*
X26911904Y40197239D02*
X26111904Y40197239D01*
X26226190Y40273429D01*
X26302380Y40349620D01*
X26340476Y40425810D01*
X26442857Y47676191D02*
X26480952Y47561905D01*
X26519047Y47523810D01*
X26595238Y47485715D01*
X26709523Y47485715D01*
X26785714Y47523810D01*
X26823809Y47561905D01*
X26861904Y47638096D01*
X26861904Y47942858D01*
X26061904Y47942858D01*
X26061904Y47676191D01*
X26100000Y47600000D01*
X26138095Y47561905D01*
X26214285Y47523810D01*
X26290476Y47523810D01*
X26366666Y47561905D01*
X26404761Y47600000D01*
X26442857Y47676191D01*
X26442857Y47942858D01*
X26938095Y47333334D02*
X26938095Y46723810D01*
X26861904Y46152381D02*
X26861904Y46533334D01*
X26061904Y46533334D01*
X26823809Y45923810D02*
X26861904Y45809524D01*
X26861904Y45619048D01*
X26823809Y45542858D01*
X26785714Y45504762D01*
X26709523Y45466667D01*
X26633333Y45466667D01*
X26557142Y45504762D01*
X26519047Y45542858D01*
X26480952Y45619048D01*
X26442857Y45771429D01*
X26404761Y45847620D01*
X26366666Y45885715D01*
X26290476Y45923810D01*
X26214285Y45923810D01*
X26138095Y45885715D01*
X26100000Y45847620D01*
X26061904Y45771429D01*
X26061904Y45580953D01*
X26100000Y45466667D01*
X26938095Y45314286D02*
X26938095Y44704762D01*
X26861904Y44514286D02*
X26061904Y44514286D01*
X26861904Y44057143D01*
X26061904Y44057143D01*
X28811904Y40768667D02*
X29383333Y40768667D01*
X29497619Y40806762D01*
X29573809Y40882953D01*
X29611904Y40997239D01*
X29611904Y41073429D01*
X28888095Y40425810D02*
X28850000Y40387715D01*
X28811904Y40311524D01*
X28811904Y40121048D01*
X28850000Y40044858D01*
X28888095Y40006762D01*
X28964285Y39968667D01*
X29040476Y39968667D01*
X29154761Y40006762D01*
X29611904Y40463905D01*
X29611904Y39968667D01*
X28442857Y47695239D02*
X28480952Y47580953D01*
X28519047Y47542858D01*
X28595238Y47504762D01*
X28709523Y47504762D01*
X28785714Y47542858D01*
X28823809Y47580953D01*
X28861904Y47657143D01*
X28861904Y47961905D01*
X28061904Y47961905D01*
X28061904Y47695239D01*
X28100000Y47619048D01*
X28138095Y47580953D01*
X28214285Y47542858D01*
X28290476Y47542858D01*
X28366666Y47580953D01*
X28404761Y47619048D01*
X28442857Y47695239D01*
X28442857Y47961905D01*
X28938095Y47352381D02*
X28938095Y46742858D01*
X28061904Y46666667D02*
X28861904Y46400000D01*
X28061904Y46133334D01*
X28861904Y45409524D02*
X28480952Y45676191D01*
X28861904Y45866667D02*
X28061904Y45866667D01*
X28061904Y45561905D01*
X28100000Y45485715D01*
X28138095Y45447620D01*
X28214285Y45409524D01*
X28328571Y45409524D01*
X28404761Y45447620D01*
X28442857Y45485715D01*
X28480952Y45561905D01*
X28480952Y45866667D01*
X28061904Y45180953D02*
X28061904Y44723810D01*
X28861904Y44952381D02*
X28061904Y44952381D01*
X28785714Y44000000D02*
X28823809Y44038096D01*
X28861904Y44152381D01*
X28861904Y44228572D01*
X28823809Y44342858D01*
X28747619Y44419048D01*
X28671428Y44457143D01*
X28519047Y44495239D01*
X28404761Y44495239D01*
X28252380Y44457143D01*
X28176190Y44419048D01*
X28100000Y44342858D01*
X28061904Y44228572D01*
X28061904Y44152381D01*
X28100000Y44038096D01*
X28138095Y44000000D01*
X21266666Y37938096D02*
X21266666Y37366667D01*
X21304761Y37252381D01*
X21380952Y37176191D01*
X21495238Y37138096D01*
X21571428Y37138096D01*
X20961904Y37938096D02*
X20466666Y37938096D01*
X20733333Y37633334D01*
X20619047Y37633334D01*
X20542857Y37595239D01*
X20504761Y37557143D01*
X20466666Y37480953D01*
X20466666Y37290477D01*
X20504761Y37214286D01*
X20542857Y37176191D01*
X20619047Y37138096D01*
X20847619Y37138096D01*
X20923809Y37176191D01*
X20961904Y37214286D01*
X16578571Y37557143D02*
X16464285Y37519048D01*
X16426190Y37480953D01*
X16388095Y37404762D01*
X16388095Y37290477D01*
X16426190Y37214286D01*
X16464285Y37176191D01*
X16540476Y37138096D01*
X16845238Y37138096D01*
X16845238Y37938096D01*
X16578571Y37938096D01*
X16502380Y37900000D01*
X16464285Y37861905D01*
X16426190Y37785715D01*
X16426190Y37709524D01*
X16464285Y37633334D01*
X16502380Y37595239D01*
X16578571Y37557143D01*
X16845238Y37557143D01*
X16235714Y37061905D02*
X15626190Y37061905D01*
X15473809Y37176191D02*
X15359523Y37138096D01*
X15169047Y37138096D01*
X15092857Y37176191D01*
X15054761Y37214286D01*
X15016666Y37290477D01*
X15016666Y37366667D01*
X15054761Y37442858D01*
X15092857Y37480953D01*
X15169047Y37519048D01*
X15321428Y37557143D01*
X15397619Y37595239D01*
X15435714Y37633334D01*
X15473809Y37709524D01*
X15473809Y37785715D01*
X15435714Y37861905D01*
X15397619Y37900000D01*
X15321428Y37938096D01*
X15130952Y37938096D01*
X15016666Y37900000D01*
X14673809Y37138096D02*
X14673809Y37938096D01*
X14369047Y37938096D01*
X14292857Y37900000D01*
X14254761Y37861905D01*
X14216666Y37785715D01*
X14216666Y37671429D01*
X14254761Y37595239D01*
X14292857Y37557143D01*
X14369047Y37519048D01*
X14673809Y37519048D01*
X13873809Y37138096D02*
X13873809Y37938096D01*
X13416666Y37138096D02*
X13759523Y37595239D01*
X13416666Y37938096D02*
X13873809Y37480953D01*
X13073809Y37138096D02*
X13073809Y37938096D01*
X12769047Y37938096D01*
X12692857Y37900000D01*
X12654761Y37861905D01*
X12616666Y37785715D01*
X12616666Y37671429D01*
X12654761Y37595239D01*
X12692857Y37557143D01*
X12769047Y37519048D01*
X13073809Y37519048D01*
X21266666Y35188096D02*
X21266666Y34616667D01*
X21304761Y34502381D01*
X21380952Y34426191D01*
X21495238Y34388096D01*
X21571428Y34388096D01*
X20542857Y34921429D02*
X20542857Y34388096D01*
X20733333Y35226191D02*
X20923809Y34654762D01*
X20428571Y34654762D01*
X16597619Y34807143D02*
X16483333Y34769048D01*
X16445238Y34730953D01*
X16407142Y34654762D01*
X16407142Y34540477D01*
X16445238Y34464286D01*
X16483333Y34426191D01*
X16559523Y34388096D01*
X16864285Y34388096D01*
X16864285Y35188096D01*
X16597619Y35188096D01*
X16521428Y35150000D01*
X16483333Y35111905D01*
X16445238Y35035715D01*
X16445238Y34959524D01*
X16483333Y34883334D01*
X16521428Y34845239D01*
X16597619Y34807143D01*
X16864285Y34807143D01*
X16254761Y34311905D02*
X15645238Y34311905D01*
X15492857Y34426191D02*
X15378571Y34388096D01*
X15188095Y34388096D01*
X15111904Y34426191D01*
X15073809Y34464286D01*
X15035714Y34540477D01*
X15035714Y34616667D01*
X15073809Y34692858D01*
X15111904Y34730953D01*
X15188095Y34769048D01*
X15340476Y34807143D01*
X15416666Y34845239D01*
X15454761Y34883334D01*
X15492857Y34959524D01*
X15492857Y35035715D01*
X15454761Y35111905D01*
X15416666Y35150000D01*
X15340476Y35188096D01*
X15150000Y35188096D01*
X15035714Y35150000D01*
X14692857Y34388096D02*
X14692857Y35188096D01*
X14388095Y35188096D01*
X14311904Y35150000D01*
X14273809Y35111905D01*
X14235714Y35035715D01*
X14235714Y34921429D01*
X14273809Y34845239D01*
X14311904Y34807143D01*
X14388095Y34769048D01*
X14692857Y34769048D01*
X13892857Y34388096D02*
X13892857Y35188096D01*
X13435714Y34388096D02*
X13778571Y34845239D01*
X13435714Y35188096D02*
X13892857Y34730953D01*
X13092857Y34388096D02*
X13092857Y35188096D01*
X12635714Y34388096D01*
X12635714Y35188096D01*
X21266666Y32438096D02*
X21266666Y31866667D01*
X21304761Y31752381D01*
X21380952Y31676191D01*
X21495238Y31638096D01*
X21571428Y31638096D01*
X20504761Y32438096D02*
X20885714Y32438096D01*
X20923809Y32057143D01*
X20885714Y32095239D01*
X20809523Y32133334D01*
X20619047Y32133334D01*
X20542857Y32095239D01*
X20504761Y32057143D01*
X20466666Y31980953D01*
X20466666Y31790477D01*
X20504761Y31714286D01*
X20542857Y31676191D01*
X20619047Y31638096D01*
X20809523Y31638096D01*
X20885714Y31676191D01*
X20923809Y31714286D01*
X16640476Y32057143D02*
X16526190Y32019048D01*
X16488095Y31980953D01*
X16450000Y31904762D01*
X16450000Y31790477D01*
X16488095Y31714286D01*
X16526190Y31676191D01*
X16602380Y31638096D01*
X16907142Y31638096D01*
X16907142Y32438096D01*
X16640476Y32438096D01*
X16564285Y32400000D01*
X16526190Y32361905D01*
X16488095Y32285715D01*
X16488095Y32209524D01*
X16526190Y32133334D01*
X16564285Y32095239D01*
X16640476Y32057143D01*
X16907142Y32057143D01*
X16297619Y31561905D02*
X15688095Y31561905D01*
X15535714Y31866667D02*
X15154761Y31866667D01*
X15611904Y31638096D02*
X15345238Y32438096D01*
X15078571Y31638096D01*
X14811904Y31638096D02*
X14811904Y32438096D01*
X14621428Y32438096D01*
X14507142Y32400000D01*
X14430952Y32323810D01*
X14392857Y32247620D01*
X14354761Y32095239D01*
X14354761Y31980953D01*
X14392857Y31828572D01*
X14430952Y31752381D01*
X14507142Y31676191D01*
X14621428Y31638096D01*
X14811904Y31638096D01*
X13554761Y31714286D02*
X13592857Y31676191D01*
X13707142Y31638096D01*
X13783333Y31638096D01*
X13897619Y31676191D01*
X13973809Y31752381D01*
X14011904Y31828572D01*
X14050000Y31980953D01*
X14050000Y32095239D01*
X14011904Y32247620D01*
X13973809Y32323810D01*
X13897619Y32400000D01*
X13783333Y32438096D01*
X13707142Y32438096D01*
X13592857Y32400000D01*
X13554761Y32361905D01*
X5611904Y59609524D02*
X4811904Y59609524D01*
X5192857Y59609524D02*
X5192857Y59152381D01*
X5611904Y59152381D02*
X4811904Y59152381D01*
X5078571Y58428572D02*
X5611904Y58428572D01*
X4773809Y58619048D02*
X5345238Y58809524D01*
X5345238Y58314286D01*
X52361904Y30109524D02*
X51561904Y30109524D01*
X51942857Y30109524D02*
X51942857Y29652381D01*
X52361904Y29652381D02*
X51561904Y29652381D01*
X51638095Y29309524D02*
X51600000Y29271429D01*
X51561904Y29195239D01*
X51561904Y29004762D01*
X51600000Y28928572D01*
X51638095Y28890477D01*
X51714285Y28852381D01*
X51790476Y28852381D01*
X51904761Y28890477D01*
X52361904Y29347620D01*
X52361904Y28852381D01*
X56611904Y52859524D02*
X55811904Y52859524D01*
X56192857Y52859524D02*
X56192857Y52402381D01*
X56611904Y52402381D02*
X55811904Y52402381D01*
X55811904Y52097620D02*
X55811904Y51602381D01*
X56116666Y51869048D01*
X56116666Y51754762D01*
X56154761Y51678572D01*
X56192857Y51640477D01*
X56269047Y51602381D01*
X56459523Y51602381D01*
X56535714Y51640477D01*
X56573809Y51678572D01*
X56611904Y51754762D01*
X56611904Y51983334D01*
X56573809Y52059524D01*
X56535714Y52097620D01*
X57311904Y56342858D02*
X57311904Y55847620D01*
X57616666Y56114286D01*
X57616666Y56000000D01*
X57654761Y55923810D01*
X57692857Y55885715D01*
X57769047Y55847620D01*
X57959523Y55847620D01*
X58035714Y55885715D01*
X58073809Y55923810D01*
X58111904Y56000000D01*
X58111904Y56228572D01*
X58073809Y56304762D01*
X58035714Y56342858D01*
X57311904Y55619048D02*
X58111904Y55352381D01*
X57311904Y55085715D01*
X57311904Y54895239D02*
X57311904Y54400000D01*
X57616666Y54666667D01*
X57616666Y54552381D01*
X57654761Y54476191D01*
X57692857Y54438096D01*
X57769047Y54400000D01*
X57959523Y54400000D01*
X58035714Y54438096D01*
X58073809Y54476191D01*
X58111904Y54552381D01*
X58111904Y54780953D01*
X58073809Y54857143D01*
X58035714Y54895239D01*
X58188095Y54247620D02*
X58188095Y53638096D01*
X57692857Y53447620D02*
X57692857Y53180953D01*
X58111904Y53066667D02*
X58111904Y53447620D01*
X57311904Y53447620D01*
X57311904Y53066667D01*
X57311904Y52800000D02*
X58111904Y52266667D01*
X57311904Y52266667D02*
X58111904Y52800000D01*
X57311904Y52076191D02*
X57311904Y51619048D01*
X58111904Y51847620D02*
X57311904Y51847620D01*
D14*
X42361904Y11109524D02*
X41561904Y11109524D01*
X41942857Y11109524D02*
X41942857Y10652381D01*
X42361904Y10652381D02*
X41561904Y10652381D01*
X42361904Y9852381D02*
X42361904Y10309524D01*
X42361904Y10080953D02*
X41561904Y10080953D01*
X41676190Y10157143D01*
X41752380Y10233334D01*
X41790476Y10309524D01*
%LPC*%
D15*
X600000Y64600000D02*
X600000Y17000000D01*
X5400000Y69400000D02*
X600000Y64600000D01*
X54600000Y69400000D02*
X5400000Y69400000D01*
X59400000Y64600000D02*
X54600000Y69400000D01*
X59400000Y22900000D02*
X59400000Y64600000D01*
X59400000Y5400001D02*
X59400000Y15500000D01*
X54600000Y600000D02*
X59400000Y5400000D01*
X29400000Y600000D02*
X54600000Y600000D01*
X29400000Y600000D02*
X27000000Y3000000D01*
X27000000Y3000000D02*
X24600000Y600000D01*
X24600000Y600000D02*
X3050000Y600000D01*
D12*
G36*
X3539054Y11896400D02*
G01*
X3652993Y11885535D01*
X3760616Y11853918D01*
X3859615Y11803015D01*
X3947684Y11734293D01*
X4022516Y11649219D01*
X4080384Y11552232D01*
X4120005Y11445964D01*
X4138573Y11338950D01*
X4137434Y11233300D01*
X4117930Y11131125D01*
X4081406Y11034534D01*
X4029205Y10945638D01*
X3962673Y10866546D01*
X3883152Y10799369D01*
X3791987Y10746217D01*
X3690523Y10709199D01*
X3580102Y10690427D01*
X3530206Y10688489D01*
X3442267Y10688489D01*
X3442267Y10636560D01*
X3445111Y10600253D01*
X3456911Y10573355D01*
X3480649Y10546249D01*
X3519031Y10507867D01*
X5710602Y10507867D01*
X5972739Y10507876D01*
X6213241Y10507908D01*
X6433048Y10507972D01*
X6633101Y10508076D01*
X6814344Y10508227D01*
X6977716Y10508434D01*
X7124160Y10508706D01*
X7254617Y10509050D01*
X7370029Y10509474D01*
X7471338Y10509987D01*
X7559484Y10510597D01*
X7635410Y10511312D01*
X7700057Y10512140D01*
X7754367Y10513089D01*
X7799280Y10514167D01*
X7835740Y10515383D01*
X7864687Y10516745D01*
X7887063Y10518261D01*
X7903809Y10519938D01*
X7915868Y10521786D01*
X7924180Y10523813D01*
X7929687Y10526025D01*
X7931537Y10527108D01*
X7938549Y10531271D01*
X7944996Y10534805D01*
X7950900Y10538635D01*
X7956286Y10543682D01*
X7961178Y10550871D01*
X7965598Y10561123D01*
X7969572Y10575364D01*
X7973121Y10594514D01*
X7976270Y10619499D01*
X7979042Y10651240D01*
X7981461Y10690662D01*
X7983551Y10738686D01*
X7985335Y10796237D01*
X7986837Y10864237D01*
X7988080Y10943610D01*
X7989089Y11035279D01*
X7989885Y11140166D01*
X7990494Y11259196D01*
X7990939Y11393290D01*
X7991243Y11543373D01*
X7991430Y11710367D01*
X7991524Y11895196D01*
X7991548Y12098783D01*
X7991525Y12322050D01*
X7991480Y12565922D01*
X7991437Y12831321D01*
X7991432Y12869704D01*
X7991389Y13136682D01*
X7991318Y13382002D01*
X7991213Y13606583D01*
X7991066Y13811345D01*
X7990869Y13997206D01*
X7990616Y14165088D01*
X7990300Y14315908D01*
X7989913Y14450587D01*
X7989447Y14570044D01*
X7988897Y14675199D01*
X7988253Y14766971D01*
X7987511Y14846279D01*
X7986661Y14914043D01*
X7985697Y14971182D01*
X7984611Y15018617D01*
X7983397Y15057266D01*
X7982047Y15088049D01*
X7980555Y15111885D01*
X7978911Y15129694D01*
X7977111Y15142395D01*
X7975145Y15150908D01*
X7973477Y15155266D01*
X7969906Y15163728D01*
X7967270Y15171497D01*
X7964634Y15178602D01*
X7961062Y15185073D01*
X7955621Y15190939D01*
X7947375Y15196229D01*
X7935390Y15200974D01*
X7918731Y15205202D01*
X7896463Y15208943D01*
X7867652Y15212227D01*
X7831363Y15215083D01*
X7786661Y15217540D01*
X7732611Y15219629D01*
X7668279Y15221378D01*
X7592730Y15222817D01*
X7505030Y15223976D01*
X7404243Y15224883D01*
X7289434Y15225569D01*
X7159670Y15226063D01*
X7014015Y15226395D01*
X6851535Y15226593D01*
X6671295Y15226687D01*
X6472360Y15226708D01*
X6253796Y15226685D01*
X6014668Y15226646D01*
X5754040Y15226622D01*
X5711889Y15226622D01*
X5448992Y15226636D01*
X5207732Y15226661D01*
X4987165Y15226671D01*
X4786352Y15226642D01*
X4604349Y15226548D01*
X4440216Y15226362D01*
X4293011Y15226059D01*
X4161792Y15225614D01*
X4051867Y15225034D01*
X4051867Y14922197D01*
X4109711Y14882407D01*
X4125479Y14871236D01*
X4139441Y14861166D01*
X4152784Y14852138D01*
X4166693Y14844097D01*
X4182356Y14836986D01*
X4200958Y14830747D01*
X4223686Y14825325D01*
X4251727Y14820662D01*
X4286267Y14816701D01*
X4328492Y14813385D01*
X4379589Y14810659D01*
X4440744Y14808464D01*
X4513144Y14806745D01*
X4597975Y14805444D01*
X4696422Y14804505D01*
X4809674Y14803870D01*
X4938916Y14803484D01*
X5085334Y14803288D01*
X5250116Y14803227D01*
X5434447Y14803243D01*
X5639513Y14803280D01*
X5762133Y14803289D01*
X5979082Y14803265D01*
X6174642Y14803231D01*
X6349999Y14803243D01*
X6506341Y14803358D01*
X6644857Y14803630D01*
X6766734Y14804118D01*
X6873160Y14804876D01*
X6965322Y14805962D01*
X7044409Y14807431D01*
X7111608Y14809340D01*
X7168107Y14811744D01*
X7215093Y14814701D01*
X7253755Y14818266D01*
X7285280Y14822495D01*
X7310855Y14827446D01*
X7331670Y14833173D01*
X7348911Y14839733D01*
X7363765Y14847183D01*
X7377422Y14855579D01*
X7391069Y14864976D01*
X7405893Y14875432D01*
X7414783Y14881523D01*
X7472400Y14920296D01*
X7472400Y14388732D01*
X7472365Y14265483D01*
X7472215Y14162987D01*
X7471878Y14079420D01*
X7471286Y14012956D01*
X7470367Y13961771D01*
X7469051Y13924041D01*
X7467269Y13897940D01*
X7464951Y13881644D01*
X7462026Y13873328D01*
X7458424Y13871168D01*
X7454075Y13873339D01*
X7452645Y13874535D01*
X7415573Y13899685D01*
X7362772Y13925583D01*
X7300770Y13949192D01*
X7274357Y13957461D01*
X7256416Y13962078D01*
X7235355Y13965979D01*
X7209089Y13969248D01*
X7175532Y13971966D01*
X7132599Y13974215D01*
X7078204Y13976077D01*
X7010262Y13977636D01*
X6926688Y13978972D01*
X6825395Y13980169D01*
X6704300Y13981308D01*
X6659600Y13981685D01*
X6534449Y13982702D01*
X6430082Y13983460D01*
X6344707Y13983903D01*
X6276533Y13983970D01*
X6223765Y13983605D01*
X6184614Y13982748D01*
X6157285Y13981341D01*
X6139986Y13979325D01*
X6130926Y13976643D01*
X6128312Y13973236D01*
X6130351Y13969044D01*
X6134667Y13964571D01*
X6147602Y13954216D01*
X6176676Y13932158D01*
X6219759Y13899957D01*
X6274718Y13859174D01*
X6339423Y13811370D01*
X6411742Y13758105D01*
X6489544Y13700940D01*
X6570698Y13641437D01*
X6653072Y13581155D01*
X6734536Y13521655D01*
X6812957Y13464498D01*
X6886204Y13411245D01*
X6952147Y13363457D01*
X7008654Y13322693D01*
X7053593Y13290516D01*
X7084834Y13268485D01*
X7091466Y13263917D01*
X7128369Y13240996D01*
X7176359Y13214188D01*
X7225897Y13188789D01*
X7232577Y13185568D01*
X7280772Y13163890D01*
X7318334Y13151304D01*
X7354160Y13145574D01*
X7396200Y13144456D01*
X7472400Y13145090D01*
X7472400Y11990651D01*
X7378669Y12081815D01*
X7328775Y12128612D01*
X7272295Y12178899D01*
X7218026Y12224944D01*
X7192673Y12245369D01*
X7153128Y12275807D01*
X7099916Y12315862D01*
X7034667Y12364361D01*
X6959011Y12420135D01*
X6874577Y12482011D01*
X6782994Y12548819D01*
X6685892Y12619387D01*
X6584901Y12692545D01*
X6481650Y12767121D01*
X6377768Y12841944D01*
X6274885Y12915843D01*
X6174631Y12987646D01*
X6078636Y13056184D01*
X5988527Y13120284D01*
X5905936Y13178775D01*
X5832492Y13230486D01*
X5769824Y13274247D01*
X5719561Y13308885D01*
X5683334Y13333230D01*
X5662771Y13346111D01*
X5658668Y13347869D01*
X5647342Y13339910D01*
X5620162Y13319115D01*
X5578829Y13286847D01*
X5525044Y13244470D01*
X5460506Y13193347D01*
X5386918Y13134841D01*
X5305978Y13070314D01*
X5219388Y13001131D01*
X5128848Y12928653D01*
X5036060Y12854246D01*
X4961702Y12794517D01*
X4961702Y11783511D01*
X4974659Y11777602D01*
X4996908Y11763272D01*
X4998391Y11762225D01*
X5028544Y11743438D01*
X5065375Y11723791D01*
X5073511Y11719892D01*
X5081940Y11716356D01*
X5092059Y11713230D01*
X5105260Y11710486D01*
X5122938Y11708092D01*
X5146484Y11706019D01*
X5177293Y11704235D01*
X5216757Y11702712D01*
X5266269Y11701419D01*
X5327223Y11700326D01*
X5401011Y11699403D01*
X5489028Y11698619D01*
X5592665Y11697945D01*
X5713316Y11697350D01*
X5852374Y11696805D01*
X6011232Y11696279D01*
X6190089Y11695745D01*
X6375207Y11695206D01*
X6539145Y11694772D01*
X6683303Y11694509D01*
X6809079Y11694484D01*
X6917871Y11694765D01*
X7011077Y11695419D01*
X7090097Y11696514D01*
X7156328Y11698118D01*
X7211170Y11700297D01*
X7256021Y11703119D01*
X7292278Y11706651D01*
X7321341Y11710961D01*
X7344609Y11716117D01*
X7363479Y11722185D01*
X7379351Y11729233D01*
X7393622Y11737329D01*
X7407691Y11746540D01*
X7420158Y11755040D01*
X7446452Y11772176D01*
X7464037Y11782322D01*
X7467257Y11783511D01*
X7468334Y11772604D01*
X7469335Y11741411D01*
X7470235Y11692223D01*
X7471010Y11627333D01*
X7471637Y11549030D01*
X7472091Y11459607D01*
X7472349Y11361356D01*
X7472400Y11292445D01*
X7472180Y11187452D01*
X7471548Y11090610D01*
X7470549Y11004107D01*
X7469227Y10930132D01*
X7467626Y10870874D01*
X7465791Y10828520D01*
X7463765Y10805260D01*
X7462493Y10801378D01*
X7447591Y10809076D01*
X7439560Y10817074D01*
X7422434Y10830246D01*
X7392183Y10847485D01*
X7367622Y10859407D01*
X7308711Y10886045D01*
X6131845Y10889120D01*
X4954978Y10892195D01*
X4954978Y11337853D01*
X4955142Y11435670D01*
X4955611Y11526064D01*
X4956347Y11606630D01*
X4957316Y11674962D01*
X4958480Y11728656D01*
X4959803Y11765305D01*
X4961249Y11782504D01*
X4961702Y11783511D01*
X4961702Y12794517D01*
X4942722Y12779270D01*
X4850537Y12705090D01*
X4761204Y12633069D01*
X4676424Y12564569D01*
X4597898Y12500955D01*
X4527326Y12443588D01*
X4466409Y12393833D01*
X4416847Y12353052D01*
X4396178Y12335888D01*
X4295516Y12249596D01*
X4212259Y12172997D01*
X4144438Y12104183D01*
X4090089Y12041248D01*
X4082722Y12031867D01*
X4052117Y11992356D01*
X4051867Y13124116D01*
X4099844Y13118827D01*
X4157188Y13122130D01*
X4225463Y13143661D01*
X4305212Y13183635D01*
X4377495Y13228943D01*
X4400140Y13245161D01*
X4437696Y13273214D01*
X4488021Y13311430D01*
X4548973Y13358137D01*
X4618411Y13411661D01*
X4694194Y13470331D01*
X4774180Y13532475D01*
X4856228Y13596421D01*
X4938196Y13660495D01*
X5017943Y13723027D01*
X5093327Y13782343D01*
X5162207Y13836771D01*
X5222442Y13884639D01*
X5271889Y13924275D01*
X5308408Y13954006D01*
X5329858Y13972161D01*
X5333156Y13975220D01*
X5325149Y13978079D01*
X5294855Y13980293D01*
X5242556Y13981857D01*
X5168531Y13982767D01*
X5073063Y13983020D01*
X4956434Y13982613D01*
X4836445Y13981704D01*
X4704333Y13980382D01*
X4592594Y13978857D01*
X4499025Y13976881D01*
X4421419Y13974206D01*
X4357574Y13970582D01*
X4305283Y13965761D01*
X4262344Y13959494D01*
X4226551Y13951532D01*
X4195700Y13941627D01*
X4167586Y13929531D01*
X4140005Y13914993D01*
X4114966Y13900311D01*
X4051867Y13862314D01*
X4051867Y14922197D01*
X4051867Y15225034D01*
X4045617Y15225001D01*
X3943544Y15224195D01*
X3854633Y15223170D01*
X3777941Y15221900D01*
X3712527Y15220360D01*
X3657449Y15218524D01*
X3611765Y15216367D01*
X3574534Y15213863D01*
X3544813Y15210987D01*
X3521662Y15207713D01*
X3504139Y15204015D01*
X3491301Y15199869D01*
X3482208Y15195247D01*
X3475918Y15190126D01*
X3471488Y15184478D01*
X3467978Y15178279D01*
X3464445Y15171504D01*
X3460876Y15165508D01*
X3458300Y15160275D01*
X3455972Y15152099D01*
X3453878Y15139886D01*
X3452007Y15122541D01*
X3450347Y15098969D01*
X3448884Y15068077D01*
X3447608Y15028768D01*
X3446504Y14979950D01*
X3445561Y14920527D01*
X3444767Y14849404D01*
X3444109Y14765488D01*
X3443575Y14667683D01*
X3443153Y14554894D01*
X3442829Y14426029D01*
X3442592Y14279991D01*
X3442430Y14115686D01*
X3442330Y13932020D01*
X3442280Y13727897D01*
X3442267Y13516753D01*
X3442267Y11896400D01*
X3539054Y11896400D01*
X3539054Y11896400D01*
G37*
X3539054Y11896400D02*
X3652993Y11885535D01*
X3760616Y11853918D01*
X3859615Y11803015D01*
X3947684Y11734293D01*
X4022516Y11649219D01*
X4080384Y11552232D01*
X4120005Y11445964D01*
X4138573Y11338950D01*
X4137434Y11233300D01*
X4117930Y11131125D01*
X4081406Y11034534D01*
X4029205Y10945638D01*
X3962673Y10866546D01*
X3883152Y10799369D01*
X3791987Y10746217D01*
X3690523Y10709199D01*
X3580102Y10690427D01*
X3530206Y10688489D01*
X3442267Y10688489D01*
X3442267Y10636560D01*
X3445111Y10600253D01*
X3456911Y10573355D01*
X3480649Y10546249D01*
X3519031Y10507867D01*
X5710602Y10507867D01*
X5972739Y10507876D01*
X6213241Y10507908D01*
X6433048Y10507972D01*
X6633101Y10508076D01*
X6814344Y10508227D01*
X6977716Y10508434D01*
X7124160Y10508706D01*
X7254617Y10509050D01*
X7370029Y10509474D01*
X7471338Y10509987D01*
X7559484Y10510597D01*
X7635410Y10511312D01*
X7700057Y10512140D01*
X7754367Y10513089D01*
X7799280Y10514167D01*
X7835740Y10515383D01*
X7864687Y10516745D01*
X7887063Y10518261D01*
X7903809Y10519938D01*
X7915868Y10521786D01*
X7924180Y10523813D01*
X7929687Y10526025D01*
X7931537Y10527108D01*
X7938549Y10531271D01*
X7944996Y10534805D01*
X7950900Y10538635D01*
X7956286Y10543682D01*
X7961178Y10550871D01*
X7965598Y10561123D01*
X7969572Y10575364D01*
X7973121Y10594514D01*
X7976270Y10619499D01*
X7979042Y10651240D01*
X7981461Y10690662D01*
X7983551Y10738686D01*
X7985335Y10796237D01*
X7986837Y10864237D01*
X7988080Y10943610D01*
X7989089Y11035279D01*
X7989885Y11140166D01*
X7990494Y11259196D01*
X7990939Y11393290D01*
X7991243Y11543373D01*
X7991430Y11710367D01*
X7991524Y11895196D01*
X7991548Y12098783D01*
X7991525Y12322050D01*
X7991480Y12565922D01*
X7991437Y12831321D01*
X7991432Y12869704D01*
X7991389Y13136682D01*
X7991318Y13382002D01*
X7991213Y13606583D01*
X7991066Y13811345D01*
X7990869Y13997206D01*
X7990616Y14165088D01*
X7990300Y14315908D01*
X7989913Y14450587D01*
X7989447Y14570044D01*
X7988897Y14675199D01*
X7988253Y14766971D01*
X7987511Y14846279D01*
X7986661Y14914043D01*
X7985697Y14971182D01*
X7984611Y15018617D01*
X7983397Y15057266D01*
X7982047Y15088049D01*
X7980555Y15111885D01*
X7978911Y15129694D01*
X7977111Y15142395D01*
X7975145Y15150908D01*
X7973477Y15155266D01*
X7969906Y15163728D01*
X7967270Y15171497D01*
X7964634Y15178602D01*
X7961062Y15185073D01*
X7955621Y15190939D01*
X7947375Y15196229D01*
X7935390Y15200974D01*
X7918731Y15205202D01*
X7896463Y15208943D01*
X7867652Y15212227D01*
X7831363Y15215083D01*
X7786661Y15217540D01*
X7732611Y15219629D01*
X7668279Y15221378D01*
X7592730Y15222817D01*
X7505030Y15223976D01*
X7404243Y15224883D01*
X7289434Y15225569D01*
X7159670Y15226063D01*
X7014015Y15226395D01*
X6851535Y15226593D01*
X6671295Y15226687D01*
X6472360Y15226708D01*
X6253796Y15226685D01*
X6014668Y15226646D01*
X5754040Y15226622D01*
X5711889Y15226622D01*
X5448992Y15226636D01*
X5207732Y15226661D01*
X4987165Y15226671D01*
X4786352Y15226642D01*
X4604349Y15226548D01*
X4440216Y15226362D01*
X4293011Y15226059D01*
X4161792Y15225614D01*
X4051867Y15225034D01*
X4051867Y14922197D01*
X4109711Y14882407D01*
X4125479Y14871236D01*
X4139441Y14861166D01*
X4152784Y14852138D01*
X4166693Y14844097D01*
X4182356Y14836986D01*
X4200958Y14830747D01*
X4223686Y14825325D01*
X4251727Y14820662D01*
X4286267Y14816701D01*
X4328492Y14813385D01*
X4379589Y14810659D01*
X4440744Y14808464D01*
X4513144Y14806745D01*
X4597975Y14805444D01*
X4696422Y14804505D01*
X4809674Y14803870D01*
X4938916Y14803484D01*
X5085334Y14803288D01*
X5250116Y14803227D01*
X5434447Y14803243D01*
X5639513Y14803280D01*
X5762133Y14803289D01*
X5979082Y14803265D01*
X6174642Y14803231D01*
X6349999Y14803243D01*
X6506341Y14803358D01*
X6644857Y14803630D01*
X6766734Y14804118D01*
X6873160Y14804876D01*
X6965322Y14805962D01*
X7044409Y14807431D01*
X7111608Y14809340D01*
X7168107Y14811744D01*
X7215093Y14814701D01*
X7253755Y14818266D01*
X7285280Y14822495D01*
X7310855Y14827446D01*
X7331670Y14833173D01*
X7348911Y14839733D01*
X7363765Y14847183D01*
X7377422Y14855579D01*
X7391069Y14864976D01*
X7405893Y14875432D01*
X7414783Y14881523D01*
X7472400Y14920296D01*
X7472400Y14388732D01*
X7472365Y14265483D01*
X7472215Y14162987D01*
X7471878Y14079420D01*
X7471286Y14012956D01*
X7470367Y13961771D01*
X7469051Y13924041D01*
X7467269Y13897940D01*
X7464951Y13881644D01*
X7462026Y13873328D01*
X7458424Y13871168D01*
X7454075Y13873339D01*
X7452645Y13874535D01*
X7415573Y13899685D01*
X7362772Y13925583D01*
X7300770Y13949192D01*
X7274357Y13957461D01*
X7256416Y13962078D01*
X7235355Y13965979D01*
X7209089Y13969248D01*
X7175532Y13971966D01*
X7132599Y13974215D01*
X7078204Y13976077D01*
X7010262Y13977636D01*
X6926688Y13978972D01*
X6825395Y13980169D01*
X6704300Y13981308D01*
X6659600Y13981685D01*
X6534449Y13982702D01*
X6430082Y13983460D01*
X6344707Y13983903D01*
X6276533Y13983970D01*
X6223765Y13983605D01*
X6184614Y13982748D01*
X6157285Y13981341D01*
X6139986Y13979325D01*
X6130926Y13976643D01*
X6128312Y13973236D01*
X6130351Y13969044D01*
X6134667Y13964571D01*
X6147602Y13954216D01*
X6176676Y13932158D01*
X6219759Y13899957D01*
X6274718Y13859174D01*
X6339423Y13811370D01*
X6411742Y13758105D01*
X6489544Y13700940D01*
X6570698Y13641437D01*
X6653072Y13581155D01*
X6734536Y13521655D01*
X6812957Y13464498D01*
X6886204Y13411245D01*
X6952147Y13363457D01*
X7008654Y13322693D01*
X7053593Y13290516D01*
X7084834Y13268485D01*
X7091466Y13263917D01*
X7128369Y13240996D01*
X7176359Y13214188D01*
X7225897Y13188789D01*
X7232577Y13185568D01*
X7280772Y13163890D01*
X7318334Y13151304D01*
X7354160Y13145574D01*
X7396200Y13144456D01*
X7472400Y13145090D01*
X7472400Y11990651D01*
X7378669Y12081815D01*
X7328775Y12128612D01*
X7272295Y12178899D01*
X7218026Y12224944D01*
X7192673Y12245369D01*
X7153128Y12275807D01*
X7099916Y12315862D01*
X7034667Y12364361D01*
X6959011Y12420135D01*
X6874577Y12482011D01*
X6782994Y12548819D01*
X6685892Y12619387D01*
X6584901Y12692545D01*
X6481650Y12767121D01*
X6377768Y12841944D01*
X6274885Y12915843D01*
X6174631Y12987646D01*
X6078636Y13056184D01*
X5988527Y13120284D01*
X5905936Y13178775D01*
X5832492Y13230486D01*
X5769824Y13274247D01*
X5719561Y13308885D01*
X5683334Y13333230D01*
X5662771Y13346111D01*
X5658668Y13347869D01*
X5647342Y13339910D01*
X5620162Y13319115D01*
X5578829Y13286847D01*
X5525044Y13244470D01*
X5460506Y13193347D01*
X5386918Y13134841D01*
X5305978Y13070314D01*
X5219388Y13001131D01*
X5128848Y12928653D01*
X5036060Y12854246D01*
X4961702Y12794517D01*
X4961702Y11783511D01*
X4974659Y11777602D01*
X4996908Y11763272D01*
X4998391Y11762225D01*
X5028544Y11743438D01*
X5065375Y11723791D01*
X5073511Y11719892D01*
X5081940Y11716356D01*
X5092059Y11713230D01*
X5105260Y11710486D01*
X5122938Y11708092D01*
X5146484Y11706019D01*
X5177293Y11704235D01*
X5216757Y11702712D01*
X5266269Y11701419D01*
X5327223Y11700326D01*
X5401011Y11699403D01*
X5489028Y11698619D01*
X5592665Y11697945D01*
X5713316Y11697350D01*
X5852374Y11696805D01*
X6011232Y11696279D01*
X6190089Y11695745D01*
X6375207Y11695206D01*
X6539145Y11694772D01*
X6683303Y11694509D01*
X6809079Y11694484D01*
X6917871Y11694765D01*
X7011077Y11695419D01*
X7090097Y11696514D01*
X7156328Y11698118D01*
X7211170Y11700297D01*
X7256021Y11703119D01*
X7292278Y11706651D01*
X7321341Y11710961D01*
X7344609Y11716117D01*
X7363479Y11722185D01*
X7379351Y11729233D01*
X7393622Y11737329D01*
X7407691Y11746540D01*
X7420158Y11755040D01*
X7446452Y11772176D01*
X7464037Y11782322D01*
X7467257Y11783511D01*
X7468334Y11772604D01*
X7469335Y11741411D01*
X7470235Y11692223D01*
X7471010Y11627333D01*
X7471637Y11549030D01*
X7472091Y11459607D01*
X7472349Y11361356D01*
X7472400Y11292445D01*
X7472180Y11187452D01*
X7471548Y11090610D01*
X7470549Y11004107D01*
X7469227Y10930132D01*
X7467626Y10870874D01*
X7465791Y10828520D01*
X7463765Y10805260D01*
X7462493Y10801378D01*
X7447591Y10809076D01*
X7439560Y10817074D01*
X7422434Y10830246D01*
X7392183Y10847485D01*
X7367622Y10859407D01*
X7308711Y10886045D01*
X6131845Y10889120D01*
X4954978Y10892195D01*
X4954978Y11337853D01*
X4955142Y11435670D01*
X4955611Y11526064D01*
X4956347Y11606630D01*
X4957316Y11674962D01*
X4958480Y11728656D01*
X4959803Y11765305D01*
X4961249Y11782504D01*
X4961702Y11783511D01*
X4961702Y12794517D01*
X4942722Y12779270D01*
X4850537Y12705090D01*
X4761204Y12633069D01*
X4676424Y12564569D01*
X4597898Y12500955D01*
X4527326Y12443588D01*
X4466409Y12393833D01*
X4416847Y12353052D01*
X4396178Y12335888D01*
X4295516Y12249596D01*
X4212259Y12172997D01*
X4144438Y12104183D01*
X4090089Y12041248D01*
X4082722Y12031867D01*
X4052117Y11992356D01*
X4051867Y13124116D01*
X4099844Y13118827D01*
X4157188Y13122130D01*
X4225463Y13143661D01*
X4305212Y13183635D01*
X4377495Y13228943D01*
X4400140Y13245161D01*
X4437696Y13273214D01*
X4488021Y13311430D01*
X4548973Y13358137D01*
X4618411Y13411661D01*
X4694194Y13470331D01*
X4774180Y13532475D01*
X4856228Y13596421D01*
X4938196Y13660495D01*
X5017943Y13723027D01*
X5093327Y13782343D01*
X5162207Y13836771D01*
X5222442Y13884639D01*
X5271889Y13924275D01*
X5308408Y13954006D01*
X5329858Y13972161D01*
X5333156Y13975220D01*
X5325149Y13978079D01*
X5294855Y13980293D01*
X5242556Y13981857D01*
X5168531Y13982767D01*
X5073063Y13983020D01*
X4956434Y13982613D01*
X4836445Y13981704D01*
X4704333Y13980382D01*
X4592594Y13978857D01*
X4499025Y13976881D01*
X4421419Y13974206D01*
X4357574Y13970582D01*
X4305283Y13965761D01*
X4262344Y13959494D01*
X4226551Y13951532D01*
X4195700Y13941627D01*
X4167586Y13929531D01*
X4140005Y13914993D01*
X4114966Y13900311D01*
X4051867Y13862314D01*
X4051867Y14922197D01*
X4051867Y15225034D01*
X4045617Y15225001D01*
X3943544Y15224195D01*
X3854633Y15223170D01*
X3777941Y15221900D01*
X3712527Y15220360D01*
X3657449Y15218524D01*
X3611765Y15216367D01*
X3574534Y15213863D01*
X3544813Y15210987D01*
X3521662Y15207713D01*
X3504139Y15204015D01*
X3491301Y15199869D01*
X3482208Y15195247D01*
X3475918Y15190126D01*
X3471488Y15184478D01*
X3467978Y15178279D01*
X3464445Y15171504D01*
X3460876Y15165508D01*
X3458300Y15160275D01*
X3455972Y15152099D01*
X3453878Y15139886D01*
X3452007Y15122541D01*
X3450347Y15098969D01*
X3448884Y15068077D01*
X3447608Y15028768D01*
X3446504Y14979950D01*
X3445561Y14920527D01*
X3444767Y14849404D01*
X3444109Y14765488D01*
X3443575Y14667683D01*
X3443153Y14554894D01*
X3442829Y14426029D01*
X3442592Y14279991D01*
X3442430Y14115686D01*
X3442330Y13932020D01*
X3442280Y13727897D01*
X3442267Y13516753D01*
X3442267Y11896400D01*
X3539054Y11896400D01*
G36*
X3076571Y11223043D02*
G01*
X3100809Y11126768D01*
X3143641Y11040184D01*
X3203419Y10965373D01*
X3278494Y10904418D01*
X3367220Y10859399D01*
X3463530Y10833136D01*
X3560795Y10827286D01*
X3654654Y10842140D01*
X3742511Y10875840D01*
X3821770Y10926528D01*
X3889836Y10992345D01*
X3944112Y11071434D01*
X3982002Y11161934D01*
X3994426Y11213200D01*
X4001947Y11257698D01*
X4004919Y11291999D01*
X4003094Y11324960D01*
X3996225Y11365434D01*
X3989250Y11398531D01*
X3957741Y11491947D01*
X3906617Y11575619D01*
X3837429Y11647665D01*
X3751728Y11706200D01*
X3724489Y11720148D01*
X3688122Y11736586D01*
X3657582Y11746894D01*
X3625450Y11752460D01*
X3584307Y11754669D01*
X3538222Y11754948D01*
X3453865Y11750861D01*
X3384586Y11737446D01*
X3323961Y11712256D01*
X3265567Y11672846D01*
X3221302Y11634298D01*
X3155484Y11562406D01*
X3110053Y11487313D01*
X3082850Y11404562D01*
X3072576Y11326928D01*
X3076571Y11223043D01*
X3076571Y11223043D01*
G37*
X3076571Y11223043D02*
X3100809Y11126768D01*
X3143641Y11040184D01*
X3203419Y10965373D01*
X3278494Y10904418D01*
X3367220Y10859399D01*
X3463530Y10833136D01*
X3560795Y10827286D01*
X3654654Y10842140D01*
X3742511Y10875840D01*
X3821770Y10926528D01*
X3889836Y10992345D01*
X3944112Y11071434D01*
X3982002Y11161934D01*
X3994426Y11213200D01*
X4001947Y11257698D01*
X4004919Y11291999D01*
X4003094Y11324960D01*
X3996225Y11365434D01*
X3989250Y11398531D01*
X3957741Y11491947D01*
X3906617Y11575619D01*
X3837429Y11647665D01*
X3751728Y11706200D01*
X3724489Y11720148D01*
X3688122Y11736586D01*
X3657582Y11746894D01*
X3625450Y11752460D01*
X3584307Y11754669D01*
X3538222Y11754948D01*
X3453865Y11750861D01*
X3384586Y11737446D01*
X3323961Y11712256D01*
X3265567Y11672846D01*
X3221302Y11634298D01*
X3155484Y11562406D01*
X3110053Y11487313D01*
X3082850Y11404562D01*
X3072576Y11326928D01*
X3076571Y11223043D01*
D16*
G36*
X13795360Y13813840D02*
G01*
X13780120Y13788440D01*
X13744560Y13730020D01*
X13688680Y13646200D01*
X13622640Y13547140D01*
X13556600Y13448080D01*
X13503260Y13366800D01*
X13465160Y13310920D01*
X13452460Y13285520D01*
X13457540Y13272820D01*
X13480400Y13227100D01*
X13515960Y13158520D01*
X13536280Y13117880D01*
X13561680Y13056920D01*
X13569300Y13023900D01*
X13559140Y13018820D01*
X13510880Y12995960D01*
X13429600Y12960400D01*
X13320380Y12914680D01*
X13193380Y12858800D01*
X13058760Y12802920D01*
X12919060Y12744500D01*
X12784440Y12688620D01*
X12665060Y12640360D01*
X12568540Y12599720D01*
X12499960Y12574320D01*
X12472020Y12564160D01*
X12464400Y12566700D01*
X12433920Y12599720D01*
X12393280Y12653060D01*
X12296760Y12772440D01*
X12151980Y12889280D01*
X11986880Y12960400D01*
X11801460Y12983260D01*
X11631280Y12962940D01*
X11468720Y12896900D01*
X11321400Y12782600D01*
X11212180Y12642900D01*
X11143600Y12480340D01*
X11120740Y12300000D01*
X11141060Y12127280D01*
X11207100Y11959640D01*
X11318860Y11812320D01*
X11389980Y11748820D01*
X11539840Y11662460D01*
X11697320Y11614200D01*
X11737960Y11609120D01*
X11913220Y11616740D01*
X12083400Y11667540D01*
X12233260Y11761520D01*
X12357720Y11891060D01*
X12367880Y11906300D01*
X12413600Y11964720D01*
X12444080Y12005360D01*
X12469480Y12035840D01*
X13007960Y11812320D01*
X13091780Y11776760D01*
X13239100Y11715800D01*
X13366100Y11662460D01*
X13467700Y11619280D01*
X13533740Y11588800D01*
X13561680Y11576100D01*
X13564220Y11576100D01*
X13566760Y11555780D01*
X13551520Y11515140D01*
X13515960Y11438940D01*
X13490560Y11390680D01*
X13462620Y11332260D01*
X13452460Y11306860D01*
X13465160Y11284000D01*
X13500720Y11230660D01*
X13554060Y11149380D01*
X13617560Y11052860D01*
X13681060Y10961420D01*
X13736940Y10877600D01*
X13775040Y10816640D01*
X13792820Y10786160D01*
X13792820Y10781080D01*
X13777580Y10755680D01*
X13736940Y10707420D01*
X13668360Y10633760D01*
X13564220Y10529620D01*
X13548980Y10514380D01*
X13462620Y10428020D01*
X13388960Y10359440D01*
X13338160Y10313720D01*
X13315300Y10295940D01*
X13284820Y10311180D01*
X13223860Y10349280D01*
X13137500Y10405160D01*
X13038440Y10473740D01*
X12779360Y10651540D01*
X12535520Y10555020D01*
X12459320Y10524540D01*
X12370420Y10486440D01*
X12304380Y10458500D01*
X12276440Y10443260D01*
X12266280Y10417860D01*
X12251040Y10349280D01*
X12230720Y10252760D01*
X12210400Y10138460D01*
X12190080Y10026700D01*
X12169760Y9927640D01*
X12157060Y9856520D01*
X12149440Y9823500D01*
X12144360Y9815880D01*
X12129120Y9808260D01*
X12096100Y9805720D01*
X12035140Y9803180D01*
X11941160Y9800640D01*
X11801460Y9800640D01*
X11786220Y9800640D01*
X11656680Y9803180D01*
X11550000Y9805720D01*
X11483960Y9808260D01*
X11456020Y9813340D01*
X11448400Y9843820D01*
X11433160Y9914940D01*
X11415380Y10014000D01*
X11392520Y10133380D01*
X11389980Y10141000D01*
X11367120Y10257840D01*
X11346800Y10356900D01*
X11331560Y10428020D01*
X11321400Y10455960D01*
X11313780Y10463580D01*
X11268060Y10486440D01*
X11194400Y10519460D01*
X11105500Y10560100D01*
X11011520Y10598200D01*
X10927700Y10631220D01*
X10866740Y10654080D01*
X10838800Y10661700D01*
X10836260Y10659160D01*
X10808320Y10641380D01*
X10747360Y10600740D01*
X10663540Y10544860D01*
X10561940Y10476280D01*
X10554320Y10471200D01*
X10455260Y10402620D01*
X10368900Y10346740D01*
X10310480Y10311180D01*
X10282540Y10295940D01*
X10280000Y10295940D01*
X10249520Y10318800D01*
X10193640Y10369600D01*
X10117440Y10443260D01*
X10028540Y10529620D01*
X10003140Y10557560D01*
X9906620Y10656620D01*
X9845660Y10722660D01*
X9812640Y10765840D01*
X9805020Y10786160D01*
X9822800Y10816640D01*
X9863440Y10880140D01*
X9921860Y10963960D01*
X9990440Y11065560D01*
X9995520Y11073180D01*
X10064100Y11172240D01*
X10119980Y11256060D01*
X10160620Y11314480D01*
X10175860Y11342420D01*
X10175860Y11344960D01*
X10163160Y11385600D01*
X10137760Y11456720D01*
X10104740Y11545620D01*
X10066640Y11637060D01*
X10031080Y11720880D01*
X10003140Y11784380D01*
X9985360Y11814860D01*
X9949800Y11825020D01*
X9873600Y11842800D01*
X9772000Y11863120D01*
X9650080Y11888520D01*
X9629760Y11891060D01*
X9510380Y11913920D01*
X9411320Y11931700D01*
X9342740Y11946940D01*
X9314800Y11954560D01*
X9312260Y11969800D01*
X9307180Y12028220D01*
X9304640Y12117120D01*
X9304640Y12226340D01*
X9304640Y12338100D01*
X9307180Y12447320D01*
X9309720Y12541300D01*
X9314800Y12609880D01*
X9319880Y12637820D01*
X9322420Y12637820D01*
X9360520Y12647980D01*
X9434180Y12665760D01*
X9538320Y12686080D01*
X9660240Y12708940D01*
X9683100Y12714020D01*
X9799940Y12736880D01*
X9899000Y12757200D01*
X9965040Y12769900D01*
X9992980Y12777520D01*
X9998060Y12790220D01*
X10018380Y12838480D01*
X10051400Y12917220D01*
X10092040Y13016280D01*
X10183480Y13244880D01*
X9992980Y13526820D01*
X9975200Y13552220D01*
X9906620Y13653820D01*
X9850740Y13735100D01*
X9812640Y13793520D01*
X9799940Y13816380D01*
X9799940Y13818920D01*
X9825340Y13846860D01*
X9878680Y13902740D01*
X9952340Y13978940D01*
X10038700Y14067840D01*
X10104740Y14131340D01*
X10183480Y14210080D01*
X10236820Y14258340D01*
X10269840Y14286280D01*
X10290160Y14293900D01*
X10305400Y14291360D01*
X10333340Y14273580D01*
X10394300Y14232940D01*
X10480660Y14174520D01*
X10579720Y14105940D01*
X10663540Y14050060D01*
X10757520Y13989100D01*
X10823560Y13951000D01*
X10856580Y13935760D01*
X10869280Y13940840D01*
X10925160Y13958620D01*
X11008980Y13994180D01*
X11108040Y14034820D01*
X11329020Y14133880D01*
X11356960Y14278660D01*
X11374740Y14367560D01*
X11397600Y14489480D01*
X11420460Y14608860D01*
X11456020Y14791740D01*
X12131660Y14799360D01*
X12144360Y14771420D01*
X12151980Y14743480D01*
X12167220Y14674900D01*
X12187540Y14578380D01*
X12207860Y14461540D01*
X12225640Y14365020D01*
X12245960Y14265960D01*
X12258660Y14194840D01*
X12266280Y14164360D01*
X12276440Y14154200D01*
X12324700Y14131340D01*
X12400900Y14095780D01*
X12492340Y14055140D01*
X12586320Y14017040D01*
X12675220Y13981480D01*
X12741260Y13958620D01*
X12774280Y13948460D01*
X12802220Y13961160D01*
X12860640Y13999260D01*
X12941920Y14052600D01*
X13040980Y14121180D01*
X13137500Y14187220D01*
X13221320Y14245640D01*
X13282280Y14283740D01*
X13310220Y14301520D01*
X13328000Y14291360D01*
X13376260Y14253260D01*
X13452460Y14179600D01*
X13561680Y14067840D01*
X13579460Y14050060D01*
X13663280Y13963700D01*
X13731860Y13890040D01*
X13777580Y13836700D01*
X13795360Y13813840D01*
X13795360Y13813840D01*
G37*
X13795360Y13813840D02*
X13780120Y13788440D01*
X13744560Y13730020D01*
X13688680Y13646200D01*
X13622640Y13547140D01*
X13556600Y13448080D01*
X13503260Y13366800D01*
X13465160Y13310920D01*
X13452460Y13285520D01*
X13457540Y13272820D01*
X13480400Y13227100D01*
X13515960Y13158520D01*
X13536280Y13117880D01*
X13561680Y13056920D01*
X13569300Y13023900D01*
X13559140Y13018820D01*
X13510880Y12995960D01*
X13429600Y12960400D01*
X13320380Y12914680D01*
X13193380Y12858800D01*
X13058760Y12802920D01*
X12919060Y12744500D01*
X12784440Y12688620D01*
X12665060Y12640360D01*
X12568540Y12599720D01*
X12499960Y12574320D01*
X12472020Y12564160D01*
X12464400Y12566700D01*
X12433920Y12599720D01*
X12393280Y12653060D01*
X12296760Y12772440D01*
X12151980Y12889280D01*
X11986880Y12960400D01*
X11801460Y12983260D01*
X11631280Y12962940D01*
X11468720Y12896900D01*
X11321400Y12782600D01*
X11212180Y12642900D01*
X11143600Y12480340D01*
X11120740Y12300000D01*
X11141060Y12127280D01*
X11207100Y11959640D01*
X11318860Y11812320D01*
X11389980Y11748820D01*
X11539840Y11662460D01*
X11697320Y11614200D01*
X11737960Y11609120D01*
X11913220Y11616740D01*
X12083400Y11667540D01*
X12233260Y11761520D01*
X12357720Y11891060D01*
X12367880Y11906300D01*
X12413600Y11964720D01*
X12444080Y12005360D01*
X12469480Y12035840D01*
X13007960Y11812320D01*
X13091780Y11776760D01*
X13239100Y11715800D01*
X13366100Y11662460D01*
X13467700Y11619280D01*
X13533740Y11588800D01*
X13561680Y11576100D01*
X13564220Y11576100D01*
X13566760Y11555780D01*
X13551520Y11515140D01*
X13515960Y11438940D01*
X13490560Y11390680D01*
X13462620Y11332260D01*
X13452460Y11306860D01*
X13465160Y11284000D01*
X13500720Y11230660D01*
X13554060Y11149380D01*
X13617560Y11052860D01*
X13681060Y10961420D01*
X13736940Y10877600D01*
X13775040Y10816640D01*
X13792820Y10786160D01*
X13792820Y10781080D01*
X13777580Y10755680D01*
X13736940Y10707420D01*
X13668360Y10633760D01*
X13564220Y10529620D01*
X13548980Y10514380D01*
X13462620Y10428020D01*
X13388960Y10359440D01*
X13338160Y10313720D01*
X13315300Y10295940D01*
X13284820Y10311180D01*
X13223860Y10349280D01*
X13137500Y10405160D01*
X13038440Y10473740D01*
X12779360Y10651540D01*
X12535520Y10555020D01*
X12459320Y10524540D01*
X12370420Y10486440D01*
X12304380Y10458500D01*
X12276440Y10443260D01*
X12266280Y10417860D01*
X12251040Y10349280D01*
X12230720Y10252760D01*
X12210400Y10138460D01*
X12190080Y10026700D01*
X12169760Y9927640D01*
X12157060Y9856520D01*
X12149440Y9823500D01*
X12144360Y9815880D01*
X12129120Y9808260D01*
X12096100Y9805720D01*
X12035140Y9803180D01*
X11941160Y9800640D01*
X11801460Y9800640D01*
X11786220Y9800640D01*
X11656680Y9803180D01*
X11550000Y9805720D01*
X11483960Y9808260D01*
X11456020Y9813340D01*
X11448400Y9843820D01*
X11433160Y9914940D01*
X11415380Y10014000D01*
X11392520Y10133380D01*
X11389980Y10141000D01*
X11367120Y10257840D01*
X11346800Y10356900D01*
X11331560Y10428020D01*
X11321400Y10455960D01*
X11313780Y10463580D01*
X11268060Y10486440D01*
X11194400Y10519460D01*
X11105500Y10560100D01*
X11011520Y10598200D01*
X10927700Y10631220D01*
X10866740Y10654080D01*
X10838800Y10661700D01*
X10836260Y10659160D01*
X10808320Y10641380D01*
X10747360Y10600740D01*
X10663540Y10544860D01*
X10561940Y10476280D01*
X10554320Y10471200D01*
X10455260Y10402620D01*
X10368900Y10346740D01*
X10310480Y10311180D01*
X10282540Y10295940D01*
X10280000Y10295940D01*
X10249520Y10318800D01*
X10193640Y10369600D01*
X10117440Y10443260D01*
X10028540Y10529620D01*
X10003140Y10557560D01*
X9906620Y10656620D01*
X9845660Y10722660D01*
X9812640Y10765840D01*
X9805020Y10786160D01*
X9822800Y10816640D01*
X9863440Y10880140D01*
X9921860Y10963960D01*
X9990440Y11065560D01*
X9995520Y11073180D01*
X10064100Y11172240D01*
X10119980Y11256060D01*
X10160620Y11314480D01*
X10175860Y11342420D01*
X10175860Y11344960D01*
X10163160Y11385600D01*
X10137760Y11456720D01*
X10104740Y11545620D01*
X10066640Y11637060D01*
X10031080Y11720880D01*
X10003140Y11784380D01*
X9985360Y11814860D01*
X9949800Y11825020D01*
X9873600Y11842800D01*
X9772000Y11863120D01*
X9650080Y11888520D01*
X9629760Y11891060D01*
X9510380Y11913920D01*
X9411320Y11931700D01*
X9342740Y11946940D01*
X9314800Y11954560D01*
X9312260Y11969800D01*
X9307180Y12028220D01*
X9304640Y12117120D01*
X9304640Y12226340D01*
X9304640Y12338100D01*
X9307180Y12447320D01*
X9309720Y12541300D01*
X9314800Y12609880D01*
X9319880Y12637820D01*
X9322420Y12637820D01*
X9360520Y12647980D01*
X9434180Y12665760D01*
X9538320Y12686080D01*
X9660240Y12708940D01*
X9683100Y12714020D01*
X9799940Y12736880D01*
X9899000Y12757200D01*
X9965040Y12769900D01*
X9992980Y12777520D01*
X9998060Y12790220D01*
X10018380Y12838480D01*
X10051400Y12917220D01*
X10092040Y13016280D01*
X10183480Y13244880D01*
X9992980Y13526820D01*
X9975200Y13552220D01*
X9906620Y13653820D01*
X9850740Y13735100D01*
X9812640Y13793520D01*
X9799940Y13816380D01*
X9799940Y13818920D01*
X9825340Y13846860D01*
X9878680Y13902740D01*
X9952340Y13978940D01*
X10038700Y14067840D01*
X10104740Y14131340D01*
X10183480Y14210080D01*
X10236820Y14258340D01*
X10269840Y14286280D01*
X10290160Y14293900D01*
X10305400Y14291360D01*
X10333340Y14273580D01*
X10394300Y14232940D01*
X10480660Y14174520D01*
X10579720Y14105940D01*
X10663540Y14050060D01*
X10757520Y13989100D01*
X10823560Y13951000D01*
X10856580Y13935760D01*
X10869280Y13940840D01*
X10925160Y13958620D01*
X11008980Y13994180D01*
X11108040Y14034820D01*
X11329020Y14133880D01*
X11356960Y14278660D01*
X11374740Y14367560D01*
X11397600Y14489480D01*
X11420460Y14608860D01*
X11456020Y14791740D01*
X12131660Y14799360D01*
X12144360Y14771420D01*
X12151980Y14743480D01*
X12167220Y14674900D01*
X12187540Y14578380D01*
X12207860Y14461540D01*
X12225640Y14365020D01*
X12245960Y14265960D01*
X12258660Y14194840D01*
X12266280Y14164360D01*
X12276440Y14154200D01*
X12324700Y14131340D01*
X12400900Y14095780D01*
X12492340Y14055140D01*
X12586320Y14017040D01*
X12675220Y13981480D01*
X12741260Y13958620D01*
X12774280Y13948460D01*
X12802220Y13961160D01*
X12860640Y13999260D01*
X12941920Y14052600D01*
X13040980Y14121180D01*
X13137500Y14187220D01*
X13221320Y14245640D01*
X13282280Y14283740D01*
X13310220Y14301520D01*
X13328000Y14291360D01*
X13376260Y14253260D01*
X13452460Y14179600D01*
X13561680Y14067840D01*
X13579460Y14050060D01*
X13663280Y13963700D01*
X13731860Y13890040D01*
X13777580Y13836700D01*
X13795360Y13813840D01*
D17*
X55550000Y68450000D03*
X58450000Y68450000D03*
X58450000Y65550000D03*
X55550000Y65550000D03*
X57000000Y64950000D03*
X57000000Y69050000D03*
X54950000Y67000000D03*
X59050000Y67000000D03*
D18*
X57000000Y67000000D03*
D17*
X1550000Y68450000D03*
X4450000Y68450000D03*
X4450000Y65550000D03*
X1550000Y65550000D03*
X3000000Y64950000D03*
X3000000Y69050000D03*
X950000Y67000000D03*
X5050000Y67000000D03*
D18*
X3000000Y67000000D03*
D17*
X55550000Y4450000D03*
X58450000Y4450000D03*
X58450000Y1550000D03*
X55550000Y1550000D03*
X57000000Y950000D03*
X57000000Y5050000D03*
X54950000Y3000000D03*
X59050000Y3000000D03*
D18*
X57000000Y3000000D03*
D17*
X25550000Y4450000D03*
X28450000Y4450000D03*
X28450000Y1550000D03*
X25550000Y1550000D03*
X27000000Y950000D03*
X27000000Y5050000D03*
X24950000Y3000000D03*
X29050000Y3000000D03*
D18*
X27000000Y3000000D03*
D19*
X53750000Y46480000D03*
D20*
X53750000Y47750000D03*
X53750000Y49020000D03*
D19*
X25800000Y67000000D03*
D20*
X25800000Y65730000D03*
X25800000Y64460000D03*
D21*
X26500000Y42500000D03*
X29250000Y42500000D03*
X19000000Y37500000D03*
X19000000Y34750000D03*
X19000000Y32000000D03*
D22*
X3000000Y61540000D03*
X3000000Y59000000D03*
D23*
X3000000Y56460000D03*
D24*
X4000000Y40200000D03*
X4000000Y32200000D03*
D25*
X9500000Y49400000D03*
X2500000Y49400000D03*
D26*
X57290000Y25630000D03*
X54750000Y25630000D03*
X57290000Y28170000D03*
X54750000Y28170000D03*
X57290000Y30710000D03*
X54750000Y30710000D03*
X57290000Y33250000D03*
D27*
X54750000Y33250000D03*
D28*
X8330000Y63540000D03*
X10870000Y63540000D03*
D29*
X10870000Y61000000D03*
D30*
X8330000Y61000000D03*
D22*
X57000000Y44960000D03*
X57000000Y47500000D03*
D23*
X57000000Y50040000D03*
X45500000Y2500000D03*
D22*
X45500000Y5040000D03*
X45500000Y7580000D03*
X45500000Y10120000D03*
M02*
